G04 Layer_Color=128*
%FSLAX25Y25*%
%MOIN*%
G70*
G01*
G75*
%ADD49C,0.01000*%
%ADD80C,0.00200*%
D49*
X1369949Y1079008D02*
X1371949D01*
X1370949Y1078008D02*
Y1080008D01*
D80*
X1320742Y1109779D02*
X1324542D01*
X1322642Y1107880D02*
Y1111679D01*
X1338458Y1109779D02*
X1342258D01*
X1340358Y1107880D02*
Y1111679D01*
X1320742Y1082220D02*
X1324542D01*
X1322642Y1080320D02*
Y1084120D01*
X1338458Y1082220D02*
X1342258D01*
X1340358Y1080320D02*
Y1084120D01*
X1277151Y898996D02*
X1283101D01*
X1280126Y896021D02*
Y901971D01*
X1265340Y917500D02*
X1271290D01*
X1268315Y914525D02*
Y920475D01*
X1288962Y917500D02*
X1294912D01*
X1291937Y914525D02*
Y920475D01*
X1489728Y1000000D02*
X1493272D01*
X1491500Y998228D02*
Y1001772D01*
X1489728Y1010000D02*
X1493272D01*
X1491500Y1008228D02*
Y1011772D01*
X1490228Y1034500D02*
X1493772D01*
X1492000Y1032728D02*
Y1036272D01*
X1490228Y1044500D02*
X1493772D01*
X1492000Y1042728D02*
Y1046272D01*
X1490228Y1054500D02*
X1493772D01*
X1492000Y1052728D02*
Y1056272D01*
X1490228Y1064500D02*
X1493772D01*
X1492000Y1062728D02*
Y1066272D01*
X1490228Y1074500D02*
X1493772D01*
X1492000Y1072728D02*
Y1076272D01*
X1426600Y907000D02*
X1430400D01*
X1428500Y905100D02*
Y908900D01*
X1416600Y907000D02*
X1420400D01*
X1418500Y905100D02*
Y908900D01*
X1272752Y1132000D02*
X1279248D01*
X1276000Y1128752D02*
Y1135248D01*
X1282752Y1142000D02*
X1289248D01*
X1286000Y1138752D02*
Y1145248D01*
X1262752Y1142000D02*
X1269248D01*
X1266000Y1138752D02*
Y1145248D01*
X1282752Y1122000D02*
X1289248D01*
X1286000Y1118752D02*
Y1125248D01*
X1262752Y1122000D02*
X1269248D01*
X1266000Y1118752D02*
Y1125248D01*
X1231594Y1131500D02*
X1243406D01*
X1237500Y1125595D02*
Y1137405D01*
X1338095Y907500D02*
X1349905D01*
X1344000Y901595D02*
Y913406D01*
X1479095Y907500D02*
X1490905D01*
X1485000Y901595D02*
Y913406D01*
X1419829Y1136711D02*
X1421010D01*
X1420419Y1136121D02*
Y1137302D01*
X1415498Y1136711D02*
X1416679D01*
X1416089Y1136121D02*
Y1137302D01*
X1411168Y1136711D02*
X1412349D01*
X1411758Y1136121D02*
Y1137302D01*
X1400909Y1124000D02*
X1402091D01*
X1401500Y1123409D02*
Y1124591D01*
X1389909Y1125500D02*
X1391091D01*
X1390500Y1124909D02*
Y1126091D01*
X1390846Y1136892D02*
X1392027D01*
X1391436Y1136302D02*
Y1137483D01*
X1386515Y1136892D02*
X1387696D01*
X1387106Y1136302D02*
Y1137483D01*
X1382185Y1136892D02*
X1383366D01*
X1382775Y1136302D02*
Y1137483D01*
X1380409Y1125500D02*
X1381591D01*
X1381000Y1124909D02*
Y1126091D01*
X1461554Y1140462D02*
X1462735D01*
X1462145Y1139872D02*
Y1141053D01*
X1457224Y1140462D02*
X1458405D01*
X1457814Y1139872D02*
Y1141053D01*
X1452893Y1140462D02*
X1454074D01*
X1453483Y1139872D02*
Y1141053D01*
X1448562Y1140462D02*
X1449743D01*
X1449153Y1139872D02*
Y1141053D01*
X1444232Y1140396D02*
X1445413D01*
X1444823Y1139806D02*
Y1140987D01*
X1440149Y1138952D02*
X1441331D01*
X1440740Y1138361D02*
Y1139542D01*
X1441144Y1124454D02*
X1442325D01*
X1441735Y1123863D02*
Y1125044D01*
X1449708Y1123538D02*
X1450889D01*
X1450299Y1122947D02*
Y1124128D01*
X1454039Y1123538D02*
X1455220D01*
X1454629Y1122947D02*
Y1124128D01*
X1458369Y1123538D02*
X1459550D01*
X1458960Y1122947D02*
Y1124128D01*
X1462700Y1123538D02*
X1463881D01*
X1463291Y1122947D02*
Y1124128D01*
X1465447Y1120190D02*
X1466628D01*
X1466038Y1119600D02*
Y1120781D01*
X1465447Y1115859D02*
X1466628D01*
X1466038Y1115269D02*
Y1116450D01*
X1465447Y1111529D02*
X1466628D01*
X1466038Y1110938D02*
Y1112119D01*
X1465447Y1107198D02*
X1466628D01*
X1466038Y1106607D02*
Y1107788D01*
X1465447Y1102867D02*
X1466628D01*
X1466038Y1102277D02*
Y1103458D01*
X1465447Y1098537D02*
X1466628D01*
X1466038Y1097946D02*
Y1099127D01*
X1465447Y1094206D02*
X1466628D01*
X1466038Y1093615D02*
Y1094796D01*
X1465447Y1089875D02*
X1466628D01*
X1466038Y1089285D02*
Y1090466D01*
X1465695Y1085552D02*
X1466876D01*
X1466285Y1084961D02*
Y1086142D01*
X1471056Y1075528D02*
X1472237D01*
X1471646Y1074938D02*
Y1076119D01*
X1474140Y1078568D02*
X1475321D01*
X1474731Y1077977D02*
Y1079158D01*
X1478150Y1080204D02*
X1479331D01*
X1478741Y1079613D02*
Y1080794D01*
X1481211Y1083268D02*
X1482392D01*
X1481801Y1082677D02*
Y1083858D01*
X1482364Y1087442D02*
X1483545D01*
X1482955Y1086852D02*
Y1088033D01*
X1482372Y1091773D02*
X1483553D01*
X1482962Y1091182D02*
Y1092363D01*
X1482372Y1096103D02*
X1483553D01*
X1482962Y1095513D02*
Y1096694D01*
X1482372Y1100434D02*
X1483553D01*
X1482962Y1099844D02*
Y1101025D01*
X1482372Y1104765D02*
X1483553D01*
X1482962Y1104174D02*
Y1105355D01*
X1482372Y1109096D02*
X1483553D01*
X1482962Y1108505D02*
Y1109686D01*
X1482372Y1113426D02*
X1483553D01*
X1482962Y1112836D02*
Y1114017D01*
X1482372Y1117757D02*
X1483553D01*
X1482962Y1117166D02*
Y1118347D01*
X1482372Y1122088D02*
X1483553D01*
X1482962Y1121497D02*
Y1122678D01*
X1482134Y1126412D02*
X1483315D01*
X1482724Y1125821D02*
Y1127002D01*
X1480106Y1130238D02*
X1481287D01*
X1480696Y1129648D02*
Y1130829D01*
X1477060Y1133317D02*
X1478241D01*
X1477650Y1132726D02*
Y1133907D01*
X1473998Y1136379D02*
X1475179D01*
X1474588Y1135789D02*
Y1136970D01*
X1470747Y1139240D02*
X1471928D01*
X1471337Y1138650D02*
Y1139831D01*
X1466585Y1140439D02*
X1467766D01*
X1467176Y1139849D02*
Y1141030D01*
X1348107Y1140962D02*
X1349288D01*
X1348697Y1140372D02*
Y1141553D01*
X1343776Y1140962D02*
X1344957D01*
X1344366Y1140372D02*
Y1141553D01*
X1339445Y1140962D02*
X1340626D01*
X1340036Y1140372D02*
Y1141553D01*
X1335114Y1140962D02*
X1336296D01*
X1335705Y1140372D02*
Y1141553D01*
X1330784Y1140962D02*
X1331965D01*
X1331374Y1140372D02*
Y1141553D01*
X1326453Y1140962D02*
X1327634D01*
X1327044Y1140372D02*
Y1141553D01*
X1322122Y1140962D02*
X1323304D01*
X1322713Y1140372D02*
Y1141553D01*
X1317792Y1140962D02*
X1318973D01*
X1318382Y1140372D02*
Y1141553D01*
X1313461Y1140962D02*
X1314642D01*
X1314052Y1140372D02*
Y1141553D01*
X1309130Y1140962D02*
X1310311D01*
X1309721Y1140372D02*
Y1141553D01*
X1304800Y1140962D02*
X1305981D01*
X1305390Y1140372D02*
Y1141553D01*
X1300469Y1140962D02*
X1301650D01*
X1301059Y1140372D02*
Y1141553D01*
X1296138Y1140962D02*
X1297319D01*
X1296729Y1140372D02*
Y1141553D01*
X1293843Y1124038D02*
X1295024D01*
X1294434Y1123447D02*
Y1124628D01*
X1298174Y1124038D02*
X1299355D01*
X1298765Y1123447D02*
Y1124628D01*
X1302505Y1124038D02*
X1303686D01*
X1303095Y1123447D02*
Y1124628D01*
X1306835Y1124038D02*
X1308017D01*
X1307426Y1123447D02*
Y1124628D01*
X1311166Y1124038D02*
X1312347D01*
X1311757Y1123447D02*
Y1124628D01*
X1315497Y1124038D02*
X1316678D01*
X1316087Y1123447D02*
Y1124628D01*
X1319828Y1124038D02*
X1321009D01*
X1320418Y1123447D02*
Y1124628D01*
X1324158Y1124038D02*
X1325339D01*
X1324749Y1123447D02*
Y1124628D01*
X1328489Y1124038D02*
X1329670D01*
X1329080Y1123447D02*
Y1124628D01*
X1332820Y1124038D02*
X1334001D01*
X1333410Y1123447D02*
Y1124628D01*
X1337150Y1124038D02*
X1338332D01*
X1337741Y1123447D02*
Y1124628D01*
X1341481Y1124038D02*
X1342662D01*
X1342072Y1123447D02*
Y1124628D01*
X1345812Y1124038D02*
X1346993D01*
X1346402Y1123447D02*
Y1124628D01*
X1350142Y1124038D02*
X1351324D01*
X1350733Y1123447D02*
Y1124628D01*
X1358647Y1125202D02*
X1359828D01*
X1359237Y1124611D02*
Y1125792D01*
X1358747Y1139740D02*
X1359928D01*
X1359337Y1139150D02*
Y1140331D01*
X1354585Y1140939D02*
X1355766D01*
X1355176Y1140349D02*
Y1141530D01*
X1445100Y1118000D02*
X1447900D01*
X1446500Y1116600D02*
Y1119400D01*
X1415100Y1121000D02*
X1417900D01*
X1416500Y1119600D02*
Y1122400D01*
X1384100Y1121000D02*
X1386900D01*
X1385500Y1119600D02*
Y1122400D01*
X1353600Y1118000D02*
X1356400D01*
X1355000Y1116600D02*
Y1119400D01*
X1290600Y999500D02*
X1293400D01*
X1292000Y998100D02*
Y1000900D01*
X1284100Y995000D02*
X1286900D01*
X1285500Y993600D02*
Y996400D01*
X1439100Y974000D02*
X1441900D01*
X1440500Y972600D02*
Y975400D01*
X1436100Y990000D02*
X1438900D01*
X1437500Y988600D02*
Y991400D01*
X1472600Y1038500D02*
X1475400D01*
X1474000Y1037100D02*
Y1039900D01*
X1385600Y1034000D02*
X1388400D01*
X1387000Y1032600D02*
Y1035400D01*
X1298100Y1021500D02*
X1300900D01*
X1299500Y1020100D02*
Y1022900D01*
X1269600Y1031000D02*
X1272400D01*
X1271000Y1029600D02*
Y1032400D01*
X1280100Y1026000D02*
X1282900D01*
X1281500Y1024600D02*
Y1027400D01*
X1243600Y1038500D02*
X1246400D01*
X1245000Y1037100D02*
Y1039900D01*
X1243600Y1080500D02*
X1246400D01*
X1245000Y1079100D02*
Y1081900D01*
X1244100Y993000D02*
X1246900D01*
X1245500Y991600D02*
Y994400D01*
X1280100Y972000D02*
X1282900D01*
X1281500Y970600D02*
Y973400D01*
X1223820Y1157481D02*
X1225001D01*
X1224410Y1156890D02*
Y1158072D01*
X1227757Y1157481D02*
X1228938D01*
X1228347Y1156890D02*
Y1158072D01*
X1231694Y1157481D02*
X1232875D01*
X1232284Y1156890D02*
Y1158072D01*
X1235631Y1157481D02*
X1236812D01*
X1236221Y1156890D02*
Y1158072D01*
X1239568Y1157481D02*
X1240749D01*
X1240158Y1156890D02*
Y1158072D01*
X1243505Y1157481D02*
X1244686D01*
X1244095Y1156890D02*
Y1158072D01*
X1247442Y1157481D02*
X1248623D01*
X1248032Y1156890D02*
Y1158072D01*
X1251379Y1157481D02*
X1252560D01*
X1251969Y1156890D02*
Y1158072D01*
X1255316Y1157481D02*
X1256497D01*
X1255906Y1156890D02*
Y1158072D01*
X1259253Y1157481D02*
X1260434D01*
X1259843Y1156890D02*
Y1158072D01*
X1263190Y1157481D02*
X1264371D01*
X1263780Y1156890D02*
Y1158072D01*
X1267127Y1157481D02*
X1268308D01*
X1267717Y1156890D02*
Y1158072D01*
X1271064Y1157481D02*
X1272245D01*
X1271654Y1156890D02*
Y1158072D01*
X1275001Y1157481D02*
X1276182D01*
X1275591Y1156890D02*
Y1158072D01*
X1278938Y1157481D02*
X1280119D01*
X1279528Y1156890D02*
Y1158072D01*
X1282875Y1157481D02*
X1284056D01*
X1283465Y1156890D02*
Y1158072D01*
X1286812Y1157481D02*
X1287993D01*
X1287402Y1156890D02*
Y1158072D01*
X1290749Y1157481D02*
X1291930D01*
X1291339Y1156890D02*
Y1158072D01*
X1294686Y1157481D02*
X1295867D01*
X1295276Y1156890D02*
Y1158072D01*
X1298623Y1157481D02*
X1299804D01*
X1299213Y1156890D02*
Y1158072D01*
X1302560Y1157481D02*
X1303741D01*
X1303150Y1156890D02*
Y1158072D01*
X1306497Y1157481D02*
X1307678D01*
X1307087Y1156890D02*
Y1158072D01*
X1310434Y1157481D02*
X1311615D01*
X1311024Y1156890D02*
Y1158072D01*
X1314371Y1157481D02*
X1315552D01*
X1314961Y1156890D02*
Y1158072D01*
X1318308Y1157481D02*
X1319489D01*
X1318898Y1156890D02*
Y1158072D01*
X1322245Y1157481D02*
X1323426D01*
X1322835Y1156890D02*
Y1158072D01*
X1326182Y1157481D02*
X1327363D01*
X1326772Y1156890D02*
Y1158072D01*
X1330119Y1157481D02*
X1331300D01*
X1330709Y1156890D02*
Y1158072D01*
X1334056Y1157481D02*
X1335237D01*
X1334646Y1156890D02*
Y1158072D01*
X1337993Y1157481D02*
X1339174D01*
X1338583Y1156890D02*
Y1158072D01*
X1341930Y1157481D02*
X1343111D01*
X1342520Y1156890D02*
Y1158072D01*
X1345867Y1157481D02*
X1347048D01*
X1346457Y1156890D02*
Y1158072D01*
X1349804Y1157481D02*
X1350985D01*
X1350394Y1156890D02*
Y1158072D01*
X1353741Y1157481D02*
X1354922D01*
X1354331Y1156890D02*
Y1158072D01*
X1357678Y1157481D02*
X1358859D01*
X1358268Y1156890D02*
Y1158072D01*
X1361615Y1157481D02*
X1362796D01*
X1362206Y1156890D02*
Y1158072D01*
X1365552Y1157481D02*
X1366733D01*
X1366142Y1156890D02*
Y1158072D01*
X1369489Y1157481D02*
X1370670D01*
X1370080Y1156890D02*
Y1158072D01*
X1373426Y1157481D02*
X1374607D01*
X1374016Y1156890D02*
Y1158072D01*
X1377363Y1157481D02*
X1378544D01*
X1377954Y1156890D02*
Y1158072D01*
X1381300Y1157481D02*
X1382481D01*
X1381890Y1156890D02*
Y1158072D01*
X1385237Y1157481D02*
X1386418D01*
X1385828Y1156890D02*
Y1158072D01*
X1389174Y1157481D02*
X1390355D01*
X1389764Y1156890D02*
Y1158072D01*
X1393111Y1157481D02*
X1394292D01*
X1393701Y1156890D02*
Y1158072D01*
X1397048Y1157481D02*
X1398229D01*
X1397639Y1156890D02*
Y1158072D01*
X1400985Y1157481D02*
X1402166D01*
X1401576Y1156890D02*
Y1158072D01*
X1404922Y1157481D02*
X1406103D01*
X1405513Y1156890D02*
Y1158072D01*
X1408859Y1157481D02*
X1410040D01*
X1409450Y1156890D02*
Y1158072D01*
X1412796Y1157481D02*
X1413977D01*
X1413387Y1156890D02*
Y1158072D01*
X1416733Y1157481D02*
X1417914D01*
X1417324Y1156890D02*
Y1158072D01*
X1420670Y1157481D02*
X1421851D01*
X1421261Y1156890D02*
Y1158072D01*
X1424607Y1157481D02*
X1425788D01*
X1425198Y1156890D02*
Y1158072D01*
X1428544Y1157481D02*
X1429725D01*
X1429135Y1156890D02*
Y1158072D01*
X1432481Y1157481D02*
X1433662D01*
X1433072Y1156890D02*
Y1158072D01*
X1436418Y1157481D02*
X1437599D01*
X1437009Y1156890D02*
Y1158072D01*
X1440355Y1157481D02*
X1441536D01*
X1440946Y1156890D02*
Y1158072D01*
X1444292Y1157481D02*
X1445473D01*
X1444883Y1156890D02*
Y1158072D01*
X1448229Y1157481D02*
X1449410D01*
X1448820Y1156890D02*
Y1158072D01*
X1452166Y1157481D02*
X1453347D01*
X1452757Y1156890D02*
Y1158072D01*
X1456103Y1157481D02*
X1457284D01*
X1456694Y1156890D02*
Y1158072D01*
X1460040Y1157481D02*
X1461221D01*
X1460631Y1156890D02*
Y1158072D01*
X1463977Y1157481D02*
X1465158D01*
X1464568Y1156890D02*
Y1158072D01*
X1467914Y1157481D02*
X1469095D01*
X1468505Y1156890D02*
Y1158072D01*
X1471851Y1157481D02*
X1473032D01*
X1472442Y1156890D02*
Y1158072D01*
X1475788Y1157481D02*
X1476969D01*
X1476379Y1156890D02*
Y1158072D01*
X1479725Y1157481D02*
X1480906D01*
X1480316Y1156890D02*
Y1158072D01*
X1483662Y1157481D02*
X1484843D01*
X1484253Y1156890D02*
Y1158072D01*
X1487599Y1157481D02*
X1488780D01*
X1488190Y1156890D02*
Y1158072D01*
X1491536Y1157481D02*
X1492717D01*
X1492127Y1156890D02*
Y1158072D01*
X1495473Y1157481D02*
X1496654D01*
X1496064Y1156890D02*
Y1158072D01*
X1499410Y1157481D02*
X1500591D01*
X1500001Y1156890D02*
Y1158072D01*
X1503347Y1157481D02*
X1504528D01*
X1503938Y1156890D02*
Y1158072D01*
M02*
