G04 Layer_Physical_Order=2*
G04 Layer_Color=16711680*
%FSLAX25Y25*%
%MOIN*%
G70*
G01*
G75*
%ADD10R,0.05906X0.05118*%
%ADD11R,0.05118X0.05906*%
%ADD12R,0.05906X0.05906*%
G04:AMPARAMS|DCode=14|XSize=55.12mil|YSize=39.37mil|CornerRadius=4.92mil|HoleSize=0mil|Usage=FLASHONLY|Rotation=180.000|XOffset=0mil|YOffset=0mil|HoleType=Round|Shape=RoundedRectangle|*
%AMROUNDEDRECTD14*
21,1,0.05512,0.02953,0,0,180.0*
21,1,0.04528,0.03937,0,0,180.0*
1,1,0.00984,-0.02264,0.01476*
1,1,0.00984,0.02264,0.01476*
1,1,0.00984,0.02264,-0.01476*
1,1,0.00984,-0.02264,-0.01476*
%
%ADD14ROUNDEDRECTD14*%
G04:AMPARAMS|DCode=15|XSize=96.46mil|YSize=100.39mil|CornerRadius=9.65mil|HoleSize=0mil|Usage=FLASHONLY|Rotation=180.000|XOffset=0mil|YOffset=0mil|HoleType=Round|Shape=RoundedRectangle|*
%AMROUNDEDRECTD15*
21,1,0.09646,0.08110,0,0,180.0*
21,1,0.07717,0.10039,0,0,180.0*
1,1,0.01929,-0.03858,0.04055*
1,1,0.01929,0.03858,0.04055*
1,1,0.01929,0.03858,-0.04055*
1,1,0.01929,-0.03858,-0.04055*
%
%ADD15ROUNDEDRECTD15*%
%ADD16C,0.05000*%
%ADD19O,0.08661X0.02362*%
%ADD21O,0.08000X0.13000*%
G04:AMPARAMS|DCode=22|XSize=130mil|YSize=80mil|CornerRadius=10mil|HoleSize=0mil|Usage=FLASHONLY|Rotation=90.000|XOffset=0mil|YOffset=0mil|HoleType=Round|Shape=RoundedRectangle|*
%AMROUNDEDRECTD22*
21,1,0.13000,0.06000,0,0,90.0*
21,1,0.11000,0.08000,0,0,90.0*
1,1,0.02000,0.03000,0.05500*
1,1,0.02000,0.03000,-0.05500*
1,1,0.02000,-0.03000,-0.05500*
1,1,0.02000,-0.03000,0.05500*
%
%ADD22ROUNDEDRECTD22*%
%ADD24C,0.02500*%
%ADD27C,0.05000*%
%ADD32P,0.08949X8X292.5*%
%ADD33O,0.11811X0.10236*%
%ADD34O,0.10236X0.11811*%
%ADD35C,0.05906*%
%ADD36C,0.06000*%
G04:AMPARAMS|DCode=37|XSize=60mil|YSize=60mil|CornerRadius=7.5mil|HoleSize=0mil|Usage=FLASHONLY|Rotation=90.000|XOffset=0mil|YOffset=0mil|HoleType=Round|Shape=RoundedRectangle|*
%AMROUNDEDRECTD37*
21,1,0.06000,0.04500,0,0,90.0*
21,1,0.04500,0.06000,0,0,90.0*
1,1,0.01500,0.02250,0.02250*
1,1,0.01500,0.02250,-0.02250*
1,1,0.01500,-0.02250,-0.02250*
1,1,0.01500,-0.02250,0.02250*
%
%ADD37ROUNDEDRECTD37*%
%ADD38C,0.08661*%
%ADD39C,0.19685*%
%ADD40C,0.02362*%
G04:AMPARAMS|DCode=41|XSize=70.87mil|YSize=47.24mil|CornerRadius=5.91mil|HoleSize=0mil|Usage=FLASHONLY|Rotation=0.000|XOffset=0mil|YOffset=0mil|HoleType=Round|Shape=RoundedRectangle|*
%AMROUNDEDRECTD41*
21,1,0.07087,0.03543,0,0,0.0*
21,1,0.05906,0.04724,0,0,0.0*
1,1,0.01181,0.02953,-0.01772*
1,1,0.01181,-0.02953,-0.01772*
1,1,0.01181,-0.02953,0.01772*
1,1,0.01181,0.02953,0.01772*
%
%ADD41ROUNDEDRECTD41*%
G04:AMPARAMS|DCode=42|XSize=70.87mil|YSize=47.24mil|CornerRadius=5.91mil|HoleSize=0mil|Usage=FLASHONLY|Rotation=90.000|XOffset=0mil|YOffset=0mil|HoleType=Round|Shape=RoundedRectangle|*
%AMROUNDEDRECTD42*
21,1,0.07087,0.03543,0,0,90.0*
21,1,0.05906,0.04724,0,0,90.0*
1,1,0.01181,0.01772,0.02953*
1,1,0.01181,0.01772,-0.02953*
1,1,0.01181,-0.01772,-0.02953*
1,1,0.01181,-0.01772,0.02953*
%
%ADD42ROUNDEDRECTD42*%
%ADD43R,0.09449X0.03937*%
%ADD44R,0.09449X0.12992*%
%ADD45C,0.02953*%
G36*
X1507000Y885000D02*
X1220500D01*
X1219974Y1163646D01*
X1220327Y1164000D01*
X1507000D01*
Y885000D01*
D02*
G37*
%LPC*%
G36*
X1276000Y1137859D02*
X1274857Y1137746D01*
X1273758Y1137413D01*
X1272745Y1136872D01*
X1271857Y1136143D01*
X1271128Y1135255D01*
X1270587Y1134242D01*
X1270254Y1133143D01*
X1270141Y1132000D01*
X1270254Y1130857D01*
X1270587Y1129758D01*
X1271128Y1128745D01*
X1271857Y1127857D01*
X1272745Y1127129D01*
X1273758Y1126587D01*
X1274857Y1126254D01*
X1276000Y1126141D01*
X1277143Y1126254D01*
X1278242Y1126587D01*
X1279255Y1127129D01*
X1280143Y1127857D01*
X1280871Y1128745D01*
X1281413Y1129758D01*
X1281746Y1130857D01*
X1281859Y1132000D01*
X1281746Y1133143D01*
X1281413Y1134242D01*
X1280871Y1135255D01*
X1280143Y1136143D01*
X1279255Y1136872D01*
X1278242Y1137413D01*
X1277143Y1137746D01*
X1276000Y1137859D01*
D02*
G37*
G36*
X1325459Y1115413D02*
X1319825D01*
X1317008Y1112597D01*
Y1106963D01*
X1319825Y1104146D01*
X1319868D01*
Y1087854D01*
X1319825D01*
X1317008Y1085037D01*
Y1079403D01*
X1319825Y1076587D01*
X1325459D01*
X1328276Y1079403D01*
Y1085037D01*
X1325459Y1087854D01*
X1325416D01*
Y1104146D01*
X1325459D01*
X1328276Y1106963D01*
Y1112597D01*
X1325459Y1115413D01*
D02*
G37*
G36*
X1250500Y1087029D02*
X1240500D01*
X1239915Y1086913D01*
X1239419Y1086581D01*
X1239087Y1086085D01*
X1238971Y1085500D01*
Y1078024D01*
X1238858D01*
Y1071087D01*
X1239917D01*
X1240500Y1070971D01*
X1250500D01*
X1251083Y1071087D01*
X1251307D01*
Y1071235D01*
X1251581Y1071419D01*
X1251913Y1071915D01*
X1252029Y1072500D01*
Y1085500D01*
X1251913Y1086085D01*
X1251581Y1086581D01*
X1251085Y1086913D01*
X1250500Y1087029D01*
D02*
G37*
G36*
X1496453Y1078953D02*
X1487547D01*
Y1070047D01*
X1496453D01*
Y1078953D01*
D02*
G37*
G36*
X1492000Y1068991D02*
X1490838Y1068838D01*
X1489754Y1068390D01*
X1488824Y1067676D01*
X1488111Y1066746D01*
X1487662Y1065662D01*
X1487509Y1064500D01*
X1487662Y1063338D01*
X1488111Y1062254D01*
X1488824Y1061324D01*
X1489754Y1060610D01*
X1490838Y1060162D01*
X1492000Y1060009D01*
X1493162Y1060162D01*
X1494246Y1060610D01*
X1495176Y1061324D01*
X1495889Y1062254D01*
X1496338Y1063338D01*
X1496491Y1064500D01*
X1496338Y1065662D01*
X1495889Y1066746D01*
X1495176Y1067676D01*
X1494246Y1068390D01*
X1493162Y1068838D01*
X1492000Y1068991D01*
D02*
G37*
G36*
X1274142Y1073496D02*
X1261693D01*
Y1069534D01*
X1245083D01*
X1244038Y1069397D01*
X1243065Y1068994D01*
X1243032Y1068968D01*
X1238858D01*
Y1062031D01*
X1243032D01*
X1243065Y1062006D01*
X1244038Y1061603D01*
X1245083Y1061465D01*
X1261693D01*
Y1057504D01*
X1274142D01*
Y1061465D01*
X1277466D01*
Y1026000D01*
X1277603Y1024956D01*
X1278006Y1023983D01*
X1278647Y1023147D01*
X1279483Y1022506D01*
X1280456Y1022103D01*
X1281500Y1021966D01*
X1282544Y1022103D01*
X1283517Y1022506D01*
X1283804Y1022726D01*
X1289087D01*
X1289804Y1022821D01*
X1290473Y1023098D01*
X1291048Y1023539D01*
X1293235Y1025726D01*
X1296276D01*
X1296459Y1025604D01*
X1297236Y1025449D01*
X1297285D01*
X1297413Y1025154D01*
X1297424Y1024949D01*
X1296647Y1024353D01*
X1296006Y1023517D01*
X1295603Y1022544D01*
X1295465Y1021500D01*
X1295603Y1020456D01*
X1296006Y1019483D01*
X1296234Y1019185D01*
X1296153Y1018692D01*
X1295800Y1018456D01*
X1295360Y1017797D01*
X1295205Y1017020D01*
Y1014067D01*
X1295360Y1013290D01*
X1295800Y1012631D01*
X1295957Y1012526D01*
Y1010130D01*
X1296744Y1009342D01*
X1302256D01*
X1303043Y1010130D01*
Y1012526D01*
X1303200Y1012631D01*
X1303640Y1013290D01*
X1303795Y1014067D01*
Y1017020D01*
X1303640Y1017797D01*
X1303200Y1018456D01*
X1302847Y1018692D01*
X1302766Y1019185D01*
X1302994Y1019483D01*
X1303397Y1020456D01*
X1303535Y1021500D01*
X1303397Y1022544D01*
X1302994Y1023517D01*
X1302353Y1024353D01*
X1301576Y1024949D01*
X1301587Y1025154D01*
X1301715Y1025449D01*
X1301764D01*
X1302009Y1025498D01*
X1378186D01*
X1378539Y1025039D01*
X1379113Y1024598D01*
X1379782Y1024321D01*
X1380500Y1024226D01*
X1391047D01*
Y1023201D01*
X1391362D01*
X1391630Y1022701D01*
X1391360Y1022297D01*
X1391205Y1021520D01*
Y1018567D01*
X1391360Y1017790D01*
X1391800Y1017131D01*
X1391957Y1017026D01*
Y1014630D01*
X1392744Y1013842D01*
X1398256D01*
X1399043Y1014630D01*
Y1016690D01*
X1399217Y1016818D01*
X1399751Y1016590D01*
X1399790Y1016300D01*
X1400060Y1015648D01*
X1400489Y1015088D01*
X1400859Y1014804D01*
X1400893Y1014722D01*
Y1014278D01*
X1400859Y1014196D01*
X1400489Y1013912D01*
X1400060Y1013352D01*
X1399790Y1012700D01*
X1399697Y1012000D01*
X1399790Y1011300D01*
X1400060Y1010648D01*
X1400489Y1010088D01*
X1401050Y1009658D01*
X1401702Y1009388D01*
X1402402Y1009296D01*
X1408701D01*
X1409401Y1009388D01*
X1410053Y1009658D01*
X1410613Y1010088D01*
X1411043Y1010648D01*
X1411313Y1011300D01*
X1411405Y1012000D01*
X1411313Y1012700D01*
X1411043Y1013352D01*
X1410613Y1013912D01*
X1410243Y1014196D01*
X1410209Y1014278D01*
Y1014722D01*
X1410243Y1014804D01*
X1410613Y1015088D01*
X1411043Y1015648D01*
X1411313Y1016300D01*
X1411405Y1017000D01*
X1411313Y1017700D01*
X1411043Y1018352D01*
X1410613Y1018912D01*
X1410243Y1019196D01*
X1410209Y1019278D01*
Y1019722D01*
X1410243Y1019804D01*
X1410613Y1020088D01*
X1411043Y1020648D01*
X1411313Y1021300D01*
X1411405Y1022000D01*
X1411313Y1022700D01*
X1411043Y1023352D01*
X1410613Y1023912D01*
X1410243Y1024196D01*
X1410209Y1024278D01*
Y1024722D01*
X1410243Y1024804D01*
X1410613Y1025088D01*
X1411043Y1025648D01*
X1411313Y1026300D01*
X1411405Y1027000D01*
X1411313Y1027700D01*
X1411043Y1028352D01*
X1410613Y1028912D01*
X1410053Y1029342D01*
X1409401Y1029612D01*
X1408701Y1029704D01*
X1406079D01*
X1405551Y1029774D01*
X1399953D01*
Y1030681D01*
Y1038799D01*
X1391047D01*
Y1036774D01*
X1389913D01*
X1389853Y1036853D01*
X1389017Y1037494D01*
X1388044Y1037897D01*
X1387000Y1038035D01*
X1385956Y1037897D01*
X1384983Y1037494D01*
X1384147Y1036853D01*
X1383774Y1036366D01*
X1383274Y1036536D01*
Y1052851D01*
X1385149Y1054726D01*
X1412351D01*
X1413226Y1053851D01*
Y1046299D01*
X1411547D01*
Y1038181D01*
Y1037337D01*
X1410403D01*
Y1038835D01*
X1410241Y1039650D01*
X1409779Y1040342D01*
X1409087Y1040804D01*
X1408272Y1040966D01*
X1404728D01*
X1403913Y1040804D01*
X1403221Y1040342D01*
X1402759Y1039650D01*
X1402597Y1038835D01*
Y1032929D01*
X1402759Y1032113D01*
X1403221Y1031422D01*
X1403913Y1030960D01*
X1404728Y1030798D01*
X1408272D01*
X1409087Y1030960D01*
X1409779Y1031422D01*
X1410024Y1031789D01*
X1411547D01*
Y1030701D01*
X1413226D01*
Y1017000D01*
X1413321Y1016282D01*
X1413598Y1015613D01*
X1414039Y1015039D01*
X1414613Y1014598D01*
X1415282Y1014321D01*
X1416000Y1014226D01*
X1430851D01*
X1433047Y1012030D01*
Y1009681D01*
X1441953D01*
Y1017201D01*
X1442953D01*
Y1018683D01*
X1445207D01*
X1445300Y1018544D01*
X1445959Y1018104D01*
X1446108Y1018074D01*
Y1014903D01*
X1445929D01*
X1445113Y1014741D01*
X1444422Y1014279D01*
X1443960Y1013587D01*
X1443798Y1012772D01*
Y1009228D01*
X1443960Y1008413D01*
X1444422Y1007721D01*
X1445113Y1007259D01*
X1445929Y1007097D01*
X1451835D01*
X1452650Y1007259D01*
X1453342Y1007721D01*
X1453722Y1008290D01*
X1453844Y1008322D01*
X1454156D01*
X1454278Y1008290D01*
X1454658Y1007721D01*
X1455350Y1007259D01*
X1456165Y1007097D01*
X1462071D01*
X1462887Y1007259D01*
X1463578Y1007721D01*
X1463916Y1008226D01*
X1487415D01*
X1487611Y1007754D01*
X1488324Y1006824D01*
X1489254Y1006110D01*
X1490338Y1005662D01*
X1491500Y1005509D01*
X1492662Y1005662D01*
X1493746Y1006110D01*
X1494676Y1006824D01*
X1495389Y1007754D01*
X1495838Y1008838D01*
X1495991Y1010000D01*
X1495838Y1011162D01*
X1495389Y1012246D01*
X1494676Y1013176D01*
X1493746Y1013890D01*
X1492662Y1014338D01*
X1491500Y1014491D01*
X1490338Y1014338D01*
X1489254Y1013890D01*
X1489104Y1013774D01*
X1463916D01*
X1463578Y1014279D01*
X1462887Y1014741D01*
X1462071Y1014903D01*
X1456165D01*
X1455350Y1014741D01*
X1454658Y1014279D01*
X1454278Y1013710D01*
X1454156Y1013678D01*
X1453844D01*
X1453722Y1013710D01*
X1453342Y1014279D01*
X1452650Y1014741D01*
X1451835Y1014903D01*
X1451656D01*
Y1018027D01*
X1452041Y1018104D01*
X1452700Y1018544D01*
X1453140Y1019203D01*
X1453295Y1019980D01*
Y1022933D01*
X1453140Y1023710D01*
X1452700Y1024369D01*
X1452543Y1024474D01*
Y1025526D01*
X1452700Y1025631D01*
X1453140Y1026290D01*
X1453295Y1027067D01*
Y1030020D01*
X1453140Y1030797D01*
X1452700Y1031456D01*
X1452041Y1031896D01*
X1451264Y1032051D01*
X1446736D01*
X1445959Y1031896D01*
X1445300Y1031456D01*
X1445207Y1031317D01*
X1442953D01*
Y1032799D01*
X1434047D01*
Y1031711D01*
X1430937D01*
X1430713Y1031681D01*
X1430337Y1032011D01*
Y1034547D01*
X1439299D01*
Y1036226D01*
X1441084D01*
X1441422Y1035721D01*
X1442113Y1035259D01*
X1442929Y1035097D01*
X1448835D01*
X1449650Y1035259D01*
X1450342Y1035721D01*
X1450722Y1036290D01*
X1450844Y1036322D01*
X1451156D01*
X1451278Y1036290D01*
X1451658Y1035721D01*
X1452350Y1035259D01*
X1453165Y1035097D01*
X1459071D01*
X1459886Y1035259D01*
X1460578Y1035721D01*
X1460916Y1036226D01*
X1470703D01*
X1471147Y1035647D01*
X1471983Y1035006D01*
X1472956Y1034603D01*
X1474000Y1034466D01*
X1475044Y1034603D01*
X1476017Y1035006D01*
X1476853Y1035647D01*
X1477494Y1036483D01*
X1477897Y1037456D01*
X1478034Y1038500D01*
X1477897Y1039544D01*
X1477494Y1040517D01*
X1476853Y1041353D01*
X1476017Y1041994D01*
X1475044Y1042397D01*
X1474000Y1042535D01*
X1472956Y1042397D01*
X1471983Y1041994D01*
X1471696Y1041774D01*
X1460916D01*
X1460578Y1042279D01*
X1459886Y1042741D01*
X1459071Y1042903D01*
X1453165D01*
X1452350Y1042741D01*
X1451658Y1042279D01*
X1451278Y1041710D01*
X1451156Y1041678D01*
X1450844D01*
X1450722Y1041710D01*
X1450342Y1042279D01*
X1449650Y1042741D01*
X1448835Y1042903D01*
X1442929D01*
X1442113Y1042741D01*
X1441422Y1042279D01*
X1441084Y1041774D01*
X1439299D01*
Y1043453D01*
X1423701D01*
Y1034547D01*
X1424789D01*
Y1029774D01*
X1424449D01*
X1423921Y1029704D01*
X1421299D01*
X1420599Y1029612D01*
X1419947Y1029342D01*
X1419387Y1028912D01*
X1419274Y1028765D01*
X1418774Y1028934D01*
Y1030701D01*
X1420453D01*
Y1038181D01*
Y1046299D01*
X1418774D01*
Y1055000D01*
X1418679Y1055718D01*
X1418402Y1056387D01*
X1417961Y1056961D01*
X1415461Y1059461D01*
X1414887Y1059902D01*
X1414218Y1060179D01*
X1413500Y1060274D01*
X1384000D01*
X1383282Y1060179D01*
X1382613Y1059902D01*
X1382039Y1059461D01*
X1378539Y1055961D01*
X1378098Y1055387D01*
X1377821Y1054718D01*
X1377726Y1054000D01*
Y1031502D01*
X1303445D01*
X1303200Y1031869D01*
X1303043Y1031974D01*
Y1034370D01*
X1302256Y1035157D01*
X1296744D01*
X1295957Y1034370D01*
Y1031974D01*
X1295800Y1031869D01*
X1295402Y1031274D01*
X1292087D01*
X1291369Y1031179D01*
X1290700Y1030902D01*
X1290125Y1030461D01*
X1287938Y1028274D01*
X1285534D01*
Y1061465D01*
X1290143D01*
X1290320Y1060574D01*
X1290865Y1059759D01*
X1291680Y1059214D01*
X1292642Y1059023D01*
X1300358D01*
X1301320Y1059214D01*
X1302135Y1059759D01*
X1302680Y1060574D01*
X1302871Y1061535D01*
Y1069646D01*
X1302680Y1070607D01*
X1302135Y1071422D01*
X1301320Y1071967D01*
X1300358Y1072159D01*
X1292642D01*
X1291680Y1071967D01*
X1290865Y1071422D01*
X1290320Y1070607D01*
X1290129Y1069646D01*
Y1069534D01*
X1274142D01*
Y1073496D01*
D02*
G37*
G36*
X1492000Y1058991D02*
X1490838Y1058838D01*
X1489754Y1058389D01*
X1488824Y1057676D01*
X1488111Y1056746D01*
X1487662Y1055662D01*
X1487509Y1054500D01*
X1487662Y1053338D01*
X1488111Y1052254D01*
X1488824Y1051324D01*
X1489754Y1050611D01*
X1490838Y1050162D01*
X1492000Y1050009D01*
X1493162Y1050162D01*
X1494246Y1050611D01*
X1495176Y1051324D01*
X1495889Y1052254D01*
X1496338Y1053338D01*
X1496491Y1054500D01*
X1496338Y1055662D01*
X1495889Y1056746D01*
X1495176Y1057676D01*
X1494246Y1058389D01*
X1493162Y1058838D01*
X1492000Y1058991D01*
D02*
G37*
G36*
Y1048991D02*
X1490838Y1048838D01*
X1489754Y1048390D01*
X1488824Y1047676D01*
X1488111Y1046746D01*
X1487662Y1045662D01*
X1487509Y1044500D01*
X1487662Y1043338D01*
X1488111Y1042254D01*
X1488824Y1041324D01*
X1489754Y1040611D01*
X1490838Y1040162D01*
X1492000Y1040009D01*
X1493162Y1040162D01*
X1494246Y1040611D01*
X1495176Y1041324D01*
X1495889Y1042254D01*
X1496338Y1043338D01*
X1496491Y1044500D01*
X1496338Y1045662D01*
X1495889Y1046746D01*
X1495176Y1047676D01*
X1494246Y1048390D01*
X1493162Y1048838D01*
X1492000Y1048991D01*
D02*
G37*
G36*
Y1038991D02*
X1490838Y1038838D01*
X1489754Y1038389D01*
X1488824Y1037676D01*
X1488111Y1036746D01*
X1487662Y1035662D01*
X1487509Y1034500D01*
X1487662Y1033338D01*
X1488111Y1032254D01*
X1488824Y1031324D01*
X1489754Y1030610D01*
X1490838Y1030162D01*
X1492000Y1030009D01*
X1493162Y1030162D01*
X1494246Y1030610D01*
X1495176Y1031324D01*
X1495889Y1032254D01*
X1496338Y1033338D01*
X1496491Y1034500D01*
X1496338Y1035662D01*
X1495889Y1036746D01*
X1495176Y1037676D01*
X1494246Y1038389D01*
X1493162Y1038838D01*
X1492000Y1038991D01*
D02*
G37*
G36*
X1245000Y1042535D02*
X1244961Y1042529D01*
X1240500D01*
X1239915Y1042413D01*
X1239419Y1042081D01*
X1239087Y1041585D01*
X1238971Y1041000D01*
Y1028000D01*
X1239087Y1027415D01*
X1239358Y1027009D01*
Y1026587D01*
X1239917D01*
X1240500Y1026471D01*
X1250500D01*
X1251083Y1026587D01*
X1251807D01*
Y1027256D01*
X1251913Y1027415D01*
X1252029Y1028000D01*
Y1041000D01*
X1251913Y1041585D01*
X1251581Y1042081D01*
X1251085Y1042413D01*
X1250500Y1042529D01*
X1245039D01*
X1245000Y1042535D01*
D02*
G37*
G36*
X1271000Y1035034D02*
X1269956Y1034897D01*
X1269068Y1034529D01*
X1267000D01*
X1266415Y1034413D01*
X1265919Y1034081D01*
X1256367Y1024529D01*
X1226500D01*
X1225915Y1024413D01*
X1225419Y1024081D01*
X1224919Y1023581D01*
X1224587Y1023085D01*
X1224471Y1022500D01*
Y974500D01*
X1224587Y973915D01*
X1224919Y973419D01*
X1225415Y973087D01*
X1226000Y972971D01*
X1249866D01*
X1254919Y967919D01*
X1255415Y967587D01*
X1256000Y967471D01*
X1286366D01*
X1286919Y966919D01*
X1287415Y966587D01*
X1288000Y966471D01*
X1288585Y966587D01*
X1289081Y966919D01*
X1291634Y969471D01*
X1303000D01*
X1303585Y969587D01*
X1304081Y969919D01*
X1304413Y970415D01*
X1304529Y971000D01*
Y983500D01*
X1304413Y984085D01*
X1304081Y984581D01*
X1303865Y984726D01*
X1304016Y985226D01*
X1308351D01*
X1370039Y923539D01*
X1370613Y923098D01*
X1371282Y922821D01*
X1372000Y922726D01*
X1410351D01*
X1415539Y917539D01*
X1415726Y917395D01*
Y912549D01*
X1415500D01*
X1414525Y912355D01*
X1413698Y911802D01*
X1413145Y910975D01*
X1412951Y910000D01*
Y899000D01*
X1413145Y898025D01*
X1413698Y897198D01*
X1414525Y896645D01*
X1415500Y896451D01*
X1421500D01*
X1422475Y896645D01*
X1423302Y897198D01*
X1423855Y898025D01*
X1423894Y898220D01*
X1424381Y898333D01*
X1424577Y898077D01*
X1425726Y897196D01*
X1427064Y896642D01*
X1428500Y896453D01*
X1429936Y896642D01*
X1431274Y897196D01*
X1432423Y898077D01*
X1433304Y899226D01*
X1433858Y900564D01*
X1434048Y902000D01*
Y907000D01*
X1433858Y908436D01*
X1433304Y909774D01*
X1432423Y910923D01*
X1431274Y911804D01*
Y921500D01*
X1431179Y922218D01*
X1430902Y922887D01*
X1430461Y923461D01*
X1418961Y934961D01*
X1418387Y935402D01*
X1417718Y935679D01*
X1417000Y935774D01*
X1375649D01*
X1309961Y1001461D01*
X1309387Y1001902D01*
X1308718Y1002179D01*
X1308000Y1002274D01*
X1294913D01*
X1294853Y1002353D01*
X1294017Y1002994D01*
X1293044Y1003397D01*
X1292000Y1003535D01*
X1290956Y1003397D01*
X1289983Y1002994D01*
X1289147Y1002353D01*
X1288506Y1001517D01*
X1288103Y1000544D01*
X1287965Y999500D01*
X1288071Y998699D01*
X1287602Y998429D01*
X1287517Y998494D01*
X1286544Y998897D01*
X1285500Y999035D01*
X1284456Y998897D01*
X1283483Y998494D01*
X1282647Y997853D01*
X1282006Y997017D01*
X1281603Y996044D01*
X1281466Y995000D01*
X1281603Y993956D01*
X1282006Y992983D01*
X1282647Y992147D01*
X1283483Y991506D01*
X1284456Y991103D01*
X1285500Y990965D01*
X1285599Y990979D01*
X1290539Y986039D01*
X1291113Y985598D01*
X1291278Y985529D01*
X1291179Y985029D01*
X1264000D01*
X1263832Y984996D01*
X1262193D01*
Y983856D01*
X1258867Y980529D01*
X1234134D01*
X1233529Y981133D01*
Y1016971D01*
X1255971D01*
Y1014000D01*
X1256087Y1013415D01*
X1256419Y1012919D01*
X1256915Y1012587D01*
X1257500Y1012471D01*
X1274000D01*
X1274585Y1012587D01*
X1275081Y1012919D01*
X1275413Y1013415D01*
X1275529Y1014000D01*
Y1033000D01*
X1275413Y1033585D01*
X1275081Y1034081D01*
X1274585Y1034413D01*
X1274000Y1034529D01*
X1272932D01*
X1272044Y1034897D01*
X1271000Y1035034D01*
D02*
G37*
G36*
X1452953Y997319D02*
X1444047D01*
Y995837D01*
X1442563D01*
X1441845Y995742D01*
X1441176Y995465D01*
X1440602Y995024D01*
X1439202Y993625D01*
X1438544Y993897D01*
X1437500Y994034D01*
X1436456Y993897D01*
X1435483Y993494D01*
X1434647Y992853D01*
X1434006Y992017D01*
X1433603Y991044D01*
X1433465Y990000D01*
X1433603Y988956D01*
X1434006Y987983D01*
X1434647Y987147D01*
X1434726Y987086D01*
Y977000D01*
X1434821Y976282D01*
X1435098Y975613D01*
X1435539Y975039D01*
X1436479Y974099D01*
X1436465Y974000D01*
X1436603Y972956D01*
X1437006Y971983D01*
X1437647Y971147D01*
X1438483Y970506D01*
X1439456Y970103D01*
X1440500Y969965D01*
X1441544Y970103D01*
X1442517Y970506D01*
X1443353Y971147D01*
X1443994Y971983D01*
X1444397Y972956D01*
X1444534Y974000D01*
X1444397Y975044D01*
X1443994Y976017D01*
X1443353Y976853D01*
X1442517Y977494D01*
X1441544Y977897D01*
X1440500Y978034D01*
X1440274Y978481D01*
Y987086D01*
X1440353Y987147D01*
X1440611Y987484D01*
X1440887Y987598D01*
X1441461Y988039D01*
X1443547Y990125D01*
X1444047Y989917D01*
Y989201D01*
X1452953D01*
Y997319D01*
D02*
G37*
G36*
X1250500Y998529D02*
X1240500D01*
X1239915Y998413D01*
X1239419Y998081D01*
X1239087Y997585D01*
X1238971Y997000D01*
Y984000D01*
X1239087Y983415D01*
X1239358Y983009D01*
Y982587D01*
X1239917D01*
X1240500Y982471D01*
X1250500D01*
X1251083Y982587D01*
X1251807D01*
Y983256D01*
X1251913Y983415D01*
X1252029Y984000D01*
Y997000D01*
X1251913Y997585D01*
X1251581Y998081D01*
X1251085Y998413D01*
X1250500Y998529D01*
D02*
G37*
G36*
X1291937Y924938D02*
X1290640Y924810D01*
X1289392Y924431D01*
X1288242Y923817D01*
X1287235Y922990D01*
X1286408Y921982D01*
X1285793Y920832D01*
X1285415Y919585D01*
X1285287Y918287D01*
Y916713D01*
X1285415Y915415D01*
X1285793Y914168D01*
X1286408Y913018D01*
X1287235Y912010D01*
X1288242Y911183D01*
X1289392Y910569D01*
X1290640Y910190D01*
X1291937Y910063D01*
X1293234Y910190D01*
X1294482Y910569D01*
X1295632Y911183D01*
X1296639Y912010D01*
X1297466Y913018D01*
X1298081Y914168D01*
X1298459Y915415D01*
X1298587Y916713D01*
Y918287D01*
X1298459Y919585D01*
X1298081Y920832D01*
X1297466Y921982D01*
X1296639Y922990D01*
X1295632Y923817D01*
X1294482Y924431D01*
X1293234Y924810D01*
X1291937Y924938D01*
D02*
G37*
%LPD*%
G36*
X1250500Y1072500D02*
X1240500D01*
Y1085500D01*
X1250500D01*
Y1072500D01*
D02*
G37*
G36*
Y1028000D02*
X1240500D01*
Y1041000D01*
X1250500D01*
Y1028000D01*
D02*
G37*
G36*
X1274000Y1014000D02*
X1257500D01*
Y1018500D01*
X1232000D01*
Y980500D01*
X1232500Y980000D01*
X1233500Y979000D01*
X1259500D01*
X1264000Y983500D01*
X1303000D01*
Y971000D01*
X1291000D01*
X1288000Y968000D01*
X1287000Y969000D01*
X1256000D01*
X1250500Y974500D01*
X1226000D01*
Y1022500D01*
X1226500Y1023000D01*
X1257000D01*
X1267000Y1033000D01*
X1274000D01*
Y1014000D01*
D02*
G37*
G36*
X1250500Y984000D02*
X1240500D01*
Y997000D01*
X1250500D01*
Y984000D01*
D02*
G37*
D10*
X1437500Y1006260D02*
D03*
Y1013740D02*
D03*
X1416000Y1034760D02*
D03*
Y1042240D02*
D03*
X1438500Y1028740D02*
D03*
Y1021260D02*
D03*
X1395500Y1034740D02*
D03*
Y1027260D02*
D03*
X1448500Y1000740D02*
D03*
Y993260D02*
D03*
D11*
X1435240Y1039000D02*
D03*
X1427760D02*
D03*
D12*
X1491500Y1000000D02*
D03*
X1492000Y1074500D02*
D03*
D14*
X1299500Y1008457D02*
D03*
Y1015543D02*
D03*
X1395500Y1012957D02*
D03*
Y1020043D02*
D03*
X1449000Y1028543D02*
D03*
Y1021457D02*
D03*
X1299500Y1028957D02*
D03*
Y1036043D02*
D03*
D15*
X1297500Y952591D02*
D03*
Y976409D02*
D03*
X1296500Y1089409D02*
D03*
Y1065591D02*
D03*
D16*
X1446500Y1118000D02*
D03*
X1416500Y1121000D02*
D03*
X1385500D02*
D03*
X1355000Y1118000D02*
D03*
X1292000Y999500D02*
D03*
X1285500Y995000D02*
D03*
X1440500Y974000D02*
D03*
X1437500Y990000D02*
D03*
X1474000Y1038500D02*
D03*
X1387000Y1034000D02*
D03*
X1299500Y1021500D02*
D03*
X1271000Y1031000D02*
D03*
X1281500Y1026000D02*
D03*
X1245000Y1038500D02*
D03*
Y1080500D02*
D03*
X1245500Y993000D02*
D03*
X1281500Y972000D02*
D03*
D19*
X1405551Y1012000D02*
D03*
Y1017000D02*
D03*
Y1022000D02*
D03*
Y1027000D02*
D03*
X1424449Y1012000D02*
D03*
Y1017000D02*
D03*
Y1022000D02*
D03*
Y1027000D02*
D03*
D21*
X1428500Y904500D02*
D03*
D22*
X1418500D02*
D03*
D24*
X1435500Y1013500D02*
X1435563D01*
X1432000Y1017000D02*
X1435500Y1013500D01*
X1289087Y1025500D02*
X1292087Y1028500D01*
X1380500D02*
Y1054000D01*
X1322642Y1082220D02*
Y1109779D01*
X1372000Y925500D02*
X1411500D01*
X1309500Y988000D02*
X1372000Y925500D01*
X1292500Y988000D02*
X1309500D01*
X1285500Y995000D02*
X1292500Y988000D01*
X1374500Y933000D02*
X1417000D01*
X1308000Y999500D02*
X1374500Y933000D01*
X1292000Y999500D02*
X1308000D01*
X1411500Y925500D02*
X1417500Y919500D01*
X1418500D01*
Y907000D02*
Y919500D01*
X1428500Y907000D02*
Y921500D01*
X1417000Y933000D02*
X1428500Y921500D01*
X1437500Y977000D02*
X1440500Y974000D01*
X1437500Y977000D02*
Y990000D01*
X1439500D02*
X1442563Y993063D01*
X1437500Y990000D02*
X1439500D01*
X1473500Y1039000D02*
X1474000Y1038500D01*
X1456118Y1039000D02*
X1473500D01*
X1456118D02*
X1456618Y1038500D01*
X1459118Y1011000D02*
X1490500D01*
X1416000Y1017000D02*
Y1034563D01*
Y1017000D02*
X1424449D01*
X1380500Y1054000D02*
X1384000Y1057500D01*
X1413500D01*
X1416000Y1055000D01*
Y1042437D02*
Y1055000D01*
X1387000Y1034000D02*
X1394563D01*
X1490500Y1011000D02*
X1491500Y1010000D01*
X1448882Y1021339D02*
X1449000Y1021457D01*
X1448882Y1011000D02*
Y1021339D01*
X1435437Y1039000D02*
X1445882D01*
X1299500Y1015543D02*
Y1021500D01*
X1424449Y1017000D02*
X1432000D01*
X1424449Y1022000D02*
X1431000D01*
X1431937Y1021063D01*
X1438894Y1021457D02*
X1449000D01*
X1438894Y1028543D02*
X1449000D01*
X1429000Y1027000D02*
X1430937Y1028937D01*
X1406500Y1035882D02*
X1407819Y1034563D01*
X1395500Y1027000D02*
Y1027063D01*
Y1020043D02*
Y1027000D01*
X1281500Y1025500D02*
Y1026000D01*
X1424449Y1027000D02*
X1427563D01*
X1429000D01*
X1281500Y1025500D02*
X1289087D01*
X1292087Y1028500D02*
X1300543D01*
X1380500Y1027000D02*
X1395500D01*
X1405551D01*
X1442563Y993063D02*
X1448500D01*
X1431937Y1021063D02*
X1438500D01*
X1438894Y1021457D01*
X1427563Y1027000D02*
Y1039000D01*
X1430937Y1028937D02*
X1438500D01*
X1438894Y1028543D01*
X1394563Y1034000D02*
X1395500Y1034937D01*
X1407819Y1034563D02*
X1416000D01*
D27*
X1281500Y1026000D02*
Y1065500D01*
X1296409D01*
X1267917D02*
X1281500D01*
X1296409D02*
X1296500Y1065591D01*
X1245083Y1065500D02*
X1267917D01*
D32*
X1322642Y1109779D02*
D03*
X1340358D02*
D03*
X1322642Y1082220D02*
D03*
X1340358D02*
D03*
D33*
X1280126Y898996D02*
D03*
D34*
X1268315Y917500D02*
D03*
X1291937D02*
D03*
D35*
X1491500Y1010000D02*
D03*
X1492000Y1034500D02*
D03*
Y1044500D02*
D03*
Y1054500D02*
D03*
Y1064500D02*
D03*
D36*
X1428500Y907000D02*
D03*
D37*
X1418500D02*
D03*
D38*
X1276000Y1132000D02*
D03*
X1286000Y1142000D02*
D03*
X1266000D02*
D03*
X1286000Y1122000D02*
D03*
X1266000D02*
D03*
D39*
X1237500Y1131500D02*
D03*
X1344000Y907500D02*
D03*
X1485000D02*
D03*
D40*
X1420419Y1136711D02*
D03*
X1416089D02*
D03*
X1411758D02*
D03*
X1401500Y1124000D02*
D03*
X1390500Y1125500D02*
D03*
X1391436Y1136892D02*
D03*
X1387106D02*
D03*
X1382775D02*
D03*
X1381000Y1125500D02*
D03*
X1462145Y1140462D02*
D03*
X1457814D02*
D03*
X1453483D02*
D03*
X1449153D02*
D03*
X1444823Y1140396D02*
D03*
X1440740Y1138952D02*
D03*
X1441735Y1124454D02*
D03*
X1450299Y1123538D02*
D03*
X1454629D02*
D03*
X1458960D02*
D03*
X1463291D02*
D03*
X1466038Y1120190D02*
D03*
Y1115859D02*
D03*
Y1111529D02*
D03*
Y1107198D02*
D03*
Y1102867D02*
D03*
Y1098537D02*
D03*
Y1094206D02*
D03*
Y1089875D02*
D03*
X1466285Y1085552D02*
D03*
X1471646Y1075528D02*
D03*
X1474731Y1078568D02*
D03*
X1478741Y1080204D02*
D03*
X1481801Y1083268D02*
D03*
X1482955Y1087442D02*
D03*
X1482962Y1091773D02*
D03*
Y1096103D02*
D03*
Y1100434D02*
D03*
Y1104765D02*
D03*
Y1109096D02*
D03*
Y1113426D02*
D03*
Y1117757D02*
D03*
Y1122088D02*
D03*
X1482724Y1126412D02*
D03*
X1480696Y1130238D02*
D03*
X1477650Y1133317D02*
D03*
X1474588Y1136379D02*
D03*
X1471337Y1139240D02*
D03*
X1467176Y1140439D02*
D03*
X1348697Y1140962D02*
D03*
X1344366D02*
D03*
X1340036D02*
D03*
X1335705D02*
D03*
X1331374D02*
D03*
X1327044D02*
D03*
X1322713D02*
D03*
X1318382D02*
D03*
X1314052D02*
D03*
X1309721D02*
D03*
X1305390D02*
D03*
X1301059D02*
D03*
X1296729D02*
D03*
X1294434Y1124038D02*
D03*
X1298765D02*
D03*
X1303095D02*
D03*
X1307426D02*
D03*
X1311757D02*
D03*
X1316087D02*
D03*
X1320418D02*
D03*
X1324749D02*
D03*
X1329080D02*
D03*
X1333410D02*
D03*
X1337741D02*
D03*
X1342072D02*
D03*
X1346402D02*
D03*
X1350733D02*
D03*
X1359237Y1125202D02*
D03*
X1359337Y1139740D02*
D03*
X1355176Y1140939D02*
D03*
X1224410Y1157481D02*
D03*
X1228347D02*
D03*
X1232284D02*
D03*
X1236221D02*
D03*
X1240158D02*
D03*
X1244095D02*
D03*
X1248032D02*
D03*
X1251969D02*
D03*
X1255906D02*
D03*
X1259843D02*
D03*
X1263780D02*
D03*
X1267717D02*
D03*
X1271654D02*
D03*
X1275591D02*
D03*
X1279528D02*
D03*
X1283465D02*
D03*
X1287402D02*
D03*
X1291339D02*
D03*
X1295276D02*
D03*
X1299213D02*
D03*
X1303150D02*
D03*
X1307087D02*
D03*
X1311024D02*
D03*
X1314961D02*
D03*
X1318898D02*
D03*
X1322835D02*
D03*
X1326772D02*
D03*
X1330709D02*
D03*
X1334646D02*
D03*
X1338583D02*
D03*
X1342520D02*
D03*
X1346457D02*
D03*
X1350394D02*
D03*
X1354331D02*
D03*
X1358268D02*
D03*
X1362206D02*
D03*
X1366142D02*
D03*
X1370080D02*
D03*
X1374016D02*
D03*
X1377954D02*
D03*
X1381890D02*
D03*
X1385828D02*
D03*
X1389764D02*
D03*
X1393701D02*
D03*
X1397639D02*
D03*
X1401576D02*
D03*
X1405513D02*
D03*
X1409450D02*
D03*
X1413387D02*
D03*
X1417324D02*
D03*
X1421261D02*
D03*
X1425198D02*
D03*
X1429135D02*
D03*
X1433072D02*
D03*
X1437009D02*
D03*
X1440946D02*
D03*
X1444883D02*
D03*
X1448820D02*
D03*
X1452757D02*
D03*
X1456694D02*
D03*
X1460631D02*
D03*
X1464568D02*
D03*
X1468505D02*
D03*
X1472442D02*
D03*
X1476379D02*
D03*
X1480316D02*
D03*
X1484253D02*
D03*
X1488190D02*
D03*
X1492127D02*
D03*
X1496064D02*
D03*
X1500001D02*
D03*
X1503938D02*
D03*
D41*
X1445882Y1039000D02*
D03*
X1456118D02*
D03*
X1459118Y1011000D02*
D03*
X1448882D02*
D03*
D42*
X1406500Y1035882D02*
D03*
Y1046118D02*
D03*
D43*
X1245583Y967945D02*
D03*
Y977000D02*
D03*
Y986055D02*
D03*
Y1011945D02*
D03*
Y1021000D02*
D03*
Y1030055D02*
D03*
X1245083Y1056445D02*
D03*
Y1065500D02*
D03*
Y1074555D02*
D03*
D44*
X1268417Y977000D02*
D03*
Y1021000D02*
D03*
X1267917Y1065500D02*
D03*
D45*
X1300543Y1028500D02*
X1380500D01*
M02*
