M48
;Layer_Color=9474304
;FILE_FORMAT=2:5
INCH,LZ
;TYPE=PLATED
T1F00S00C0.01181
T2F00S00C0.02800
T3F00S00C0.03543
T4F00S00C0.03800
T5F00S00C0.05950
T6F00S00C0.06496
T7F00S00C0.11811
%
T01
X1471646Y1075528
X1474731Y1078568
X1478741Y1080204
X1481801Y1083268
X1482955Y1087442
X1482962Y1091773
X1466038Y1089875
X1466285Y1085552
X1466038Y1094206
Y1098537
Y1102867
Y1107198
Y1111529
Y1115859
Y112019
X1463291Y1123538
X145896
X1454629
X1450299
X1441735Y1124454
X144074Y1138952
X1444823Y1140396
X1449153Y1140462
X1453483
X1457814
X1462145
X1467176Y1140439
X1471337Y113924
X1474588Y1136379
X147765Y1133317
X1480696Y1130238
X1482724Y1126412
X1482962Y1122088
Y1117757
Y1113426
Y1109096
Y1104765
Y1100434
Y1096103
X1484253Y1157481
X1480316
X1476379
X1472442
X1468505
X1464568
X1460631
X1456694
X1452757
X144882
X1444883
X1440946
X1437009
X1433072
X1429135
X1425198
X1421261
X1417324
X1413387
X140945
X1411758Y1136711
X1416089
X1420419
X148819Y1157481
X1492127
X1496064
X1500001
X1503938
X1405513
X1401576
X1397639
X1393701
X1389764
X1385828
X138189
X1377954
X1374016
X137008
X1366142
X1362206
X1358268
X1354331
X1350394
X1346457
X134252
X1338583
X1334646
X1330709
X1326772
X1322835
X1318898
X1314961
X1311024
X1307087
X130315
X1299213
X1295276
X1291339
X1287402
X1283465
X1279528
X1275591
X1271654
X1267717
X126378
X1259843
X1255906
X1251969
X1296729Y1140962
X1301059
X130539
X1309721
X1314052
X1318382
X1322713
X1327044
X1331374
X1335705
X1340036
X1344366
X1348697
X1355176Y1140939
X1359337Y113974
X1359237Y1125202
X1350733Y1124038
X1346402
X1342072
X1337741
X133341
X132908
X1324749
X1320418
X1316087
X1311757
X1307426
X1303095
X1298765
X1294434
X1381Y11255
X13905
X1391436Y1136892
X1387106
X1382775
X14015Y1124
X1248032Y1157481
X1244095
X1240158
X1236221
X1232284
X1228347
X122441
T02
X12455Y0993
X1245Y10385
Y10805
X1271Y1031
X12815Y1026
X12995Y10215
X1292Y09995
X12855Y0995
X12815Y0972
X1387Y1034
X1474Y10385
X14375Y099
X14405Y0974
X14465Y1118
X14165Y1121
X13855
X1355Y1118
T03
X14915Y1
Y101
X1492Y10345
Y10445
Y10545
Y10645
Y10745
T04
X14185Y0907
X14285
X1340358Y108222
X1322642
Y1109779
X1340358
T05
X1280126Y0898996
X1291937Y09175
X1268315
T06
X1266Y1122
X1276Y1132
X1286Y1142
X1266
X1286Y1122
T07
X1485Y09075
X1344
X12375Y11315
M30
