G04 Layer_Physical_Order=3*
G04 Layer_Color=128*
%FSLAX25Y25*%
%MOIN*%
G70*
G01*
G75*
%ADD35C,0.01000*%
%ADD58C,0.04000*%
%ADD59C,0.07150*%
%ADD60C,0.11874*%
%ADD61C,0.07937*%
%ADD62C,0.07543*%
%ADD63C,0.07800*%
%ADD64C,0.09200*%
%ADD65O,0.09906X0.07150*%
%ADD66C,0.15811*%
%ADD67C,0.05181*%
G36*
X118366Y292233D02*
X118939Y291996D01*
X119455Y291651D01*
X119894Y291213D01*
X120238Y290697D01*
X120476Y290123D01*
X120597Y289515D01*
Y289205D01*
Y264795D01*
Y264485D01*
X120476Y263877D01*
X120238Y263303D01*
X119894Y262788D01*
X119455Y262349D01*
X118939Y262004D01*
X118366Y261767D01*
X117757Y261646D01*
X102500D01*
Y292354D01*
X117757D01*
X118366Y292233D01*
D02*
G37*
D35*
X121000Y294000D02*
X126000Y299000D01*
Y304000D01*
X115279D02*
X126000D01*
X115000Y322000D02*
X138000D01*
X150500D01*
Y248500D02*
Y322000D01*
X121000Y248500D02*
X150500D01*
X121000D02*
Y294000D01*
X115000Y304279D02*
X115279Y304000D01*
X115000Y304279D02*
Y322000D01*
X189200Y338300D02*
X200100D01*
X216300Y354500D01*
Y366700D01*
X219700Y370100D01*
X247500D01*
X253000Y364600D01*
X307900D01*
X316200Y356300D01*
X340100D01*
X345000Y361200D01*
X357600D01*
X369700D01*
X372900Y358000D01*
Y355900D02*
Y358000D01*
X369500Y352500D02*
X372900Y355900D01*
X344800Y352500D02*
X369500D01*
X252200D02*
X344800D01*
X230200Y330500D02*
X252200Y352500D01*
X188700Y330500D02*
X230200D01*
X188700D02*
X188729Y330529D01*
Y338105D01*
D58*
X100000Y206000D02*
X450500D01*
X100000D02*
Y369000D01*
X107500D01*
Y384500D01*
Y399500D01*
X100000D02*
X107500D01*
X100000D02*
Y442000D01*
X450500D01*
Y206000D02*
Y442000D01*
X102500Y292354D02*
X117757D01*
X102500Y261646D02*
Y292354D01*
Y261646D02*
X117757D01*
X118366Y261767D01*
X118939Y262004D01*
X119455Y262349D01*
X119894Y262788D01*
X120238Y263303D01*
X120476Y263877D01*
X120597Y264485D01*
Y264795D01*
Y289205D01*
Y289515D01*
X120476Y290123D02*
X120597Y289515D01*
X120238Y290697D02*
X120476Y290123D01*
X119894Y291213D02*
X120238Y290697D01*
X119455Y291651D02*
X119894Y291213D01*
X118939Y291996D02*
X119455Y291651D01*
X118366Y292233D02*
X118939Y291996D01*
X117757Y292354D02*
X118366Y292233D01*
D59*
X351000Y371706D02*
D03*
Y352494D02*
D03*
X152000Y427500D02*
D03*
X172000D02*
D03*
X162000D02*
D03*
D60*
X223000Y409500D02*
D03*
X222972Y354500D02*
D03*
D61*
X252500Y392000D02*
D03*
Y372000D02*
D03*
Y382059D02*
D03*
X183000Y213500D02*
D03*
Y223500D02*
D03*
X112500Y324500D02*
D03*
Y334500D02*
D03*
X157500Y213500D02*
D03*
Y223500D02*
D03*
D62*
X439000Y288900D02*
D03*
Y298900D02*
D03*
Y318900D02*
D03*
Y328900D02*
D03*
Y338900D02*
D03*
Y348900D02*
D03*
Y358900D02*
D03*
X439500Y395000D02*
D03*
Y385000D02*
D03*
Y375000D02*
D03*
X266500Y217500D02*
D03*
X256500D02*
D03*
X318500Y360500D02*
D03*
Y350500D02*
D03*
X328500Y360500D02*
D03*
Y350500D02*
D03*
X334500Y431500D02*
D03*
X344500D02*
D03*
X354500D02*
D03*
X364500D02*
D03*
X384500D02*
D03*
X374500D02*
D03*
D63*
X401158Y269620D02*
D03*
X383442D02*
D03*
X401158Y297180D02*
D03*
X383442D02*
D03*
X262720Y339142D02*
D03*
Y356858D02*
D03*
X290280Y339142D02*
D03*
Y356858D02*
D03*
X440000Y248000D02*
D03*
Y258000D02*
D03*
D64*
X117000Y376500D02*
D03*
Y391500D02*
D03*
D65*
X123366Y297079D02*
D03*
Y256921D02*
D03*
X108799D02*
D03*
Y297079D02*
D03*
D66*
X424500Y229500D02*
D03*
X124000D02*
D03*
X424500Y418500D02*
D03*
X124000D02*
D03*
D67*
X165500Y404500D02*
D03*
X168500D02*
D03*
X171500D02*
D03*
X171000Y408000D02*
D03*
X174500D02*
D03*
Y404500D02*
D03*
X162000Y386500D02*
D03*
X184600Y392800D02*
D03*
X184700Y388600D02*
D03*
X180400Y388400D02*
D03*
X157760Y415340D02*
D03*
X164700Y339000D02*
D03*
X159800Y328300D02*
D03*
X170300Y312500D02*
D03*
Y309000D02*
D03*
X151600Y359500D02*
D03*
X142100Y230500D02*
D03*
X150200Y332600D02*
D03*
X151800Y334500D02*
D03*
X343957Y371057D02*
D03*
Y352643D02*
D03*
X376200Y364000D02*
D03*
X386800Y368800D02*
D03*
X382000Y386900D02*
D03*
X386700Y386500D02*
D03*
X387000Y356100D02*
D03*
X378900Y384900D02*
D03*
X360900Y360700D02*
D03*
X159000Y282500D02*
D03*
X158600Y273400D02*
D03*
X410900Y365600D02*
D03*
X409400Y367900D02*
D03*
X219600Y229000D02*
D03*
X220200Y333900D02*
D03*
X255300Y310400D02*
D03*
X358400Y293300D02*
D03*
Y289100D02*
D03*
X358100Y275100D02*
D03*
X358000Y270800D02*
D03*
X233600Y308300D02*
D03*
X239100Y306900D02*
D03*
X239500Y296200D02*
D03*
X272000Y265300D02*
D03*
X260200Y258900D02*
D03*
X296400Y248700D02*
D03*
X331900Y291300D02*
D03*
X320700Y291400D02*
D03*
X382700Y339800D02*
D03*
X386400Y340200D02*
D03*
X307900Y332100D02*
D03*
X129800Y286400D02*
D03*
X129300Y289600D02*
D03*
X124800Y290300D02*
D03*
X129600Y267900D02*
D03*
X129200Y264300D02*
D03*
X124900Y263100D02*
D03*
X375200Y372100D02*
D03*
X393300Y339600D02*
D03*
X382500Y362300D02*
D03*
X394500Y365200D02*
D03*
X279200Y288700D02*
D03*
X301500Y220100D02*
D03*
Y214100D02*
D03*
Y208000D02*
D03*
X349300Y220200D02*
D03*
X349200Y213600D02*
D03*
X349100Y207700D02*
D03*
M02*
