G04 Layer_Physical_Order=1*
G04 Layer_Color=255*
%FSLAX25Y25*%
%MOIN*%
G70*
G01*
G75*
%ADD10O,0.01181X0.07087*%
%ADD11O,0.07087X0.01181*%
%ADD12R,0.05906X0.05118*%
%ADD13R,0.05118X0.05906*%
G04:AMPARAMS|DCode=14|XSize=59.06mil|YSize=47.24mil|CornerRadius=4.72mil|HoleSize=0mil|Usage=FLASHONLY|Rotation=0.000|XOffset=0mil|YOffset=0mil|HoleType=Round|Shape=RoundedRectangle|*
%AMROUNDEDRECTD14*
21,1,0.05906,0.03780,0,0,0.0*
21,1,0.04961,0.04724,0,0,0.0*
1,1,0.00945,0.02480,-0.01890*
1,1,0.00945,-0.02480,-0.01890*
1,1,0.00945,-0.02480,0.01890*
1,1,0.00945,0.02480,0.01890*
%
%ADD14ROUNDEDRECTD14*%
G04:AMPARAMS|DCode=15|XSize=59.06mil|YSize=13.78mil|CornerRadius=1.38mil|HoleSize=0mil|Usage=FLASHONLY|Rotation=0.000|XOffset=0mil|YOffset=0mil|HoleType=Round|Shape=RoundedRectangle|*
%AMROUNDEDRECTD15*
21,1,0.05906,0.01102,0,0,0.0*
21,1,0.05630,0.01378,0,0,0.0*
1,1,0.00276,0.02815,-0.00551*
1,1,0.00276,-0.02815,-0.00551*
1,1,0.00276,-0.02815,0.00551*
1,1,0.00276,0.02815,0.00551*
%
%ADD15ROUNDEDRECTD15*%
%ADD16C,0.05000*%
%ADD17O,0.13000X0.08000*%
G04:AMPARAMS|DCode=18|XSize=130mil|YSize=80mil|CornerRadius=10mil|HoleSize=0mil|Usage=FLASHONLY|Rotation=0.000|XOffset=0mil|YOffset=0mil|HoleType=Round|Shape=RoundedRectangle|*
%AMROUNDEDRECTD18*
21,1,0.13000,0.06000,0,0,0.0*
21,1,0.11000,0.08000,0,0,0.0*
1,1,0.02000,0.05500,-0.03000*
1,1,0.02000,-0.05500,-0.03000*
1,1,0.02000,-0.05500,0.03000*
1,1,0.02000,0.05500,0.03000*
%
%ADD18ROUNDEDRECTD18*%
%ADD19R,0.05512X0.19685*%
%ADD20R,0.03937X0.19685*%
%ADD21R,0.02500X0.02500*%
G04:AMPARAMS|DCode=22|XSize=23.62mil|YSize=39.37mil|CornerRadius=2.95mil|HoleSize=0mil|Usage=FLASHONLY|Rotation=0.000|XOffset=0mil|YOffset=0mil|HoleType=Round|Shape=RoundedRectangle|*
%AMROUNDEDRECTD22*
21,1,0.02362,0.03347,0,0,0.0*
21,1,0.01772,0.03937,0,0,0.0*
1,1,0.00591,0.00886,-0.01673*
1,1,0.00591,-0.00886,-0.01673*
1,1,0.00591,-0.00886,0.01673*
1,1,0.00591,0.00886,0.01673*
%
%ADD22ROUNDEDRECTD22*%
G04:AMPARAMS|DCode=23|XSize=70.87mil|YSize=47.24mil|CornerRadius=5.91mil|HoleSize=0mil|Usage=FLASHONLY|Rotation=90.000|XOffset=0mil|YOffset=0mil|HoleType=Round|Shape=RoundedRectangle|*
%AMROUNDEDRECTD23*
21,1,0.07087,0.03543,0,0,90.0*
21,1,0.05906,0.04724,0,0,90.0*
1,1,0.01181,0.01772,0.02953*
1,1,0.01181,0.01772,-0.02953*
1,1,0.01181,-0.01772,-0.02953*
1,1,0.01181,-0.01772,0.02953*
%
%ADD23ROUNDEDRECTD23*%
G04:AMPARAMS|DCode=24|XSize=70.87mil|YSize=47.24mil|CornerRadius=5.91mil|HoleSize=0mil|Usage=FLASHONLY|Rotation=0.000|XOffset=0mil|YOffset=0mil|HoleType=Round|Shape=RoundedRectangle|*
%AMROUNDEDRECTD24*
21,1,0.07087,0.03543,0,0,0.0*
21,1,0.05906,0.04724,0,0,0.0*
1,1,0.01181,0.02953,-0.01772*
1,1,0.01181,-0.02953,-0.01772*
1,1,0.01181,-0.02953,0.01772*
1,1,0.01181,0.02953,0.01772*
%
%ADD24ROUNDEDRECTD24*%
G04:AMPARAMS|DCode=25|XSize=51.18mil|YSize=31.5mil|CornerRadius=3.94mil|HoleSize=0mil|Usage=FLASHONLY|Rotation=270.000|XOffset=0mil|YOffset=0mil|HoleType=Round|Shape=RoundedRectangle|*
%AMROUNDEDRECTD25*
21,1,0.05118,0.02362,0,0,270.0*
21,1,0.04331,0.03150,0,0,270.0*
1,1,0.00787,-0.01181,-0.02165*
1,1,0.00787,-0.01181,0.02165*
1,1,0.00787,0.01181,0.02165*
1,1,0.00787,0.01181,-0.02165*
%
%ADD25ROUNDEDRECTD25*%
G04:AMPARAMS|DCode=26|XSize=51.18mil|YSize=31.5mil|CornerRadius=3.94mil|HoleSize=0mil|Usage=FLASHONLY|Rotation=0.000|XOffset=0mil|YOffset=0mil|HoleType=Round|Shape=RoundedRectangle|*
%AMROUNDEDRECTD26*
21,1,0.05118,0.02362,0,0,0.0*
21,1,0.04331,0.03150,0,0,0.0*
1,1,0.00787,0.02165,-0.01181*
1,1,0.00787,-0.02165,-0.01181*
1,1,0.00787,-0.02165,0.01181*
1,1,0.00787,0.02165,0.01181*
%
%ADD26ROUNDEDRECTD26*%
%ADD27R,0.02559X0.04331*%
G04:AMPARAMS|DCode=28|XSize=96.46mil|YSize=100.39mil|CornerRadius=9.65mil|HoleSize=0mil|Usage=FLASHONLY|Rotation=90.000|XOffset=0mil|YOffset=0mil|HoleType=Round|Shape=RoundedRectangle|*
%AMROUNDEDRECTD28*
21,1,0.09646,0.08110,0,0,90.0*
21,1,0.07717,0.10039,0,0,90.0*
1,1,0.01929,0.04055,0.03858*
1,1,0.01929,0.04055,-0.03858*
1,1,0.01929,-0.04055,-0.03858*
1,1,0.01929,-0.04055,0.03858*
%
%ADD28ROUNDEDRECTD28*%
%ADD29R,0.04724X0.05315*%
G04:AMPARAMS|DCode=30|XSize=70.87mil|YSize=51.18mil|CornerRadius=6.4mil|HoleSize=0mil|Usage=FLASHONLY|Rotation=0.000|XOffset=0mil|YOffset=0mil|HoleType=Round|Shape=RoundedRectangle|*
%AMROUNDEDRECTD30*
21,1,0.07087,0.03839,0,0,0.0*
21,1,0.05807,0.05118,0,0,0.0*
1,1,0.01280,0.02904,-0.01919*
1,1,0.01280,-0.02904,-0.01919*
1,1,0.01280,-0.02904,0.01919*
1,1,0.01280,0.02904,0.01919*
%
%ADD30ROUNDEDRECTD30*%
G04:AMPARAMS|DCode=31|XSize=55.12mil|YSize=39.37mil|CornerRadius=4.92mil|HoleSize=0mil|Usage=FLASHONLY|Rotation=90.000|XOffset=0mil|YOffset=0mil|HoleType=Round|Shape=RoundedRectangle|*
%AMROUNDEDRECTD31*
21,1,0.05512,0.02953,0,0,90.0*
21,1,0.04528,0.03937,0,0,90.0*
1,1,0.00984,0.01476,0.02264*
1,1,0.00984,0.01476,-0.02264*
1,1,0.00984,-0.01476,-0.02264*
1,1,0.00984,-0.01476,0.02264*
%
%ADD31ROUNDEDRECTD31*%
%ADD32R,0.07480X0.13780*%
%ADD33R,0.13780X0.07480*%
%ADD34C,0.01200*%
%ADD35C,0.01000*%
%ADD36C,0.02953*%
%ADD37C,0.02500*%
%ADD38R,0.18110X0.26378*%
%ADD39R,0.18110X0.35039*%
%ADD40R,0.09300X0.11100*%
%ADD41R,0.09500X0.07900*%
%ADD42P,0.05966X8X292.5*%
%ADD43C,0.05512*%
%ADD44C,0.11024*%
%ADD45C,0.06299*%
%ADD46R,0.05906X0.05906*%
%ADD47C,0.05906*%
%ADD48P,0.08949X8X112.5*%
%ADD49P,0.08949X8X22.5*%
%ADD50R,0.05906X0.05906*%
G04:AMPARAMS|DCode=51|XSize=100mil|YSize=100mil|CornerRadius=12.5mil|HoleSize=0mil|Usage=FLASHONLY|Rotation=0.000|XOffset=0mil|YOffset=0mil|HoleType=Round|Shape=RoundedRectangle|*
%AMROUNDEDRECTD51*
21,1,0.10000,0.07500,0,0,0.0*
21,1,0.07500,0.10000,0,0,0.0*
1,1,0.02500,0.03750,-0.03750*
1,1,0.02500,-0.03750,-0.03750*
1,1,0.02500,-0.03750,0.03750*
1,1,0.02500,0.03750,0.03750*
%
%ADD51ROUNDEDRECTD51*%
%ADD52C,0.10000*%
G04:AMPARAMS|DCode=53|XSize=94.49mil|YSize=62.99mil|CornerRadius=15.75mil|HoleSize=0mil|Usage=FLASHONLY|Rotation=0.000|XOffset=0mil|YOffset=0mil|HoleType=Round|Shape=RoundedRectangle|*
%AMROUNDEDRECTD53*
21,1,0.09449,0.03150,0,0,0.0*
21,1,0.06299,0.06299,0,0,0.0*
1,1,0.03150,0.03150,-0.01575*
1,1,0.03150,-0.03150,-0.01575*
1,1,0.03150,-0.03150,0.01575*
1,1,0.03150,0.03150,0.01575*
%
%ADD53ROUNDEDRECTD53*%
%ADD54C,0.06000*%
G04:AMPARAMS|DCode=55|XSize=60mil|YSize=60mil|CornerRadius=7.5mil|HoleSize=0mil|Usage=FLASHONLY|Rotation=0.000|XOffset=0mil|YOffset=0mil|HoleType=Round|Shape=RoundedRectangle|*
%AMROUNDEDRECTD55*
21,1,0.06000,0.04500,0,0,0.0*
21,1,0.04500,0.06000,0,0,0.0*
1,1,0.01500,0.02250,-0.02250*
1,1,0.01500,-0.02250,-0.02250*
1,1,0.01500,-0.02250,0.02250*
1,1,0.01500,0.02250,0.02250*
%
%ADD55ROUNDEDRECTD55*%
%ADD56C,0.01969*%
%ADD57C,0.15748*%
G36*
X450600Y205900D02*
X451100Y205400D01*
X450300Y204600D01*
X339600D01*
Y223400D01*
Y250216D01*
X353375D01*
Y259296D01*
X337995D01*
Y251200D01*
X311500D01*
Y249458D01*
X303448D01*
Y234078D01*
X311500D01*
Y204224D01*
X311200Y204100D01*
X99300D01*
X99200Y369093D01*
X99907Y369800D01*
X107500D01*
Y399500D01*
X99300D01*
X99202Y441292D01*
X99908Y442000D01*
X450600D01*
Y205900D01*
D02*
G37*
%LPC*%
G36*
X398253Y435253D02*
X390747D01*
Y427747D01*
X398253D01*
Y435253D01*
D02*
G37*
G36*
X135000Y433316D02*
X134688Y433254D01*
X134423Y433077D01*
X134246Y432812D01*
X134184Y432500D01*
Y410500D01*
X134184Y410500D01*
X134246Y410188D01*
X134362Y410015D01*
X125423Y401077D01*
X125246Y400812D01*
X125184Y400500D01*
X125184Y400500D01*
Y382816D01*
X112500D01*
X112500Y382816D01*
X112188Y382754D01*
X111923Y382577D01*
X111923Y382577D01*
X111423Y382077D01*
X111246Y381812D01*
X111184Y381500D01*
X111184Y381500D01*
Y380373D01*
X111160Y380250D01*
Y372750D01*
X111184Y372627D01*
Y364000D01*
X111246Y363688D01*
X111423Y363423D01*
X111688Y363246D01*
X112000Y363184D01*
X123662D01*
X123923Y362923D01*
X123923Y362923D01*
X124684Y362162D01*
Y336500D01*
X124746Y336188D01*
X124923Y335923D01*
X125188Y335746D01*
X125500Y335684D01*
X143939D01*
Y328224D01*
X144115Y327336D01*
X144180Y327239D01*
Y325259D01*
X148339D01*
Y327239D01*
X148404Y327336D01*
X148581Y328224D01*
Y335684D01*
X150000D01*
X150312Y335746D01*
X150577Y335923D01*
X150754Y336188D01*
X150816Y336500D01*
Y344000D01*
X150754Y344312D01*
X150577Y344577D01*
X150577Y344577D01*
X148077Y347077D01*
X148077Y347077D01*
X141816Y353338D01*
Y357970D01*
X142785Y358138D01*
X143117Y357336D01*
X143646Y356646D01*
X144336Y356118D01*
X145139Y355785D01*
X146000Y355672D01*
X146184Y355510D01*
Y354600D01*
X146184Y354600D01*
X146246Y354288D01*
X146423Y354023D01*
X146423Y354023D01*
X147023Y353423D01*
X147288Y353246D01*
X147600Y353184D01*
X147600Y353184D01*
X178800D01*
X178800Y353184D01*
X179112Y353246D01*
X179377Y353423D01*
X180484Y354531D01*
X181484Y354117D01*
Y351816D01*
X170800D01*
X170488Y351754D01*
X170223Y351577D01*
X170046Y351312D01*
X169984Y351000D01*
Y344300D01*
X170046Y343988D01*
X170223Y343723D01*
X170488Y343546D01*
X170800Y343484D01*
X197400D01*
X197712Y343546D01*
X197977Y343723D01*
X198154Y343988D01*
X198216Y344300D01*
Y361100D01*
X198201Y361172D01*
X198203Y361244D01*
X198171Y361326D01*
X198154Y361412D01*
X198113Y361473D01*
X198086Y361541D01*
X198026Y361604D01*
X197977Y361677D01*
X197916Y361717D01*
X197865Y361770D01*
X197785Y361805D01*
X197712Y361854D01*
X197641Y361868D01*
X197574Y361897D01*
X196657Y362097D01*
X196569Y362099D01*
X196483Y362116D01*
X182300D01*
X181988Y362054D01*
X181916Y362005D01*
X181222Y362231D01*
X180916Y362448D01*
Y381300D01*
X180854Y381612D01*
X180677Y381877D01*
X180412Y382054D01*
X180100Y382116D01*
X170041D01*
X169656Y382470D01*
X169345Y382852D01*
X169316Y382913D01*
Y385000D01*
X169254Y385312D01*
X169077Y385577D01*
X168812Y385754D01*
X168500Y385816D01*
X167816D01*
Y392500D01*
X167754Y392812D01*
X167577Y393077D01*
X167312Y393254D01*
X167000Y393316D01*
X164500D01*
X164188Y393254D01*
X163923Y393077D01*
X163746Y392812D01*
X163684Y392500D01*
X163684Y384016D01*
X161500D01*
X161188Y383954D01*
X160923Y383777D01*
X160746Y383512D01*
X160684Y383200D01*
Y365000D01*
X160746Y364688D01*
X160923Y364423D01*
X161188Y364246D01*
X161500Y364184D01*
X168000D01*
X168000Y364184D01*
X168184Y364221D01*
X168512Y364114D01*
X169184Y363670D01*
Y362716D01*
X156316D01*
Y365000D01*
Y383200D01*
X156254Y383512D01*
X156077Y383777D01*
X156077Y383777D01*
X153816Y386038D01*
Y394500D01*
X153816Y394500D01*
X153754Y394812D01*
X153753Y394813D01*
X153753Y396481D01*
X153753Y396719D01*
Y398515D01*
X156411D01*
X156584Y398255D01*
X156947Y398013D01*
X157374Y397928D01*
X159146D01*
X159573Y398013D01*
X159935Y398255D01*
X160177Y398618D01*
X160262Y399045D01*
Y402391D01*
X160177Y402819D01*
X159935Y403181D01*
X159573Y403423D01*
X159146Y403508D01*
X157374D01*
X156947Y403423D01*
X156584Y403181D01*
X156342Y402819D01*
X156257Y402391D01*
Y401166D01*
X153753D01*
Y403199D01*
X151326D01*
Y404501D01*
X153753D01*
Y411219D01*
X146247D01*
Y404501D01*
X148674D01*
Y403199D01*
X146247D01*
Y396719D01*
X146247Y396481D01*
Y395719D01*
X146247Y395313D01*
X146246Y395312D01*
X146184Y395000D01*
Y365000D01*
X146184Y365000D01*
X146184Y365000D01*
Y362490D01*
X146000Y362329D01*
X145139Y362215D01*
X144336Y361882D01*
X143646Y361354D01*
X143117Y360664D01*
X142785Y359861D01*
X141816Y360030D01*
Y376662D01*
X143577Y378423D01*
X143754Y378688D01*
X143816Y379000D01*
X143816Y379000D01*
Y419684D01*
X165562Y419684D01*
X165875Y419746D01*
X166139Y419923D01*
X166316Y420188D01*
X166378Y420500D01*
Y432000D01*
X166378Y432000D01*
X166316Y432312D01*
X166139Y432577D01*
X165639Y433077D01*
X165639Y433077D01*
X165375Y433254D01*
X165062Y433316D01*
X165062Y433316D01*
X135000Y433316D01*
D02*
G37*
G36*
X374500Y435285D02*
X373520Y435156D01*
X372607Y434778D01*
X371824Y434176D01*
X371222Y433393D01*
X370844Y432480D01*
X370715Y431500D01*
X370844Y430520D01*
X371222Y429607D01*
X371824Y428824D01*
X372607Y428222D01*
X373073Y428029D01*
Y416527D01*
X372149Y416144D01*
X365927Y422365D01*
Y428029D01*
X366393Y428222D01*
X367177Y428824D01*
X367778Y429607D01*
X368156Y430520D01*
X368285Y431500D01*
X368156Y432480D01*
X367778Y433393D01*
X367177Y434176D01*
X366393Y434778D01*
X365480Y435156D01*
X364500Y435285D01*
X363520Y435156D01*
X362607Y434778D01*
X361824Y434176D01*
X361222Y433393D01*
X360844Y432480D01*
X360715Y431500D01*
X360844Y430520D01*
X361222Y429607D01*
X361824Y428824D01*
X362607Y428222D01*
X363073Y428029D01*
Y423840D01*
X362149Y423457D01*
X357152Y428453D01*
X357176Y428824D01*
X357778Y429607D01*
X358156Y430520D01*
X358285Y431500D01*
X358156Y432480D01*
X357778Y433393D01*
X357176Y434176D01*
X356393Y434778D01*
X355480Y435156D01*
X354500Y435285D01*
X353520Y435156D01*
X352607Y434778D01*
X351823Y434176D01*
X351222Y433393D01*
X350844Y432480D01*
X350715Y431500D01*
X350743Y431290D01*
X349795Y430823D01*
X348159Y432460D01*
X348156Y432480D01*
X347778Y433393D01*
X347177Y434176D01*
X346393Y434778D01*
X345480Y435156D01*
X344500Y435285D01*
X343520Y435156D01*
X342607Y434778D01*
X341824Y434176D01*
X341222Y433393D01*
X340844Y432480D01*
X340715Y431500D01*
X340844Y430520D01*
X341222Y429607D01*
X341824Y428824D01*
X342607Y428222D01*
X343520Y427844D01*
X344500Y427715D01*
X345480Y427844D01*
X346393Y428222D01*
X347177Y428824D01*
X347722Y428859D01*
X387377Y389204D01*
X386885Y388282D01*
X386700Y388319D01*
X386004Y388181D01*
X385414Y387786D01*
X385066Y387267D01*
X384964Y387184D01*
X384708Y387129D01*
X383681Y387596D01*
X383286Y388186D01*
X382696Y388581D01*
X382000Y388719D01*
X381304Y388581D01*
X380714Y388186D01*
X380319Y387596D01*
X380267Y387335D01*
X379795Y386804D01*
X379209Y386658D01*
X378900Y386719D01*
X378204Y386581D01*
X377614Y386186D01*
X377219Y385596D01*
X377081Y384900D01*
X377219Y384204D01*
X377614Y383614D01*
X377892Y383428D01*
X377939Y383270D01*
X377870Y383070D01*
X377204Y382235D01*
X377068Y382207D01*
X376608Y381900D01*
X376300Y381440D01*
X376192Y380898D01*
Y374992D01*
X376300Y374450D01*
X376608Y373990D01*
X377068Y373682D01*
X377610Y373574D01*
X378153Y373682D01*
X378594Y373977D01*
X379036Y373682D01*
X379579Y373574D01*
X380121Y373682D01*
X380563Y373977D01*
X381005Y373682D01*
X381547Y373574D01*
X382090Y373682D01*
X382531Y373977D01*
X382973Y373682D01*
X383516Y373574D01*
X384058Y373682D01*
X384500Y373977D01*
X384942Y373682D01*
X385484Y373574D01*
X386027Y373682D01*
X386469Y373977D01*
X386910Y373682D01*
X387453Y373574D01*
X387995Y373682D01*
X388437Y373977D01*
X388879Y373682D01*
X389421Y373574D01*
X389964Y373682D01*
X390406Y373977D01*
X390847Y373682D01*
X391390Y373574D01*
X391932Y373682D01*
X392374Y373977D01*
X392816Y373682D01*
X393358Y373574D01*
X393901Y373682D01*
X394342Y373977D01*
X394784Y373682D01*
X395222Y373595D01*
X395286Y373580D01*
X395694Y373194D01*
X396080Y372786D01*
X396095Y372722D01*
X396182Y372284D01*
X396490Y371824D01*
X396950Y371517D01*
X397492Y371409D01*
X400396D01*
X400445Y371399D01*
X400493Y371409D01*
X403398D01*
X403940Y371517D01*
X404400Y371824D01*
X404707Y372284D01*
X404815Y372827D01*
X404707Y373369D01*
X404400Y373829D01*
X403940Y374137D01*
X403398Y374245D01*
X402223D01*
X401874Y375245D01*
X401981Y375404D01*
X402119Y376100D01*
X401981Y376796D01*
X401586Y377386D01*
X400996Y377781D01*
X400300Y377919D01*
X399604Y377781D01*
X399014Y377386D01*
X398619Y376796D01*
X398481Y376100D01*
X398619Y375404D01*
X398149Y374518D01*
X397447Y374330D01*
X397361Y374375D01*
X396875Y374861D01*
X396745Y375111D01*
Y377896D01*
X396754Y377945D01*
Y393634D01*
X396754Y393634D01*
X396645Y394180D01*
X396336Y394644D01*
X375927Y415052D01*
Y428029D01*
X376393Y428222D01*
X377176Y428824D01*
X377778Y429607D01*
X378156Y430520D01*
X378285Y431500D01*
X378156Y432480D01*
X377778Y433393D01*
X377176Y434176D01*
X376393Y434778D01*
X375480Y435156D01*
X374500Y435285D01*
D02*
G37*
G36*
X252500Y395984D02*
X251469Y395848D01*
X250508Y395450D01*
X249683Y394817D01*
X249050Y393992D01*
X248652Y393031D01*
X248516Y392000D01*
X248652Y390969D01*
X249050Y390008D01*
X249683Y389183D01*
X250508Y388550D01*
X251469Y388152D01*
X252500Y388016D01*
X253531Y388152D01*
X254492Y388550D01*
X255317Y389183D01*
X255950Y390008D01*
X256184Y390573D01*
X261401D01*
Y387747D01*
X267881D01*
X268119Y387747D01*
X268881D01*
X269119Y387747D01*
X270210D01*
Y385900D01*
X270369Y385100D01*
X270822Y384422D01*
X271500Y383969D01*
X272300Y383810D01*
X273100Y383969D01*
X273778Y384422D01*
X274231Y385100D01*
X274390Y385900D01*
Y387747D01*
X275599D01*
Y395253D01*
X269119D01*
X268881Y395253D01*
X268119D01*
X267881Y395253D01*
X261401D01*
Y393427D01*
X256184D01*
X255950Y393992D01*
X255317Y394817D01*
X254492Y395450D01*
X253531Y395848D01*
X252500Y395984D01*
D02*
G37*
G36*
X384500Y435285D02*
X383520Y435156D01*
X382607Y434778D01*
X381823Y434176D01*
X381222Y433393D01*
X380844Y432480D01*
X380715Y431500D01*
X380844Y430520D01*
X381222Y429607D01*
X381823Y428824D01*
X382607Y428222D01*
X383073Y428029D01*
Y421200D01*
X383073Y421200D01*
X383181Y420654D01*
X383491Y420191D01*
X412473Y391209D01*
Y377891D01*
X404899Y370317D01*
X400445D01*
X400396Y370307D01*
X397492D01*
X396950Y370200D01*
X396490Y369892D01*
X396182Y369432D01*
X396074Y368890D01*
X396182Y368347D01*
X396477Y367905D01*
X396182Y367464D01*
X396074Y366921D01*
X396182Y366379D01*
X396477Y365937D01*
X396182Y365495D01*
X396074Y364953D01*
X396182Y364410D01*
X396477Y363968D01*
X396182Y363527D01*
X396074Y362984D01*
X396182Y362442D01*
X396477Y362000D01*
X396182Y361558D01*
X396074Y361016D01*
X396182Y360473D01*
X396477Y360032D01*
X396182Y359590D01*
X396074Y359047D01*
X396182Y358505D01*
X396477Y358063D01*
X396182Y357621D01*
X396074Y357079D01*
X396182Y356536D01*
X396477Y356095D01*
X396182Y355653D01*
X396074Y355110D01*
X396182Y354568D01*
X396477Y354126D01*
X396182Y353684D01*
X396074Y353142D01*
X396182Y352599D01*
X396477Y352157D01*
X396182Y351716D01*
X396095Y351278D01*
X396080Y351214D01*
X395694Y350806D01*
X395286Y350420D01*
X395222Y350405D01*
X394784Y350318D01*
X394324Y350010D01*
X394017Y349550D01*
X393909Y349008D01*
Y346104D01*
X393899Y346055D01*
X393909Y346007D01*
Y343102D01*
X394017Y342560D01*
X394324Y342100D01*
X394784Y341792D01*
X395327Y341685D01*
X395869Y341792D01*
X396329Y342100D01*
X396637Y342560D01*
X396745Y343102D01*
Y344327D01*
X397745Y344592D01*
X398004Y344419D01*
X398700Y344281D01*
X399396Y344419D01*
X399986Y344814D01*
X400381Y345404D01*
X400519Y346100D01*
X400381Y346796D01*
X399986Y347386D01*
X399396Y347781D01*
X398700Y347919D01*
X398004Y347781D01*
X397745Y347607D01*
X396745Y347873D01*
Y348889D01*
X396875Y349139D01*
X397361Y349625D01*
X397611Y349755D01*
X400396D01*
X400445Y349746D01*
X406178D01*
X408033Y347891D01*
X408034Y347891D01*
X408497Y347581D01*
X409043Y347473D01*
X435529D01*
X435722Y347007D01*
X436323Y346223D01*
X436334Y345888D01*
X436159Y345089D01*
X435891Y344909D01*
X432191Y341209D01*
X431881Y340746D01*
X431773Y340200D01*
X431773Y340200D01*
Y324700D01*
X431773Y324700D01*
X431881Y324154D01*
X432191Y323691D01*
X435536Y320345D01*
X435344Y319880D01*
X435215Y318900D01*
X435344Y317920D01*
X435722Y317007D01*
X436323Y316224D01*
X437107Y315622D01*
X438020Y315244D01*
X439000Y315115D01*
X439980Y315244D01*
X440893Y315622D01*
X441677Y316224D01*
X442278Y317007D01*
X442656Y317920D01*
X442785Y318900D01*
X442656Y319880D01*
X442278Y320793D01*
X441677Y321576D01*
X440893Y322178D01*
X439980Y322556D01*
X439000Y322685D01*
X438020Y322556D01*
X437555Y322363D01*
X434627Y325291D01*
Y327037D01*
X435627Y327236D01*
X435722Y327007D01*
X436323Y326223D01*
X437107Y325622D01*
X438020Y325244D01*
X439000Y325115D01*
X439980Y325244D01*
X440893Y325622D01*
X441677Y326223D01*
X442278Y327007D01*
X442471Y327473D01*
X445200D01*
X445200Y327473D01*
X445746Y327581D01*
X446209Y327891D01*
X448309Y329991D01*
X448309Y329991D01*
X448619Y330454D01*
X448727Y331000D01*
X448727Y331000D01*
Y363600D01*
X448727Y363600D01*
X448619Y364146D01*
X448309Y364609D01*
X448309Y364609D01*
X444209Y368709D01*
X443746Y369019D01*
X443200Y369127D01*
X443200Y369127D01*
X423347D01*
X422933Y370127D01*
X435402Y382597D01*
X436702Y382482D01*
X436824Y382324D01*
X437607Y381722D01*
X438520Y381344D01*
X439500Y381215D01*
X440480Y381344D01*
X441393Y381722D01*
X442176Y382324D01*
X442778Y383107D01*
X443156Y384020D01*
X443285Y385000D01*
X443156Y385980D01*
X442778Y386893D01*
X442176Y387677D01*
X441393Y388278D01*
X440480Y388656D01*
X440223Y388690D01*
X439864Y389746D01*
X440509Y390391D01*
X440819Y390854D01*
X440897Y391247D01*
X443253D01*
Y398753D01*
X435747D01*
Y391247D01*
X436022D01*
X436405Y390323D01*
X412898Y366816D01*
X412186Y366886D01*
X411596Y367281D01*
X411115Y367376D01*
X411219Y367900D01*
X411081Y368596D01*
X410686Y369186D01*
X410096Y369581D01*
X409694Y369661D01*
X409321Y370476D01*
X409300Y370681D01*
X414909Y376291D01*
X414909Y376291D01*
X415219Y376754D01*
X415327Y377300D01*
X415327Y377300D01*
Y391800D01*
X415327Y391800D01*
X415219Y392346D01*
X414909Y392809D01*
X414909Y392809D01*
X385927Y421791D01*
Y428029D01*
X386393Y428222D01*
X387176Y428824D01*
X387778Y429607D01*
X388156Y430520D01*
X388285Y431500D01*
X388156Y432480D01*
X387778Y433393D01*
X387176Y434176D01*
X386393Y434778D01*
X385480Y435156D01*
X384500Y435285D01*
D02*
G37*
G36*
X272300Y378990D02*
X271500Y378831D01*
X270822Y378378D01*
X270369Y377700D01*
X270210Y376900D01*
Y374753D01*
X269119D01*
X268881Y374753D01*
X268119D01*
X267881Y374753D01*
X261401D01*
Y373325D01*
X256226D01*
X255950Y373992D01*
X255317Y374817D01*
X254492Y375450D01*
X253531Y375848D01*
X252500Y375984D01*
X251469Y375848D01*
X250508Y375450D01*
X249683Y374817D01*
X249050Y373992D01*
X248652Y373031D01*
X248516Y372000D01*
X248652Y370969D01*
X249050Y370008D01*
X249683Y369183D01*
X250508Y368550D01*
X251469Y368152D01*
X252500Y368016D01*
X253531Y368152D01*
X254492Y368550D01*
X255317Y369183D01*
X255950Y370008D01*
X256226Y370674D01*
X261401D01*
Y367247D01*
X267881D01*
X268119Y367247D01*
X268881D01*
X269119Y367247D01*
X275599D01*
Y374753D01*
X274390D01*
Y376900D01*
X274231Y377700D01*
X273778Y378378D01*
X273100Y378831D01*
X272300Y378990D01*
D02*
G37*
G36*
X322253Y374253D02*
X314747D01*
Y366747D01*
X322253D01*
Y374253D01*
D02*
G37*
G36*
X328500Y374285D02*
X327520Y374156D01*
X326607Y373778D01*
X325823Y373177D01*
X325222Y372393D01*
X324844Y371480D01*
X324715Y370500D01*
X324844Y369520D01*
X325222Y368607D01*
X325823Y367824D01*
X326607Y367222D01*
X327520Y366844D01*
X328500Y366715D01*
X329480Y366844D01*
X330393Y367222D01*
X331176Y367824D01*
X331778Y368607D01*
X332156Y369520D01*
X332285Y370500D01*
X332156Y371480D01*
X331778Y372393D01*
X331176Y373177D01*
X330393Y373778D01*
X329480Y374156D01*
X328500Y374285D01*
D02*
G37*
G36*
X176000Y432816D02*
X168500Y432816D01*
X168188Y432754D01*
X167923Y432577D01*
X167746Y432312D01*
X167684Y432000D01*
Y408316D01*
X165000D01*
X164688Y408254D01*
X164188Y408046D01*
X163923Y407870D01*
X163857Y407770D01*
X163746Y407605D01*
X163684Y407293D01*
Y404518D01*
X163681Y404500D01*
X163684Y404482D01*
Y398000D01*
X163746Y397688D01*
X163773Y397648D01*
X162951Y396826D01*
X160000D01*
X159493Y396725D01*
X159063Y396437D01*
X157323Y394697D01*
X157035Y394267D01*
X156934Y393760D01*
Y393179D01*
X156584Y392945D01*
X156342Y392583D01*
X156257Y392155D01*
Y388809D01*
X156342Y388381D01*
X156584Y388019D01*
X156947Y387777D01*
X157374Y387692D01*
X159146D01*
X159573Y387777D01*
X159935Y388019D01*
X160177Y388381D01*
X160262Y388809D01*
Y392155D01*
X160177Y392583D01*
X159935Y392945D01*
X160287Y393913D01*
X160549Y394175D01*
X163500D01*
X164007Y394275D01*
X164437Y394563D01*
X166677Y396803D01*
X166932Y397184D01*
X168500D01*
X168500Y397184D01*
X176000Y397184D01*
X176312Y397246D01*
X176408Y397311D01*
X176835D01*
X177377Y397418D01*
X177837Y397726D01*
X178145Y398186D01*
X178252Y398728D01*
Y402272D01*
X178145Y402814D01*
X177837Y403274D01*
X177377Y403581D01*
X176835Y403689D01*
X176816D01*
Y426174D01*
X199400D01*
X199907Y426275D01*
X200337Y426563D01*
X203249Y429474D01*
X319251D01*
X331863Y416863D01*
X332293Y416575D01*
X332800Y416474D01*
X346751D01*
X367230Y395996D01*
Y374245D01*
X365602D01*
X365060Y374137D01*
X364600Y373829D01*
X364293Y373369D01*
X364185Y372827D01*
X364293Y372284D01*
X364588Y371843D01*
X364293Y371401D01*
X364185Y370858D01*
X364293Y370316D01*
X364588Y369874D01*
X364293Y369432D01*
X364185Y368890D01*
X364293Y368347D01*
X364588Y367905D01*
X364293Y367464D01*
X364185Y366921D01*
X363740Y366380D01*
X358345D01*
X354556Y370169D01*
Y373484D01*
X352778Y375262D01*
X349222D01*
X347444Y373484D01*
Y369928D01*
X349222Y368150D01*
X352537D01*
X356177Y364510D01*
X356235Y363154D01*
X349991Y356909D01*
X349681Y356446D01*
X349573Y355900D01*
X349573Y355900D01*
Y355751D01*
X349207Y355600D01*
X348464Y355030D01*
X347894Y354287D01*
X347536Y353422D01*
X347413Y352494D01*
X347536Y351565D01*
X347894Y350700D01*
X348464Y349958D01*
X349207Y349388D01*
X349907Y349098D01*
X350144Y348540D01*
X350224Y348001D01*
X345551Y343327D01*
X332857D01*
X332857Y343327D01*
X332311Y343219D01*
X331847Y342909D01*
X331847Y342909D01*
X317391Y328453D01*
X317081Y327990D01*
X316973Y327443D01*
X316973Y327443D01*
Y320617D01*
X313452Y317097D01*
X312528Y317480D01*
Y329772D01*
X309416D01*
Y331157D01*
X309581Y331404D01*
X309719Y332100D01*
X309581Y332796D01*
X309186Y333386D01*
X308596Y333781D01*
X307900Y333919D01*
X307204Y333781D01*
X306614Y333386D01*
X306219Y332796D01*
X306081Y332100D01*
X306219Y331404D01*
X306561Y330893D01*
Y329772D01*
X303448D01*
Y317559D01*
X302448Y317112D01*
X302196Y317281D01*
X301500Y317419D01*
X300804Y317281D01*
X300214Y316886D01*
X299972Y316525D01*
X299920Y316506D01*
X299115Y316464D01*
X298861Y316525D01*
X298686Y316786D01*
X298096Y317181D01*
X297400Y317319D01*
X296704Y317181D01*
X296114Y316786D01*
X296009Y316629D01*
X295009Y316933D01*
Y329772D01*
X291707D01*
Y334208D01*
X292746D01*
X295213Y336675D01*
Y341609D01*
X292746Y344076D01*
X287813D01*
X285346Y341609D01*
Y340569D01*
X267654D01*
Y341609D01*
X265187Y344076D01*
X260254D01*
X257787Y341609D01*
Y336675D01*
X260254Y334208D01*
X265187D01*
X267654Y336675D01*
Y337714D01*
X285346D01*
Y336675D01*
X287813Y334208D01*
X288852D01*
Y329772D01*
X285928D01*
Y314393D01*
X294859D01*
X295009Y314393D01*
X296003Y314379D01*
X296114Y314214D01*
X296704Y313819D01*
X297400Y313681D01*
X298096Y313819D01*
X298686Y314214D01*
X298928Y314575D01*
X298980Y314594D01*
X299785Y314636D01*
X300039Y314575D01*
X300214Y314314D01*
X300804Y313919D01*
X301500Y313781D01*
X302196Y313919D01*
X302547Y314154D01*
X303322Y314359D01*
X303713Y314393D01*
X309442Y314393D01*
X309824Y313469D01*
X301083Y304727D01*
X279913D01*
X279913Y304727D01*
X279367Y304619D01*
X278904Y304309D01*
X278904Y304309D01*
X235000Y260406D01*
X234691Y259943D01*
X234582Y259397D01*
X234582Y259396D01*
Y259101D01*
X229591Y254109D01*
X229281Y253646D01*
X229173Y253100D01*
X229173Y253100D01*
Y229300D01*
X229173Y229300D01*
X229281Y228754D01*
X229591Y228291D01*
X232291Y225591D01*
X232291Y225591D01*
X232754Y225281D01*
X233300Y225173D01*
X233300Y225173D01*
X252500D01*
X252500Y225173D01*
X253046Y225281D01*
X253509Y225591D01*
X256438Y228520D01*
X256748Y228983D01*
X256857Y229529D01*
X256857Y229529D01*
Y234078D01*
X259969D01*
Y249458D01*
X250889D01*
Y234078D01*
X254002D01*
Y230120D01*
X251909Y228027D01*
X233891D01*
X232027Y229891D01*
Y252509D01*
X235558Y256039D01*
X236482Y255657D01*
Y249458D01*
X233369D01*
Y234078D01*
X242450D01*
Y249458D01*
X239337D01*
Y258018D01*
X252201Y270883D01*
X253367Y270634D01*
X253514Y270414D01*
X254104Y270019D01*
X254800Y269881D01*
X255496Y270019D01*
X256086Y270414D01*
X256481Y271004D01*
X256619Y271700D01*
X256481Y272396D01*
X256086Y272986D01*
X255866Y273133D01*
X255617Y274299D01*
X281291Y299973D01*
X321700D01*
X321700Y299973D01*
X322246Y300081D01*
X322709Y300391D01*
X334009Y311691D01*
X334009Y311691D01*
X334319Y312154D01*
X334427Y312700D01*
Y327909D01*
X345091Y338573D01*
X346929D01*
X346929Y338573D01*
X347476Y338681D01*
X347939Y338991D01*
X353576Y344628D01*
X372255D01*
Y343102D01*
X372363Y342560D01*
X372671Y342100D01*
X373131Y341792D01*
X373673Y341685D01*
X374216Y341792D01*
X374658Y342088D01*
X375099Y341792D01*
X375642Y341685D01*
X376184Y341792D01*
X376626Y342088D01*
X377068Y341792D01*
X377610Y341685D01*
X378153Y341792D01*
X378594Y342088D01*
X379036Y341792D01*
X379579Y341685D01*
X380120Y341792D01*
X380123Y341792D01*
X380650Y341494D01*
X381019Y340496D01*
X380881Y339800D01*
X381019Y339104D01*
X381414Y338514D01*
X382004Y338119D01*
X382700Y337981D01*
X383396Y338119D01*
X383986Y338514D01*
X384082Y338657D01*
X385016Y338889D01*
X385287Y338798D01*
X385704Y338519D01*
X386400Y338381D01*
X387096Y338519D01*
X387686Y338914D01*
X388081Y339504D01*
X388219Y340200D01*
X388101Y340794D01*
X388058Y341197D01*
X388287Y341363D01*
X389003Y341768D01*
X389421Y341685D01*
X389964Y341792D01*
X390406Y342088D01*
X390847Y341792D01*
X391390Y341685D01*
X391932Y341792D01*
X392392Y342100D01*
X392700Y342560D01*
X392808Y343102D01*
Y349008D01*
X392700Y349550D01*
X392392Y350010D01*
X391932Y350318D01*
X391390Y350426D01*
X390847Y350318D01*
X390406Y350023D01*
X389964Y350318D01*
X389421Y350426D01*
X388880Y350870D01*
Y355647D01*
X388880Y355647D01*
X388805Y356027D01*
X388819Y356100D01*
X388681Y356796D01*
X388286Y357386D01*
X387696Y357781D01*
X387000Y357919D01*
X386304Y357781D01*
X385714Y357386D01*
X385319Y356796D01*
X385181Y356100D01*
X385319Y355404D01*
X385714Y354814D01*
X386025Y354605D01*
Y350870D01*
X385484Y350426D01*
X384942Y350318D01*
X384500Y350023D01*
X384058Y350318D01*
X383516Y350426D01*
X382973Y350318D01*
X382531Y350023D01*
X382090Y350318D01*
X381547Y350426D01*
X381005Y350318D01*
X380563Y350023D01*
X380121Y350318D01*
X379579Y350426D01*
X379036Y350318D01*
X378594Y350023D01*
X378153Y350318D01*
X377610Y350426D01*
X377068Y350318D01*
X376626Y350023D01*
X376184Y350318D01*
X375642Y350426D01*
X375099Y350318D01*
X374658Y350023D01*
X374216Y350318D01*
X373717Y350417D01*
X373671Y350428D01*
X372928Y351171D01*
X372917Y351217D01*
X372818Y351716D01*
X372523Y352157D01*
X372818Y352599D01*
X372926Y353142D01*
X372818Y353684D01*
X372523Y354126D01*
X372818Y354568D01*
X372926Y355110D01*
X372818Y355653D01*
X372523Y356095D01*
X372818Y356536D01*
X372926Y357079D01*
X372818Y357621D01*
X372510Y358081D01*
X372050Y358389D01*
X371508Y358496D01*
X368689D01*
X368534Y358527D01*
X368378Y358496D01*
X365602D01*
X365259Y358428D01*
X364819D01*
X364819Y358428D01*
X364273Y358319D01*
X363810Y358010D01*
X363810Y358010D01*
X363027Y357227D01*
X359875D01*
X359496Y357481D01*
X358800Y357619D01*
X358104Y357481D01*
X357514Y357086D01*
X357119Y356496D01*
X356981Y355800D01*
X357119Y355104D01*
X357514Y354514D01*
X358104Y354119D01*
X358800Y353981D01*
X359496Y354119D01*
X359875Y354373D01*
X363550D01*
X363813Y354129D01*
X364252Y353479D01*
X364185Y353142D01*
X364293Y352599D01*
X364588Y352157D01*
X364293Y351716D01*
X364185Y351173D01*
X364293Y350631D01*
X364295Y350627D01*
X363760Y349627D01*
X354543D01*
X354050Y350627D01*
X354106Y350700D01*
X354464Y351565D01*
X354587Y352494D01*
X354464Y353422D01*
X354106Y354287D01*
X353536Y355030D01*
X353464Y356346D01*
X358121Y361003D01*
X358678Y360827D01*
X359106Y360573D01*
X359219Y360004D01*
X359614Y359414D01*
X360204Y359019D01*
X360900Y358881D01*
X361596Y359019D01*
X362186Y359414D01*
X362303Y359588D01*
X368555D01*
X368604Y359598D01*
X371508D01*
X372050Y359706D01*
X372510Y360013D01*
X372818Y360473D01*
X372926Y361016D01*
X372818Y361558D01*
X372523Y362000D01*
X372818Y362442D01*
X372926Y362984D01*
X372818Y363527D01*
X372523Y363968D01*
X372818Y364410D01*
X372926Y364953D01*
X372818Y365495D01*
X372523Y365937D01*
X372818Y366379D01*
X372926Y366921D01*
X372818Y367464D01*
X372523Y367905D01*
X372818Y368347D01*
X372926Y368890D01*
X372818Y369432D01*
X372523Y369874D01*
X372818Y370316D01*
X372926Y370858D01*
X372818Y371401D01*
X372523Y371843D01*
X372818Y372284D01*
X372917Y372783D01*
X372928Y372829D01*
X373671Y373572D01*
X373717Y373583D01*
X374216Y373682D01*
X374676Y373990D01*
X374983Y374450D01*
X375091Y374992D01*
Y377896D01*
X375101Y377945D01*
X375091Y377993D01*
Y380898D01*
X374983Y381440D01*
X374676Y381900D01*
X374216Y382207D01*
X373673Y382315D01*
X373131Y382207D01*
X372671Y381900D01*
X372363Y381440D01*
X372255Y380898D01*
Y380243D01*
X372090Y380052D01*
X371255Y379549D01*
X370900Y379619D01*
X370881Y379615D01*
X369881Y380376D01*
Y396545D01*
X369780Y397052D01*
X369492Y397482D01*
X348237Y418737D01*
X347807Y419025D01*
X347300Y419126D01*
X333349D01*
X320737Y431737D01*
X320307Y432025D01*
X319800Y432126D01*
X202700D01*
X202193Y432025D01*
X201763Y431737D01*
X198851Y428826D01*
X176816D01*
Y432000D01*
X176754Y432312D01*
X176577Y432577D01*
X176312Y432754D01*
X176000Y432816D01*
D02*
G37*
G36*
X328500Y364285D02*
X327520Y364156D01*
X326607Y363778D01*
X325823Y363176D01*
X325222Y362393D01*
X324844Y361480D01*
X324715Y360500D01*
X324844Y359520D01*
X325222Y358607D01*
X325823Y357823D01*
X326607Y357222D01*
X327520Y356844D01*
X328500Y356715D01*
X329480Y356844D01*
X330393Y357222D01*
X331176Y357823D01*
X331778Y358607D01*
X332156Y359520D01*
X332285Y360500D01*
X332156Y361480D01*
X331778Y362393D01*
X331176Y363176D01*
X330393Y363778D01*
X329480Y364156D01*
X328500Y364285D01*
D02*
G37*
G36*
X318500D02*
X317520Y364156D01*
X316607Y363778D01*
X315824Y363176D01*
X315222Y362393D01*
X314844Y361480D01*
X314715Y360500D01*
X314844Y359520D01*
X315222Y358607D01*
X315824Y357823D01*
X316607Y357222D01*
X317520Y356844D01*
X318500Y356715D01*
X319480Y356844D01*
X320393Y357222D01*
X321177Y357823D01*
X321778Y358607D01*
X322156Y359520D01*
X322285Y360500D01*
X322156Y361480D01*
X321778Y362393D01*
X321177Y363176D01*
X320393Y363778D01*
X319480Y364156D01*
X318500Y364285D01*
D02*
G37*
G36*
X114000Y350328D02*
X113138Y350215D01*
X112336Y349883D01*
X111646Y349354D01*
X111117Y348664D01*
X110785Y347862D01*
X110671Y347000D01*
X110687Y346884D01*
X110356Y346388D01*
X110179Y345500D01*
Y337697D01*
X109683Y337317D01*
X109050Y336492D01*
X108652Y335531D01*
X108516Y334500D01*
X108652Y333469D01*
X109050Y332508D01*
X109683Y331683D01*
X110508Y331050D01*
X111469Y330652D01*
X112500Y330516D01*
X113531Y330652D01*
X114492Y331050D01*
X115317Y331683D01*
X115950Y332508D01*
X116348Y333469D01*
X116484Y334500D01*
X116348Y335531D01*
X115950Y336492D01*
X115317Y337317D01*
X114821Y337697D01*
Y343780D01*
X114862Y343785D01*
X115664Y344117D01*
X116354Y344646D01*
X116883Y345336D01*
X117215Y346139D01*
X117329Y347000D01*
X117215Y347862D01*
X116883Y348664D01*
X116354Y349354D01*
X115664Y349883D01*
X114862Y350215D01*
X114000Y350328D01*
D02*
G37*
G36*
X196859Y338516D02*
X181900D01*
X181588Y338454D01*
X181452Y338363D01*
X181338D01*
Y338286D01*
X181323Y338277D01*
X181146Y338012D01*
X181084Y337700D01*
Y330983D01*
X181146Y330671D01*
X181323Y330406D01*
X181588Y330229D01*
X181788Y330146D01*
X182100Y330084D01*
X196900D01*
X197212Y330146D01*
X197477Y330323D01*
X197654Y330588D01*
X197716Y330900D01*
Y337600D01*
X197654Y337912D01*
X197612Y338012D01*
X197559Y338092D01*
X197435Y338277D01*
X197171Y338454D01*
X196943Y338499D01*
X196859Y338516D01*
D02*
G37*
G36*
X155820Y331190D02*
X151661D01*
Y328278D01*
X151650Y328224D01*
X151661Y328171D01*
Y325259D01*
X155820D01*
Y326134D01*
X159724D01*
X159724Y326134D01*
X160524Y326293D01*
X161202Y326746D01*
X161278Y326822D01*
X161731Y327500D01*
X161890Y328300D01*
X161731Y329100D01*
X161278Y329778D01*
X160600Y330231D01*
X159800Y330390D01*
X159420Y330315D01*
X155820D01*
Y331190D01*
D02*
G37*
G36*
X166119Y322253D02*
X159401D01*
Y321097D01*
X155820D01*
Y321741D01*
X151661D01*
Y319761D01*
X151596Y319664D01*
X151419Y318776D01*
X151596Y317887D01*
X151661Y317790D01*
Y315810D01*
X155820D01*
Y316455D01*
X159401D01*
Y314747D01*
X166119D01*
Y322253D01*
D02*
G37*
G36*
X374000Y321016D02*
X339300D01*
X339297Y321015D01*
X339294Y321016D01*
X339140Y320984D01*
X338988Y320954D01*
X338985Y320952D01*
X338983Y320951D01*
X338854Y320864D01*
X338723Y320777D01*
X338722Y320774D01*
X338719Y320773D01*
X338019Y320063D01*
X337933Y319933D01*
X337846Y319802D01*
X337846Y319799D01*
X337844Y319797D01*
X337815Y319643D01*
X337784Y319490D01*
Y310700D01*
X337786Y310692D01*
X337785Y310685D01*
X337884Y305385D01*
X337917Y305237D01*
X337946Y305088D01*
X337951Y305081D01*
X337952Y305074D01*
X337995Y305012D01*
Y304547D01*
X353375D01*
Y304584D01*
X373300D01*
X373300Y304584D01*
X373612Y304646D01*
X373877Y304823D01*
X374577Y305523D01*
X374754Y305788D01*
X374816Y306100D01*
X374816Y306100D01*
Y320200D01*
X374754Y320512D01*
X374577Y320777D01*
X374312Y320954D01*
X374000Y321016D01*
D02*
G37*
G36*
X277489Y329772D02*
X268409D01*
Y314393D01*
X277489D01*
Y329772D01*
D02*
G37*
G36*
X242450D02*
X233369D01*
Y314393D01*
X242450D01*
Y329772D01*
D02*
G37*
G36*
X399820Y312481D02*
X396867D01*
X396671Y312442D01*
X396670Y312443D01*
X392930D01*
X392143Y311656D01*
Y306144D01*
X392930Y305357D01*
X396670D01*
X396671Y305358D01*
X396867Y305319D01*
X399731D01*
Y302113D01*
X398691D01*
X396224Y299646D01*
Y294713D01*
X398691Y292246D01*
X399731D01*
Y274554D01*
X398691D01*
X396224Y272087D01*
Y267154D01*
X398691Y264687D01*
X403625D01*
X406092Y267154D01*
Y272087D01*
X403625Y274554D01*
X402586D01*
Y292246D01*
X403625D01*
X406092Y294713D01*
Y299646D01*
X406120Y299713D01*
X409547D01*
Y298019D01*
X409547Y297781D01*
Y297019D01*
X409547Y296781D01*
Y290301D01*
X411210D01*
Y287000D01*
X411210Y287000D01*
X411369Y286200D01*
X411822Y285522D01*
X411922Y285422D01*
X412600Y284969D01*
X413400Y284810D01*
X414200Y284969D01*
X414878Y285422D01*
X415331Y286100D01*
X415490Y286900D01*
X415390Y287403D01*
Y290301D01*
X417053D01*
Y296781D01*
X417053Y297019D01*
Y297781D01*
X417053Y298019D01*
Y304499D01*
X409547D01*
Y302568D01*
X405119D01*
X405119Y302568D01*
X404573Y302459D01*
X404110Y302150D01*
X403625Y302113D01*
X402586D01*
Y306085D01*
X402477Y306631D01*
X402168Y307094D01*
X402168Y307094D01*
X401137Y308125D01*
Y311164D01*
X401037Y311668D01*
X400751Y312095D01*
X400324Y312381D01*
X399820Y312481D01*
D02*
G37*
G36*
X259969Y329772D02*
X250889D01*
Y314393D01*
X253873D01*
Y311475D01*
X253619Y311096D01*
X253481Y310400D01*
X253619Y309704D01*
X254014Y309114D01*
X254604Y308719D01*
X255300Y308581D01*
X255996Y308719D01*
X256586Y309114D01*
X256981Y309704D01*
X257119Y310400D01*
X256981Y311096D01*
X256727Y311475D01*
Y314393D01*
X259969D01*
Y329772D01*
D02*
G37*
G36*
X439000Y312685D02*
X438020Y312556D01*
X437107Y312178D01*
X436323Y311577D01*
X435722Y310793D01*
X435344Y309880D01*
X435215Y308900D01*
X435344Y307920D01*
X435722Y307007D01*
X436323Y306224D01*
X437107Y305622D01*
X438020Y305244D01*
X439000Y305115D01*
X439980Y305244D01*
X440893Y305622D01*
X441677Y306224D01*
X442278Y307007D01*
X442656Y307920D01*
X442785Y308900D01*
X442656Y309880D01*
X442278Y310793D01*
X441677Y311577D01*
X440893Y312178D01*
X439980Y312556D01*
X439000Y312685D01*
D02*
G37*
G36*
X112500Y328484D02*
X111469Y328348D01*
X110508Y327950D01*
X109683Y327317D01*
X109050Y326492D01*
X108652Y325531D01*
X108516Y324500D01*
X108652Y323469D01*
X109050Y322508D01*
X109434Y322007D01*
Y317753D01*
X107401D01*
Y310247D01*
X113881D01*
X114119Y310247D01*
X114881D01*
X115119Y310247D01*
X121599D01*
Y312674D01*
X135684D01*
Y297500D01*
Y297000D01*
X135746Y296688D01*
X135923Y296423D01*
X136188Y296246D01*
X136500Y296184D01*
X151500D01*
X151812Y296246D01*
X152077Y296423D01*
X152254Y296688D01*
X152316Y297000D01*
Y297992D01*
X152445Y298642D01*
Y306358D01*
X152308Y307047D01*
X152306Y307050D01*
X152254Y307312D01*
X152077Y307577D01*
X152077Y307577D01*
X148316Y311338D01*
Y315810D01*
X148339D01*
Y321741D01*
X144180D01*
Y321316D01*
X136500D01*
X136188Y321254D01*
X135923Y321077D01*
X135746Y320812D01*
X135684Y320500D01*
Y315325D01*
X121599D01*
Y317753D01*
X115119D01*
X114881Y317753D01*
X114119D01*
X113881Y317753D01*
X112085D01*
Y320153D01*
X112500Y320516D01*
X113531Y320652D01*
X114492Y321050D01*
X115317Y321683D01*
X115950Y322508D01*
X116348Y323469D01*
X116484Y324500D01*
X116348Y325531D01*
X115950Y326492D01*
X115317Y327317D01*
X114492Y327950D01*
X113531Y328348D01*
X112500Y328484D01*
D02*
G37*
G36*
X439000Y302685D02*
X438020Y302556D01*
X437107Y302178D01*
X436323Y301576D01*
X435722Y300793D01*
X435344Y299880D01*
X435215Y298900D01*
X435344Y297920D01*
X435722Y297007D01*
X436323Y296223D01*
X437107Y295622D01*
X438020Y295244D01*
X439000Y295115D01*
X439980Y295244D01*
X440893Y295622D01*
X441677Y296223D01*
X442278Y297007D01*
X442656Y297920D01*
X442785Y298900D01*
X442656Y299880D01*
X442278Y300793D01*
X441677Y301576D01*
X440893Y302178D01*
X439980Y302556D01*
X439000Y302685D01*
D02*
G37*
G36*
X209071Y320536D02*
X190961D01*
X190648Y320474D01*
X190384Y320297D01*
X190207Y320033D01*
X190145Y319720D01*
Y293342D01*
X190207Y293030D01*
X190384Y292766D01*
X190648Y292589D01*
X190961Y292527D01*
X209071D01*
X209383Y292589D01*
X209648Y292766D01*
X209824Y293030D01*
X209887Y293342D01*
Y319720D01*
X209824Y320033D01*
X209648Y320297D01*
X209383Y320474D01*
X209071Y320536D01*
D02*
G37*
G36*
X220200Y335719D02*
X219504Y335581D01*
X218914Y335186D01*
X218519Y334596D01*
X218381Y333900D01*
X218519Y333204D01*
X218773Y332825D01*
Y329772D01*
X215850D01*
Y314393D01*
X218962D01*
Y289581D01*
X215209Y285827D01*
X186600D01*
X186600Y285827D01*
X186054Y285719D01*
X185591Y285409D01*
X185591Y285409D01*
X181991Y281809D01*
X181681Y281346D01*
X181573Y280800D01*
X181573Y280800D01*
Y227184D01*
X181008Y226950D01*
X180183Y226317D01*
X179550Y225492D01*
X179152Y224531D01*
X179016Y223500D01*
X179152Y222469D01*
X179550Y221508D01*
X180183Y220683D01*
X181008Y220050D01*
X181969Y219652D01*
X183000Y219516D01*
X184031Y219652D01*
X184992Y220050D01*
X185817Y220683D01*
X186450Y221508D01*
X186848Y222469D01*
X186984Y223500D01*
X186848Y224531D01*
X186450Y225492D01*
X185817Y226317D01*
X184992Y226950D01*
X184427Y227184D01*
Y280209D01*
X187191Y282973D01*
X215800D01*
X215800Y282973D01*
X216346Y283081D01*
X216809Y283391D01*
X221399Y287980D01*
X221399Y287980D01*
X221708Y288443D01*
X221817Y288990D01*
X221817Y288990D01*
Y290309D01*
X222585Y290837D01*
X222817Y290897D01*
X223400Y290781D01*
X224096Y290919D01*
X224686Y291314D01*
X225081Y291904D01*
X225219Y292600D01*
X225081Y293296D01*
X224686Y293886D01*
X224096Y294281D01*
X223400Y294419D01*
X222817Y294303D01*
X222585Y294363D01*
X221817Y294891D01*
Y314393D01*
X224930D01*
Y329772D01*
X221627D01*
Y332825D01*
X221881Y333204D01*
X222019Y333900D01*
X221881Y334596D01*
X221486Y335186D01*
X220896Y335581D01*
X220200Y335719D01*
D02*
G37*
G36*
X117757Y293068D02*
X102500D01*
X102227Y293014D01*
X101995Y292859D01*
X101841Y292627D01*
X101786Y292354D01*
Y261646D01*
X101841Y261373D01*
X101995Y261141D01*
X102227Y260986D01*
X102500Y260932D01*
X117757D01*
X117826Y260946D01*
X117896D01*
X118505Y261067D01*
X118570Y261094D01*
X118639Y261107D01*
X119212Y261345D01*
X119271Y261384D01*
X119335Y261411D01*
X119851Y261755D01*
X119901Y261805D01*
X119959Y261844D01*
X120398Y262283D01*
X120437Y262341D01*
X120487Y262391D01*
X120832Y262907D01*
X120859Y262972D01*
X120898Y263030D01*
X121135Y263603D01*
X121149Y263672D01*
X121176Y263737D01*
X121297Y264346D01*
Y264416D01*
X121310Y264485D01*
Y271998D01*
X121732Y272934D01*
X127362D01*
X127728Y273006D01*
X128038Y273214D01*
X128246Y273524D01*
X128318Y273890D01*
Y274992D01*
X129145Y275675D01*
X130451D01*
X133563Y272563D01*
X133993Y272275D01*
X134500Y272175D01*
X140665D01*
Y271335D01*
X140757Y270869D01*
X141021Y270474D01*
X141416Y270210D01*
X141573Y270179D01*
Y267835D01*
X140835D01*
X140369Y267742D01*
X139974Y267479D01*
X139710Y267084D01*
X139618Y266618D01*
Y264256D01*
X139710Y263790D01*
X139777Y263690D01*
X139654Y263567D01*
Y259433D01*
X138879Y258889D01*
X137291D01*
X136759Y259244D01*
X136063Y259382D01*
X135367Y259244D01*
X134777Y258849D01*
X134382Y258259D01*
X134244Y257563D01*
X134382Y256867D01*
X134777Y256277D01*
X135367Y255882D01*
X136063Y255744D01*
X136759Y255882D01*
X137291Y256238D01*
X139646D01*
X139710Y255916D01*
X139974Y255521D01*
X140369Y255258D01*
X140835Y255165D01*
X145165D01*
X145631Y255258D01*
X146026Y255521D01*
X146290Y255916D01*
X146382Y256382D01*
Y258744D01*
X146290Y259210D01*
X146223Y259310D01*
X146346Y259433D01*
Y263567D01*
X146223Y263690D01*
X146290Y263790D01*
X146382Y264256D01*
Y266618D01*
X146290Y267084D01*
X146026Y267479D01*
X145631Y267742D01*
X145165Y267835D01*
X144427D01*
Y269363D01*
X144933Y270153D01*
X149067D01*
X149190Y270277D01*
X149290Y270210D01*
X149756Y270118D01*
X152118D01*
X152584Y270210D01*
X152979Y270474D01*
X153243Y270869D01*
X153335Y271335D01*
Y272073D01*
X157375D01*
X157904Y271719D01*
X158600Y271581D01*
X159296Y271719D01*
X159886Y272114D01*
X160281Y272704D01*
X160419Y273400D01*
X160281Y274096D01*
X159886Y274686D01*
X159296Y275081D01*
X158600Y275219D01*
X157904Y275081D01*
X157674Y274927D01*
X153335D01*
Y275665D01*
X153243Y276131D01*
X152979Y276526D01*
X152584Y276790D01*
X152118Y276882D01*
X149756D01*
X149290Y276790D01*
X149190Y276723D01*
X149067Y276847D01*
X144933D01*
X144810Y276723D01*
X144710Y276790D01*
X144244Y276882D01*
X141882D01*
X141416Y276790D01*
X141021Y276526D01*
X140757Y276131D01*
X140665Y275665D01*
Y274826D01*
X135049D01*
X132272Y277603D01*
X132076Y278327D01*
X132283Y278909D01*
X134549Y281174D01*
X140665D01*
Y280335D01*
X140757Y279869D01*
X141021Y279474D01*
X141416Y279210D01*
X141882Y279118D01*
X144244D01*
X144710Y279210D01*
X144810Y279277D01*
X144933Y279153D01*
X149067D01*
X149190Y279277D01*
X149290Y279210D01*
X149756Y279118D01*
X152118D01*
X152584Y279210D01*
X152979Y279474D01*
X153243Y279869D01*
X153335Y280335D01*
Y281073D01*
X157925D01*
X158304Y280819D01*
X159000Y280681D01*
X159696Y280819D01*
X159765Y280865D01*
X159846Y280881D01*
X160309Y281191D01*
X160619Y281654D01*
X160635Y281735D01*
X160681Y281804D01*
X160819Y282500D01*
X160681Y283196D01*
X160286Y283786D01*
X159696Y284181D01*
X159000Y284319D01*
X158304Y284181D01*
X157925Y283927D01*
X153335D01*
Y284665D01*
X153243Y285131D01*
X152979Y285526D01*
X152584Y285790D01*
X152118Y285882D01*
X149756D01*
X149290Y285790D01*
X149190Y285723D01*
X149067Y285846D01*
X144933D01*
X144810Y285723D01*
X144710Y285790D01*
X144244Y285882D01*
X141882D01*
X141416Y285790D01*
X141021Y285526D01*
X140757Y285131D01*
X140665Y284665D01*
Y283825D01*
X134000D01*
X133493Y283725D01*
X133063Y283437D01*
X132559Y282933D01*
X132332Y282906D01*
X131348Y283136D01*
X131168Y283404D01*
X130578Y283799D01*
X129882Y283937D01*
X129186Y283799D01*
X128654Y283444D01*
X127891D01*
X127728Y283553D01*
X127362Y283626D01*
X121732D01*
X121310Y284561D01*
Y289515D01*
X121297Y289584D01*
Y289654D01*
X121176Y290263D01*
X121149Y290328D01*
X121135Y290396D01*
X120898Y290970D01*
X120859Y291028D01*
X120832Y291093D01*
X120487Y291609D01*
X120437Y291659D01*
X120398Y291717D01*
X119959Y292156D01*
X119901Y292195D01*
X119851Y292245D01*
X119335Y292589D01*
X119271Y292616D01*
X119212Y292655D01*
X118639Y292893D01*
X118570Y292906D01*
X118505Y292933D01*
X117896Y293054D01*
X117826D01*
X117757Y293068D01*
D02*
G37*
G36*
X300500Y250619D02*
X299804Y250481D01*
X299214Y250086D01*
X298819Y249496D01*
X298681Y248800D01*
X298819Y248104D01*
X299214Y247514D01*
X299804Y247119D01*
X300500Y246981D01*
X301196Y247119D01*
X301786Y247514D01*
X302181Y248104D01*
X302319Y248800D01*
X302181Y249496D01*
X301786Y250086D01*
X301196Y250481D01*
X300500Y250619D01*
D02*
G37*
G36*
X209071Y279985D02*
X190961D01*
X190648Y279923D01*
X190384Y279746D01*
X190207Y279482D01*
X190145Y279169D01*
Y244130D01*
X190207Y243818D01*
X190384Y243553D01*
X190648Y243376D01*
X190961Y243314D01*
X209071D01*
X209383Y243376D01*
X209648Y243553D01*
X209824Y243818D01*
X209887Y244130D01*
Y279169D01*
X209824Y279482D01*
X209648Y279746D01*
X209383Y279923D01*
X209071Y279985D01*
D02*
G37*
G36*
X443000Y262835D02*
X432000D01*
X431298Y262696D01*
X430702Y262298D01*
X430304Y261702D01*
X430165Y261000D01*
Y255000D01*
X430304Y254298D01*
X430702Y253702D01*
X431298Y253304D01*
X432000Y253165D01*
X432272D01*
X432552Y252264D01*
X432543Y252165D01*
X431577Y251423D01*
X430807Y250421D01*
X430324Y249253D01*
X430159Y248000D01*
X430324Y246747D01*
X430807Y245579D01*
X431577Y244577D01*
X432579Y243807D01*
X433747Y243323D01*
X435000Y243159D01*
X440000D01*
X441253Y243323D01*
X442421Y243807D01*
X443423Y244577D01*
X444193Y245579D01*
X444676Y246747D01*
X444841Y248000D01*
X444676Y249253D01*
X444193Y250421D01*
X443423Y251423D01*
X442457Y252165D01*
X442448Y252264D01*
X442728Y253165D01*
X443000D01*
X443702Y253304D01*
X444298Y253702D01*
X444696Y254298D01*
X444835Y255000D01*
Y261000D01*
X444696Y261702D01*
X444298Y262298D01*
X443702Y262696D01*
X443000Y262835D01*
D02*
G37*
G36*
X295009Y249458D02*
X285928D01*
Y234078D01*
X295009D01*
Y249458D01*
D02*
G37*
G36*
X277489D02*
X268409D01*
Y234078D01*
X277489D01*
Y249458D01*
D02*
G37*
G36*
X280600Y233219D02*
X279904Y233081D01*
X279314Y232686D01*
X278919Y232096D01*
X278781Y231400D01*
X278919Y230704D01*
X279314Y230114D01*
X279904Y229719D01*
X280600Y229581D01*
X281296Y229719D01*
X281886Y230114D01*
X282281Y230704D01*
X282419Y231400D01*
X282281Y232096D01*
X281886Y232686D01*
X281296Y233081D01*
X280600Y233219D01*
D02*
G37*
G36*
X224930Y249458D02*
X215850D01*
Y234078D01*
X218962D01*
Y230692D01*
X218904Y230681D01*
X218314Y230286D01*
X217919Y229696D01*
X217781Y229000D01*
X217919Y228304D01*
X218314Y227714D01*
X218904Y227319D01*
X219073Y227286D01*
Y222481D01*
X218836Y222382D01*
X218146Y221854D01*
X217618Y221164D01*
X217285Y220361D01*
X217172Y219500D01*
X217285Y218638D01*
X217618Y217836D01*
X218146Y217146D01*
X218836Y216617D01*
X219638Y216285D01*
X220500Y216172D01*
X221361Y216285D01*
X222164Y216617D01*
X222854Y217146D01*
X223382Y217836D01*
X223715Y218638D01*
X223829Y219500D01*
X223715Y220361D01*
X223382Y221164D01*
X222854Y221854D01*
X222164Y222382D01*
X221927Y222481D01*
Y228100D01*
X221819Y228646D01*
X221564Y229027D01*
X221708Y229243D01*
X221817Y229790D01*
X221817Y229790D01*
Y234078D01*
X224930D01*
Y249458D01*
D02*
G37*
G36*
X200400Y228490D02*
X199600Y228331D01*
X198922Y227878D01*
X198469Y227200D01*
X198310Y226400D01*
X198410Y225897D01*
Y224099D01*
X196747D01*
Y217619D01*
X196747Y217381D01*
Y216619D01*
X195979Y215821D01*
X186197D01*
X185817Y216317D01*
X184992Y216950D01*
X184031Y217348D01*
X183000Y217484D01*
X181969Y217348D01*
X181008Y216950D01*
X180183Y216317D01*
X179550Y215492D01*
X179152Y214531D01*
X179016Y213500D01*
X179152Y212469D01*
X179550Y211508D01*
X180183Y210683D01*
X181008Y210050D01*
X181969Y209652D01*
X183000Y209516D01*
X184031Y209652D01*
X184992Y210050D01*
X185817Y210683D01*
X186197Y211179D01*
X196747D01*
Y209901D01*
X204253D01*
Y216381D01*
X204253Y216619D01*
Y217381D01*
X204253Y217619D01*
Y224099D01*
X202590D01*
Y226300D01*
X202431Y227100D01*
X201978Y227778D01*
X201878Y227878D01*
X201200Y228331D01*
X200400Y228490D01*
D02*
G37*
G36*
X256500Y221285D02*
X255520Y221156D01*
X254607Y220778D01*
X253823Y220177D01*
X253222Y219393D01*
X252844Y218480D01*
X252715Y217500D01*
X252844Y216520D01*
X253222Y215607D01*
X253823Y214824D01*
X254607Y214222D01*
X255520Y213844D01*
X256500Y213715D01*
X257480Y213844D01*
X258393Y214222D01*
X259176Y214824D01*
X259778Y215607D01*
X260156Y216520D01*
X260285Y217500D01*
X260156Y218480D01*
X259778Y219393D01*
X259176Y220177D01*
X258393Y220778D01*
X257480Y221156D01*
X256500Y221285D01*
D02*
G37*
G36*
X142100Y232821D02*
X141212Y232644D01*
X140459Y232141D01*
X140359Y232041D01*
X139856Y231288D01*
X139679Y230400D01*
Y224099D01*
X138247D01*
Y217619D01*
X138247Y217381D01*
Y216619D01*
X138247Y216381D01*
Y209901D01*
X145753D01*
Y210939D01*
X154487D01*
X154683Y210683D01*
X155508Y210050D01*
X156469Y209652D01*
X157500Y209516D01*
X158531Y209652D01*
X159492Y210050D01*
X160317Y210683D01*
X160950Y211508D01*
X161348Y212469D01*
X161484Y213500D01*
X161348Y214531D01*
X160950Y215492D01*
X160317Y216317D01*
X159492Y216950D01*
X158531Y217348D01*
X157500Y217484D01*
X156469Y217348D01*
X155508Y216950D01*
X154683Y216317D01*
X154118Y215581D01*
X146235D01*
X145753Y216581D01*
Y217381D01*
X145753Y217619D01*
Y224099D01*
X144321D01*
Y229997D01*
X144421Y230500D01*
X144244Y231388D01*
X143741Y232141D01*
X142988Y232644D01*
X142100Y232821D01*
D02*
G37*
%LPD*%
G36*
X165062Y432500D02*
X165562Y432000D01*
Y420500D01*
X143000Y420500D01*
Y379000D01*
X141000Y377000D01*
Y353000D01*
X147500Y346500D01*
X150000Y344000D01*
Y336500D01*
X125500D01*
Y362500D01*
X124500Y363500D01*
X124000Y364000D01*
X112000D01*
Y381500D01*
X112500Y382000D01*
X126000D01*
Y400500D01*
X135500Y410000D01*
X135000Y410500D01*
Y432500D01*
X165062Y432500D01*
D02*
G37*
G36*
X167000Y385000D02*
X168500D01*
Y365500D01*
X168000Y365000D01*
X161500D01*
Y365800D01*
Y368600D01*
Y380400D01*
Y383200D01*
X164500D01*
X164500Y392500D01*
X167000D01*
Y385000D01*
D02*
G37*
G36*
X153000Y394500D02*
Y386500D01*
Y385700D01*
X155500Y383200D01*
Y380400D01*
Y368600D01*
Y365800D01*
Y364500D01*
Y361900D01*
X170000D01*
Y381200D01*
X170041Y381300D01*
X180100D01*
Y355500D01*
X180200Y355400D01*
X178800Y354000D01*
X147600D01*
X147000Y354600D01*
Y365000D01*
Y395000D01*
X152500D01*
X153000Y394500D01*
D02*
G37*
G36*
X197400Y361100D02*
Y344300D01*
X170800D01*
Y351000D01*
X182200D01*
X182300Y351100D01*
Y361300D01*
X196483D01*
X197400Y361100D01*
D02*
G37*
%LPC*%
G36*
X152000Y431087D02*
X151072Y430964D01*
X150207Y430606D01*
X149464Y430036D01*
X148894Y429293D01*
X148536Y428428D01*
X148413Y427500D01*
X148536Y426572D01*
X148894Y425707D01*
X149464Y424964D01*
X150207Y424394D01*
X151072Y424036D01*
X152000Y423913D01*
X152928Y424036D01*
X153793Y424394D01*
X154536Y424964D01*
X155106Y425707D01*
X155464Y426572D01*
X155587Y427500D01*
X155464Y428428D01*
X155106Y429293D01*
X154536Y430036D01*
X153793Y430606D01*
X152928Y430964D01*
X152000Y431087D01*
D02*
G37*
%LPD*%
G36*
X176000Y398000D02*
X168500Y398000D01*
Y398000D01*
X164500D01*
Y399000D01*
Y407293D01*
X165000Y407500D01*
X168500D01*
Y432000D01*
X176000Y432000D01*
Y398000D01*
D02*
G37*
G36*
X196900Y337600D02*
Y330900D01*
X182100D01*
X181900Y330983D01*
Y337700D01*
X196859D01*
X196900Y337600D01*
D02*
G37*
G36*
X374000Y306100D02*
X373300Y305400D01*
X338700D01*
X338600Y310700D01*
Y319490D01*
X339300Y320200D01*
X374000D01*
Y306100D01*
D02*
G37*
G36*
X147500Y312000D02*
Y311000D01*
X151500Y307000D01*
Y297000D01*
X136500D01*
Y297500D01*
Y320500D01*
X147500D01*
Y312000D01*
D02*
G37*
D10*
X373673Y377945D02*
D03*
X375642D02*
D03*
X377610D02*
D03*
X379579D02*
D03*
X381547D02*
D03*
X383516D02*
D03*
X385484D02*
D03*
X387453D02*
D03*
X389421D02*
D03*
X391390D02*
D03*
X393358D02*
D03*
X395327D02*
D03*
Y346055D02*
D03*
X393358D02*
D03*
X391390D02*
D03*
X389421D02*
D03*
X387453D02*
D03*
X385484D02*
D03*
X383516D02*
D03*
X381547D02*
D03*
X379579D02*
D03*
X377610D02*
D03*
X375642D02*
D03*
X373673D02*
D03*
D11*
X400445Y372827D02*
D03*
Y370858D02*
D03*
Y368890D02*
D03*
Y366921D02*
D03*
Y364953D02*
D03*
Y362984D02*
D03*
Y361016D02*
D03*
Y359047D02*
D03*
Y357079D02*
D03*
Y355110D02*
D03*
Y353142D02*
D03*
Y351173D02*
D03*
X368555D02*
D03*
Y353142D02*
D03*
Y355110D02*
D03*
Y357079D02*
D03*
Y359047D02*
D03*
Y361016D02*
D03*
Y362984D02*
D03*
Y364953D02*
D03*
Y366921D02*
D03*
Y368890D02*
D03*
Y370858D02*
D03*
Y372827D02*
D03*
D12*
X142000Y213260D02*
D03*
Y220740D02*
D03*
X200500Y220740D02*
D03*
Y213260D02*
D03*
X150000Y399840D02*
D03*
Y392360D02*
D03*
Y415340D02*
D03*
Y407860D02*
D03*
X413300Y301140D02*
D03*
Y293660D02*
D03*
D13*
X264760Y371000D02*
D03*
X272240D02*
D03*
X264760Y391500D02*
D03*
X272240D02*
D03*
X162760Y318500D02*
D03*
X170240D02*
D03*
X118240Y314000D02*
D03*
X110760D02*
D03*
D14*
X124547Y286252D02*
D03*
Y267748D02*
D03*
D15*
Y282118D02*
D03*
Y279559D02*
D03*
Y277000D02*
D03*
Y274441D02*
D03*
Y271882D02*
D03*
D16*
X114000Y347000D02*
D03*
X146000Y359000D02*
D03*
X135000Y339500D02*
D03*
X220500Y219500D02*
D03*
D17*
X437500Y248000D02*
D03*
D18*
Y258000D02*
D03*
D19*
X308768Y213843D02*
D03*
X342232D02*
D03*
D20*
X325500D02*
D03*
D21*
X165800Y374400D02*
D03*
X151200Y374500D02*
D03*
D22*
X158260Y400718D02*
D03*
X165740Y390482D02*
D03*
X162000D02*
D03*
X158260D02*
D03*
X165740Y400718D02*
D03*
D23*
X174500Y387618D02*
D03*
Y377382D02*
D03*
D24*
X184118Y400500D02*
D03*
X173882D02*
D03*
X156618Y339000D02*
D03*
X146382D02*
D03*
D25*
X150937Y273500D02*
D03*
X143063D02*
D03*
Y282500D02*
D03*
X150937D02*
D03*
D26*
X143000Y265437D02*
D03*
Y257563D02*
D03*
D27*
X153740Y328224D02*
D03*
X150000D02*
D03*
X146260D02*
D03*
Y318776D02*
D03*
X153740D02*
D03*
D28*
X170409Y302500D02*
D03*
X146591D02*
D03*
D29*
X184500Y334906D02*
D03*
Y348095D02*
D03*
D30*
X174600Y348191D02*
D03*
Y359609D02*
D03*
D31*
X398343Y308900D02*
D03*
X391257D02*
D03*
D32*
X325508Y241768D02*
D03*
X307988Y241768D02*
D03*
X290469D02*
D03*
X272949D02*
D03*
X255429D02*
D03*
X237910D02*
D03*
X220390D02*
D03*
Y322083D02*
D03*
X237910D02*
D03*
X255429D02*
D03*
X272949D02*
D03*
X290469D02*
D03*
X307988D02*
D03*
X325508Y322083D02*
D03*
D33*
X345685Y309087D02*
D03*
Y290980D02*
D03*
Y272866D02*
D03*
Y254756D02*
D03*
D34*
X363618Y355800D02*
X364819Y357001D01*
X358800Y355800D02*
X363618D01*
X368435Y357001D02*
X368534Y357100D01*
X364819Y357001D02*
X368435D01*
X368534Y357100D02*
X368555Y357079D01*
X395327Y346055D02*
X395372Y346100D01*
X398700D01*
X400300Y372972D02*
X400445Y372827D01*
X373528Y377800D02*
X373673Y377945D01*
X370900Y377800D02*
X373528D01*
X357753Y364953D02*
X368555D01*
X351000Y371706D02*
X357753Y364953D01*
X358084Y362984D02*
X368555D01*
X351000Y355900D02*
X358084Y362984D01*
X351000Y352494D02*
Y355900D01*
X384500Y421200D02*
X413900Y391800D01*
X384500Y421200D02*
Y431500D01*
X400445Y357079D02*
X400523Y357001D01*
X439000Y328900D02*
X445200D01*
X400445Y353142D02*
X400513Y353073D01*
X408100D01*
X385484Y377945D02*
Y383416D01*
X382000Y386900D02*
X385484Y383416D01*
X354500Y429087D02*
Y431500D01*
X364500Y421774D02*
Y431500D01*
Y421774D02*
X393358Y392916D01*
X354500Y429087D02*
X391390Y392197D01*
Y377945D02*
Y392197D01*
X393358Y377945D02*
Y392916D01*
X395327Y377945D02*
Y393634D01*
X374500Y414461D02*
X395327Y393634D01*
X374500Y414461D02*
Y431500D01*
X344500D02*
X347100D01*
X389421Y389179D01*
Y377945D02*
Y389179D01*
X387453Y377945D02*
Y385747D01*
X386700Y386500D02*
X387453Y385747D01*
X400445Y368890D02*
X405490D01*
X413900Y377300D01*
Y391800D01*
X439500Y391400D02*
Y395000D01*
X435787Y385000D02*
X439500D01*
X387453Y346055D02*
Y355647D01*
X387000Y356100D02*
X387453Y355647D01*
X381547Y377945D02*
Y382253D01*
X378900Y384900D02*
X381547Y382253D01*
X400445Y351173D02*
X406770D01*
X422100Y367700D02*
X443200D01*
X422887Y365800D02*
X440200D01*
X439000Y338900D02*
X445400Y345300D01*
Y360600D01*
X440200Y365800D02*
X445400Y360600D01*
X447300Y331000D02*
Y363600D01*
X445200Y328900D02*
X447300Y331000D01*
X443200Y367700D02*
X447300Y363600D01*
X408100Y353073D02*
X408180Y353153D01*
X440762D01*
X443253Y350661D01*
Y347139D02*
Y350661D01*
X433200Y324700D02*
X439000Y318900D01*
X440014Y343900D02*
X443253Y347139D01*
X433200Y324700D02*
Y340200D01*
X436900Y343900D01*
X440014D01*
X406770Y351173D02*
X409043Y348900D01*
X439000D01*
X401158Y297180D02*
Y306085D01*
X398343Y308900D02*
X401158Y306085D01*
Y297180D02*
X405119Y301140D01*
X413300D01*
X361216Y361016D02*
X368555D01*
X360900Y360700D02*
X361216Y361016D01*
X237910Y241768D02*
Y258610D01*
X280700Y301400D01*
X321700D01*
X333000Y312700D01*
Y328500D01*
X279913Y303300D02*
X301674D01*
X236010Y259397D02*
X279913Y303300D01*
X236010Y258509D02*
Y259397D01*
X230600Y253100D02*
X236010Y258509D01*
X230600Y229300D02*
Y253100D01*
Y229300D02*
X233300Y226600D01*
X252500D01*
X255429Y229529D01*
Y241768D01*
X301674Y303300D02*
X318400Y320026D01*
Y327443D01*
X332857Y341900D01*
X346142D01*
X333000Y328500D02*
X344500Y340000D01*
X346929D01*
X352984Y346055D01*
X373673D01*
X346142Y341900D02*
X352442Y348200D01*
X365582D01*
X368555Y351173D01*
X401158Y269620D02*
Y297180D01*
X143000Y265437D02*
Y273437D01*
X143063Y273500D01*
X150937Y282500D02*
X159000D01*
X159300Y282200D01*
X150937Y273500D02*
X158500D01*
X158600Y273400D01*
X400445Y355101D02*
X412188D01*
X400445Y357079D02*
X411479D01*
X412188Y355101D02*
X422887Y365800D01*
X411479Y357079D02*
X422100Y367700D01*
X415084Y363867D02*
Y364297D01*
X435787Y385000D01*
X413184Y364654D02*
Y365084D01*
X439500Y391400D01*
X412233Y361016D02*
X415084Y363867D01*
X411515Y362984D02*
X413184Y364654D01*
X410253Y364953D02*
X410900Y365600D01*
X400445Y364953D02*
X410253D01*
X400445Y362984D02*
X411515D01*
X400445Y361016D02*
X412233D01*
X408421Y366921D02*
X409400Y367900D01*
X400445Y366921D02*
X408421D01*
X252500Y392000D02*
X264260D01*
X220390Y229790D02*
Y241768D01*
X219600Y229000D02*
X220390Y229790D01*
X219600Y229000D02*
X220500Y228100D01*
Y219500D02*
Y228100D01*
X255300Y310400D02*
Y321954D01*
X255429Y322083D01*
X220200Y322272D02*
Y333900D01*
Y322272D02*
X220390Y322083D01*
Y288990D02*
Y322083D01*
X215800Y284400D02*
X220390Y288990D01*
X186600Y284400D02*
X215800D01*
X183000Y280800D02*
X186600Y284400D01*
X183000Y223500D02*
Y280800D01*
X262720Y339142D02*
X290280D01*
Y322272D02*
Y339142D01*
Y322272D02*
X290469Y322083D01*
X383516Y340616D02*
Y346055D01*
X382700Y339800D02*
X383516Y340616D01*
X307988Y322083D02*
Y332012D01*
X307900Y332100D02*
X307988Y332012D01*
X368555Y359047D02*
X374247D01*
X376200Y361000D01*
Y364000D01*
X375642Y372542D02*
Y377945D01*
X375200Y372100D02*
X375642Y372542D01*
X396058Y370858D02*
X400445D01*
X393300Y339600D02*
Y345997D01*
X393358Y346055D01*
X394500Y369300D02*
X396058Y370858D01*
X400300Y372972D02*
Y376100D01*
X394500Y365200D02*
Y369300D01*
D35*
X134000Y282500D02*
X143063D01*
X131059Y279559D02*
X134000Y282500D01*
X124547Y279559D02*
X131059D01*
X134500Y273500D02*
X143063D01*
X131000Y277000D02*
X134500Y273500D01*
X124547Y277000D02*
X131000D01*
X124547Y282118D02*
X129882D01*
X110760Y314000D02*
Y322760D01*
X112500Y324500D01*
X138500Y314000D02*
X139000Y314500D01*
X118240Y314000D02*
X138500D01*
X136063Y257563D02*
X143000D01*
X136000Y257500D02*
X136063Y257563D01*
X150000Y399840D02*
Y407860D01*
Y399840D02*
X157382D01*
X158260Y400718D01*
Y390482D02*
Y393760D01*
X160000Y395500D01*
X163500D01*
X165740Y397740D01*
Y400718D01*
X202700Y430800D02*
X319800D01*
X332800Y417800D01*
X347300D01*
X368555Y396545D01*
Y372827D02*
Y396545D01*
X386400Y340200D02*
Y341623D01*
X385484Y342539D02*
X386400Y341623D01*
X385484Y342539D02*
Y346055D01*
X252500Y372000D02*
X263760D01*
X264760Y371000D01*
X173100Y427500D02*
X199400D01*
X202700Y430800D01*
D36*
X150000Y415340D02*
X157760D01*
X157800Y415300D01*
X156618Y339000D02*
X164700D01*
X146260Y328224D02*
Y338878D01*
X146382Y339000D01*
X112500Y334500D02*
Y345500D01*
X114000Y347000D01*
X153740Y318776D02*
X162484D01*
X162760Y318500D01*
X142000Y213260D02*
X157260D01*
X157500Y213500D01*
X183000D02*
X200260D01*
X200500Y213260D01*
X142000Y220740D02*
Y230400D01*
X142100Y230500D01*
X383442Y301085D02*
X391257Y308900D01*
X383442Y297180D02*
Y301085D01*
X325500Y213843D02*
Y241760D01*
X325508Y241768D01*
X162000Y386500D02*
Y390482D01*
D37*
X153740Y328224D02*
X159724D01*
X159800Y328300D01*
X413300Y287000D02*
Y293660D01*
Y287000D02*
X413400Y286900D01*
X272300Y385900D02*
Y391440D01*
X272240Y391500D02*
X272300Y391440D01*
Y371060D02*
Y376900D01*
X272240Y371000D02*
X272300Y371060D01*
X200500Y220740D02*
Y226300D01*
X200400Y226400D02*
X200500Y226300D01*
D38*
X200016Y306532D02*
D03*
D39*
X200016Y261650D02*
D03*
D40*
X126250Y266950D02*
D03*
D41*
X126350Y287850D02*
D03*
D42*
X351000Y371706D02*
D03*
D43*
Y352494D02*
D03*
X152000Y427500D02*
D03*
X172000D02*
D03*
X162000D02*
D03*
D44*
X223000Y409500D02*
D03*
X222972Y354500D02*
D03*
D45*
X252500Y392000D02*
D03*
Y372000D02*
D03*
Y382059D02*
D03*
X183000Y213500D02*
D03*
Y223500D02*
D03*
X112500Y324500D02*
D03*
Y334500D02*
D03*
X157500Y213500D02*
D03*
Y223500D02*
D03*
D46*
X439000Y288900D02*
D03*
X439500Y395000D02*
D03*
X318500Y370500D02*
D03*
D47*
X439000Y298900D02*
D03*
Y308900D02*
D03*
Y318900D02*
D03*
Y328900D02*
D03*
Y338900D02*
D03*
Y348900D02*
D03*
Y358900D02*
D03*
X439500Y385000D02*
D03*
Y375000D02*
D03*
X256500Y217500D02*
D03*
X318500Y360500D02*
D03*
Y350500D02*
D03*
X328500Y370500D02*
D03*
Y360500D02*
D03*
Y350500D02*
D03*
X334500Y431500D02*
D03*
X344500D02*
D03*
X354500D02*
D03*
X364500D02*
D03*
X384500D02*
D03*
X374500D02*
D03*
D48*
X401158Y269620D02*
D03*
X383442D02*
D03*
X401158Y297180D02*
D03*
X383442D02*
D03*
D49*
X262720Y339142D02*
D03*
Y356858D02*
D03*
X290280Y339142D02*
D03*
Y356858D02*
D03*
D50*
X266500Y217500D02*
D03*
X394500Y431500D02*
D03*
D51*
X117000Y376500D02*
D03*
D52*
Y391500D02*
D03*
D53*
X123366Y297079D02*
D03*
Y256921D02*
D03*
X108799D02*
D03*
Y297079D02*
D03*
D54*
X440000Y248000D02*
D03*
D55*
Y258000D02*
D03*
D56*
X358800Y355800D02*
D03*
X129882Y282118D02*
D03*
X138000Y309000D02*
D03*
Y304500D02*
D03*
Y300000D02*
D03*
X136063Y257563D02*
D03*
X165500Y404500D02*
D03*
X168500D02*
D03*
X171500D02*
D03*
X171000Y408000D02*
D03*
X174500D02*
D03*
Y404500D02*
D03*
X162000Y386500D02*
D03*
X184600Y392800D02*
D03*
X184700Y388600D02*
D03*
X180400Y388400D02*
D03*
X157760Y415340D02*
D03*
X164700Y339000D02*
D03*
X159800Y328300D02*
D03*
X170300Y312500D02*
D03*
Y309000D02*
D03*
X151600Y359500D02*
D03*
X142100Y230500D02*
D03*
X150200Y332600D02*
D03*
X151800Y334500D02*
D03*
X185039Y354331D02*
D03*
Y358268D02*
D03*
X188977Y346457D02*
D03*
Y350394D02*
D03*
Y354331D02*
D03*
Y358268D02*
D03*
X192913Y346457D02*
D03*
Y350394D02*
D03*
Y354331D02*
D03*
Y358268D02*
D03*
X350394Y314961D02*
D03*
X354331Y311024D02*
D03*
Y314961D02*
D03*
X358268Y311024D02*
D03*
Y314961D02*
D03*
X362205Y311024D02*
D03*
Y314961D02*
D03*
X366142Y311024D02*
D03*
Y314961D02*
D03*
X370079Y311024D02*
D03*
Y314961D02*
D03*
X398700Y346100D02*
D03*
X370900Y377800D02*
D03*
X343957Y371057D02*
D03*
Y352643D02*
D03*
X376200Y364000D02*
D03*
X386800Y368800D02*
D03*
X382000Y386900D02*
D03*
X386700Y386500D02*
D03*
X387000Y356100D02*
D03*
X378900Y384900D02*
D03*
X360900Y360700D02*
D03*
X159000Y282500D02*
D03*
X158600Y273400D02*
D03*
X410900Y365600D02*
D03*
X409400Y367900D02*
D03*
X219600Y229000D02*
D03*
X220200Y333900D02*
D03*
X255300Y310400D02*
D03*
X358400Y293300D02*
D03*
Y289100D02*
D03*
X358100Y275100D02*
D03*
X358000Y270800D02*
D03*
X195000Y334500D02*
D03*
X233600Y308300D02*
D03*
X239100Y306900D02*
D03*
X239500Y296200D02*
D03*
X223400Y292600D02*
D03*
X272000Y265300D02*
D03*
X260200Y258900D02*
D03*
X296400Y248700D02*
D03*
X300500Y248800D02*
D03*
X280600Y231400D02*
D03*
X331900Y291300D02*
D03*
X320700Y291400D02*
D03*
X297400Y315500D02*
D03*
X301500Y315600D02*
D03*
X413400Y286900D02*
D03*
X382700Y339800D02*
D03*
X386400Y340200D02*
D03*
X272300Y385900D02*
D03*
Y376900D02*
D03*
X307900Y332100D02*
D03*
X129800Y286400D02*
D03*
X129300Y289600D02*
D03*
X124800Y290300D02*
D03*
X129600Y267900D02*
D03*
X129200Y264300D02*
D03*
X124900Y263100D02*
D03*
X375200Y372100D02*
D03*
X393300Y339600D02*
D03*
X382500Y362300D02*
D03*
X400300Y376100D02*
D03*
X394500Y365200D02*
D03*
X254800Y271700D02*
D03*
X200400Y226400D02*
D03*
X279200Y288700D02*
D03*
X301500Y220100D02*
D03*
Y214100D02*
D03*
Y208000D02*
D03*
X349300Y220200D02*
D03*
X349200Y213600D02*
D03*
X349100Y207700D02*
D03*
D57*
X424500Y229500D02*
D03*
X124000D02*
D03*
X424500Y418500D02*
D03*
X124000D02*
D03*
M02*
