G04 Layer_Color=16711935*
%FSLAX25Y25*%
%MOIN*%
G70*
G01*
G75*
%ADD83R,0.06706X0.05918*%
%ADD84R,0.05918X0.06706*%
%ADD88O,0.13800X0.08800*%
G04:AMPARAMS|DCode=89|XSize=138mil|YSize=88mil|CornerRadius=14mil|HoleSize=0mil|Usage=FLASHONLY|Rotation=0.000|XOffset=0mil|YOffset=0mil|HoleType=Round|Shape=RoundedRectangle|*
%AMROUNDEDRECTD89*
21,1,0.13800,0.06000,0,0,0.0*
21,1,0.11000,0.08800,0,0,0.0*
1,1,0.02800,0.05500,-0.03000*
1,1,0.02800,-0.05500,-0.03000*
1,1,0.02800,-0.05500,0.03000*
1,1,0.02800,0.05500,0.03000*
%
%ADD89ROUNDEDRECTD89*%
%ADD90R,0.06312X0.20485*%
G04:AMPARAMS|DCode=94|XSize=78.87mil|YSize=55.24mil|CornerRadius=9.91mil|HoleSize=0mil|Usage=FLASHONLY|Rotation=90.000|XOffset=0mil|YOffset=0mil|HoleType=Round|Shape=RoundedRectangle|*
%AMROUNDEDRECTD94*
21,1,0.07887,0.03543,0,0,90.0*
21,1,0.05906,0.05524,0,0,90.0*
1,1,0.01981,0.01772,0.02953*
1,1,0.01981,0.01772,-0.02953*
1,1,0.01981,-0.01772,-0.02953*
1,1,0.01981,-0.01772,0.02953*
%
%ADD94ROUNDEDRECTD94*%
G04:AMPARAMS|DCode=102|XSize=63.12mil|YSize=47.37mil|CornerRadius=8.92mil|HoleSize=0mil|Usage=FLASHONLY|Rotation=90.000|XOffset=0mil|YOffset=0mil|HoleType=Round|Shape=RoundedRectangle|*
%AMROUNDEDRECTD102*
21,1,0.06312,0.02953,0,0,90.0*
21,1,0.04528,0.04737,0,0,90.0*
1,1,0.01784,0.01476,0.02264*
1,1,0.01784,0.01476,-0.02264*
1,1,0.01784,-0.01476,-0.02264*
1,1,0.01784,-0.01476,0.02264*
%
%ADD102ROUNDEDRECTD102*%
%ADD105P,0.06832X8X292.5*%
%ADD106C,0.06312*%
%ADD107C,0.11824*%
%ADD108C,0.07099*%
%ADD109R,0.06706X0.06706*%
%ADD110C,0.06706*%
%ADD111P,0.09815X8X112.5*%
%ADD112P,0.09815X8X22.5*%
%ADD113R,0.06706X0.06706*%
G04:AMPARAMS|DCode=114|XSize=108mil|YSize=108mil|CornerRadius=16.5mil|HoleSize=0mil|Usage=FLASHONLY|Rotation=0.000|XOffset=0mil|YOffset=0mil|HoleType=Round|Shape=RoundedRectangle|*
%AMROUNDEDRECTD114*
21,1,0.10800,0.07500,0,0,0.0*
21,1,0.07500,0.10800,0,0,0.0*
1,1,0.03300,0.03750,-0.03750*
1,1,0.03300,-0.03750,-0.03750*
1,1,0.03300,-0.03750,0.03750*
1,1,0.03300,0.03750,0.03750*
%
%ADD114ROUNDEDRECTD114*%
%ADD115C,0.10800*%
G04:AMPARAMS|DCode=116|XSize=102.49mil|YSize=70.99mil|CornerRadius=19.75mil|HoleSize=0mil|Usage=FLASHONLY|Rotation=0.000|XOffset=0mil|YOffset=0mil|HoleType=Round|Shape=RoundedRectangle|*
%AMROUNDEDRECTD116*
21,1,0.10249,0.03150,0,0,0.0*
21,1,0.06299,0.07099,0,0,0.0*
1,1,0.03950,0.03150,-0.01575*
1,1,0.03950,-0.03150,-0.01575*
1,1,0.03950,-0.03150,0.01575*
1,1,0.03950,0.03150,0.01575*
%
%ADD116ROUNDEDRECTD116*%
%ADD117C,0.06800*%
G04:AMPARAMS|DCode=118|XSize=68mil|YSize=68mil|CornerRadius=11.5mil|HoleSize=0mil|Usage=FLASHONLY|Rotation=0.000|XOffset=0mil|YOffset=0mil|HoleType=Round|Shape=RoundedRectangle|*
%AMROUNDEDRECTD118*
21,1,0.06800,0.04500,0,0,0.0*
21,1,0.04500,0.06800,0,0,0.0*
1,1,0.02300,0.02250,-0.02250*
1,1,0.02300,-0.02250,-0.02250*
1,1,0.02300,-0.02250,0.02250*
1,1,0.02300,0.02250,0.02250*
%
%ADD118ROUNDEDRECTD118*%
G04:AMPARAMS|DCode=119|XSize=63.12mil|YSize=47.37mil|CornerRadius=8.92mil|HoleSize=0mil|Usage=FLASHONLY|Rotation=0.000|XOffset=0mil|YOffset=0mil|HoleType=Round|Shape=RoundedRectangle|*
%AMROUNDEDRECTD119*
21,1,0.06312,0.02953,0,0,0.0*
21,1,0.04528,0.04737,0,0,0.0*
1,1,0.01784,0.02264,-0.01476*
1,1,0.01784,-0.02264,-0.01476*
1,1,0.01784,-0.02264,0.01476*
1,1,0.01784,0.02264,0.01476*
%
%ADD119ROUNDEDRECTD119*%
%ADD120O,0.09461X0.03162*%
%ADD121O,0.03162X0.09461*%
D83*
X315500Y262760D02*
D03*
Y270240D02*
D03*
X307900Y323740D02*
D03*
Y316260D02*
D03*
X271900Y295940D02*
D03*
Y288460D02*
D03*
D84*
X222260Y277000D02*
D03*
X229740D02*
D03*
X229740Y287500D02*
D03*
X222260D02*
D03*
X239260Y302000D02*
D03*
X246740D02*
D03*
X267260Y231500D02*
D03*
X274740D02*
D03*
X290260Y323000D02*
D03*
X297740D02*
D03*
X307240Y288500D02*
D03*
X299760D02*
D03*
X239260Y262500D02*
D03*
X246740D02*
D03*
X421960Y298200D02*
D03*
X429440D02*
D03*
X239340Y219400D02*
D03*
X231860D02*
D03*
D88*
X437500Y248000D02*
D03*
D89*
Y258000D02*
D03*
D90*
X308768Y213843D02*
D03*
X342232D02*
D03*
D94*
X257000Y231882D02*
D03*
Y242118D02*
D03*
X229000Y296882D02*
D03*
Y307118D02*
D03*
X222500Y265618D02*
D03*
Y255382D02*
D03*
D102*
X394043Y373000D02*
D03*
X386957D02*
D03*
X375457Y357000D02*
D03*
X382543D02*
D03*
X351043Y380600D02*
D03*
X343957D02*
D03*
X351043Y343600D02*
D03*
X343957D02*
D03*
X299543Y297500D02*
D03*
X292457D02*
D03*
X276457Y265500D02*
D03*
X283543D02*
D03*
X291543Y288500D02*
D03*
X284457D02*
D03*
X238957Y252500D02*
D03*
X246043D02*
D03*
D105*
X351000Y371706D02*
D03*
D106*
Y352494D02*
D03*
X152000Y427500D02*
D03*
X172000D02*
D03*
X162000D02*
D03*
D107*
X223000Y409500D02*
D03*
X222972Y354500D02*
D03*
D108*
X252500Y392000D02*
D03*
Y372000D02*
D03*
Y382059D02*
D03*
X183000Y213500D02*
D03*
Y223500D02*
D03*
X112500Y324500D02*
D03*
Y334500D02*
D03*
X157500Y213500D02*
D03*
Y223500D02*
D03*
D109*
X439000Y288900D02*
D03*
X439500Y395000D02*
D03*
X318500Y370500D02*
D03*
D110*
X439000Y298900D02*
D03*
Y308900D02*
D03*
Y318900D02*
D03*
Y328900D02*
D03*
Y338900D02*
D03*
Y348900D02*
D03*
Y358900D02*
D03*
X439500Y385000D02*
D03*
Y375000D02*
D03*
X256500Y217500D02*
D03*
X318500Y360500D02*
D03*
Y350500D02*
D03*
X328500Y370500D02*
D03*
Y360500D02*
D03*
Y350500D02*
D03*
X334500Y431500D02*
D03*
X344500D02*
D03*
X354500D02*
D03*
X364500D02*
D03*
X384500D02*
D03*
X374500D02*
D03*
D111*
X401158Y269620D02*
D03*
X383442D02*
D03*
X401158Y297180D02*
D03*
X383442D02*
D03*
D112*
X262720Y339142D02*
D03*
Y356858D02*
D03*
X290280Y339142D02*
D03*
Y356858D02*
D03*
D113*
X266500Y217500D02*
D03*
X394500Y431500D02*
D03*
D114*
X117000Y376500D02*
D03*
D115*
Y391500D02*
D03*
D116*
X123366Y297079D02*
D03*
Y256921D02*
D03*
X108799D02*
D03*
Y297079D02*
D03*
D117*
X440000Y248000D02*
D03*
D118*
Y258000D02*
D03*
D119*
X369500Y371043D02*
D03*
Y363957D02*
D03*
X395000Y353957D02*
D03*
Y361043D02*
D03*
X332000Y296457D02*
D03*
Y303543D02*
D03*
X321000D02*
D03*
Y296457D02*
D03*
X260500Y262957D02*
D03*
Y270043D02*
D03*
D120*
X258949Y292000D02*
D03*
Y287000D02*
D03*
Y282000D02*
D03*
Y277000D02*
D03*
X240051Y292000D02*
D03*
Y287000D02*
D03*
Y282000D02*
D03*
Y277000D02*
D03*
D121*
X305500Y256051D02*
D03*
X300500D02*
D03*
X295500D02*
D03*
X290500D02*
D03*
X305500Y274949D02*
D03*
X300500D02*
D03*
X295500D02*
D03*
X290500D02*
D03*
M02*
