G04 Layer_Color=128*
%FSLAX25Y25*%
%MOIN*%
G70*
G01*
G75*
%ADD35C,0.01000*%
%ADD129C,0.00200*%
D35*
X325508Y321083D02*
Y323083D01*
X324508Y322083D02*
X326508D01*
D129*
X349425Y371706D02*
X352575D01*
X351000Y370131D02*
Y373281D01*
X349425Y352494D02*
X352575D01*
X351000Y350919D02*
Y354068D01*
X219063Y409500D02*
X226937D01*
X223000Y405563D02*
Y413437D01*
X219035Y354500D02*
X226909D01*
X222972Y350563D02*
Y358437D01*
X250532Y392000D02*
X254468D01*
X252500Y390032D02*
Y393969D01*
X250532Y372000D02*
X254468D01*
X252500Y370031D02*
Y373969D01*
X250532Y382059D02*
X254468D01*
X252500Y380091D02*
Y384028D01*
X437228Y288900D02*
X440772D01*
X439000Y287128D02*
Y290672D01*
X437228Y298900D02*
X440772D01*
X439000Y297128D02*
Y300672D01*
X437228Y308900D02*
X440772D01*
X439000Y307128D02*
Y310672D01*
X437228Y318900D02*
X440772D01*
X439000Y317128D02*
Y320672D01*
X437228Y328900D02*
X440772D01*
X439000Y327128D02*
Y330672D01*
X437228Y338900D02*
X440772D01*
X439000Y337128D02*
Y340672D01*
X437228Y348900D02*
X440772D01*
X439000Y347128D02*
Y350672D01*
X437228Y358900D02*
X440772D01*
X439000Y357128D02*
Y360672D01*
X399258Y269620D02*
X403058D01*
X401158Y267721D02*
Y271520D01*
X381542Y269620D02*
X385342D01*
X383442Y267721D02*
Y271520D01*
X399258Y297180D02*
X403058D01*
X401158Y295280D02*
Y299079D01*
X381542Y297180D02*
X385342D01*
X383442Y295280D02*
Y299079D01*
X260821Y339142D02*
X264620D01*
X262720Y337242D02*
Y341042D01*
X260821Y356858D02*
X264620D01*
X262720Y354958D02*
Y358758D01*
X288380Y339142D02*
X292179D01*
X290280Y337242D02*
Y341042D01*
X288380Y356858D02*
X292179D01*
X290280Y354958D02*
Y358758D01*
X437728Y395000D02*
X441272D01*
X439500Y393228D02*
Y396772D01*
X437728Y385000D02*
X441272D01*
X439500Y383228D02*
Y386772D01*
X437728Y375000D02*
X441272D01*
X439500Y373228D02*
Y376772D01*
X264728Y217500D02*
X268272D01*
X266500Y215728D02*
Y219272D01*
X254728Y217500D02*
X258272D01*
X256500Y215728D02*
Y219272D01*
X181032Y213500D02*
X184968D01*
X183000Y211531D02*
Y215469D01*
X181032Y223500D02*
X184968D01*
X183000Y221532D02*
Y225468D01*
X110531Y324500D02*
X114469D01*
X112500Y322532D02*
Y326468D01*
X110531Y334500D02*
X114469D01*
X112500Y332531D02*
Y336469D01*
X155532Y213500D02*
X159468D01*
X157500Y211531D02*
Y215469D01*
X155532Y223500D02*
X159468D01*
X157500Y221532D02*
Y225468D01*
X114400Y376500D02*
X119600D01*
X117000Y373900D02*
Y379100D01*
X114400Y391500D02*
X119600D01*
X117000Y388900D02*
Y394100D01*
X121791Y297079D02*
X124941D01*
X123366Y295504D02*
Y298654D01*
X121791Y256921D02*
X124941D01*
X123366Y255346D02*
Y258496D01*
X107224Y256921D02*
X110374D01*
X108799Y255346D02*
Y258496D01*
X107224Y297079D02*
X110374D01*
X108799Y295504D02*
Y298654D01*
X438100Y248000D02*
X441900D01*
X440000Y246100D02*
Y249900D01*
X438100Y258000D02*
X441900D01*
X440000Y256100D02*
Y259900D01*
X316728Y370500D02*
X320272D01*
X318500Y368728D02*
Y372272D01*
X316728Y360500D02*
X320272D01*
X318500Y358728D02*
Y362272D01*
X316728Y350500D02*
X320272D01*
X318500Y348728D02*
Y352272D01*
X326728Y370500D02*
X330272D01*
X328500Y368728D02*
Y372272D01*
X326728Y360500D02*
X330272D01*
X328500Y358728D02*
Y362272D01*
X326728Y350500D02*
X330272D01*
X328500Y348728D02*
Y352272D01*
X150425Y427500D02*
X153575D01*
X152000Y425925D02*
Y429075D01*
X170425Y427500D02*
X173575D01*
X172000Y425925D02*
Y429075D01*
X160425Y427500D02*
X163575D01*
X162000Y425925D02*
Y429075D01*
X332728Y431500D02*
X336272D01*
X334500Y429728D02*
Y433272D01*
X342728Y431500D02*
X346272D01*
X344500Y429728D02*
Y433272D01*
X352728Y431500D02*
X356272D01*
X354500Y429728D02*
Y433272D01*
X362728Y431500D02*
X366272D01*
X364500Y429728D02*
Y433272D01*
X382728Y431500D02*
X386272D01*
X384500Y429728D02*
Y433272D01*
X392728Y431500D02*
X396272D01*
X394500Y429728D02*
Y433272D01*
X372728Y431500D02*
X376272D01*
X374500Y429728D02*
Y433272D01*
X358209Y355800D02*
X359390D01*
X358800Y355209D02*
Y356391D01*
X418595Y229500D02*
X430406D01*
X424500Y223594D02*
Y235405D01*
X118095Y229500D02*
X129905D01*
X124000Y223594D02*
Y235405D01*
X418595Y418500D02*
X430406D01*
X424500Y412595D02*
Y424405D01*
X118095Y418500D02*
X129905D01*
X124000Y412595D02*
Y424405D01*
X129291Y282118D02*
X130472D01*
X129882Y281528D02*
Y282709D01*
X137409Y309000D02*
X138591D01*
X138000Y308410D02*
Y309591D01*
X137409Y304500D02*
X138591D01*
X138000Y303909D02*
Y305090D01*
X137409Y300000D02*
X138591D01*
X138000Y299410D02*
Y300590D01*
X135472Y257563D02*
X136653D01*
X136063Y256972D02*
Y258154D01*
X164909Y404500D02*
X166091D01*
X165500Y403909D02*
Y405091D01*
X167909Y404500D02*
X169091D01*
X168500Y403909D02*
Y405091D01*
X170909Y404500D02*
X172091D01*
X171500Y403909D02*
Y405091D01*
X170409Y408000D02*
X171591D01*
X171000Y407409D02*
Y408591D01*
X173909Y408000D02*
X175091D01*
X174500Y407409D02*
Y408591D01*
X173909Y404500D02*
X175091D01*
X174500Y403909D02*
Y405091D01*
X161409Y386500D02*
X162591D01*
X162000Y385910D02*
Y387090D01*
X184009Y392800D02*
X185191D01*
X184600Y392210D02*
Y393390D01*
X184109Y388600D02*
X185291D01*
X184700Y388010D02*
Y389191D01*
X179809Y388400D02*
X180991D01*
X180400Y387809D02*
Y388990D01*
X157169Y415340D02*
X158350D01*
X157760Y414750D02*
Y415931D01*
X164109Y339000D02*
X165291D01*
X164700Y338409D02*
Y339591D01*
X159209Y328300D02*
X160391D01*
X159800Y327710D02*
Y328890D01*
X169709Y312500D02*
X170891D01*
X170300Y311910D02*
Y313090D01*
X169709Y309000D02*
X170891D01*
X170300Y308410D02*
Y309591D01*
X151009Y359500D02*
X152191D01*
X151600Y358910D02*
Y360090D01*
X141509Y230500D02*
X142691D01*
X142100Y229909D02*
Y231090D01*
X149609Y332600D02*
X150791D01*
X150200Y332010D02*
Y333190D01*
X151209Y334500D02*
X152391D01*
X151800Y333910D02*
Y335090D01*
X184449Y354331D02*
X185630D01*
X185039Y353740D02*
Y354922D01*
X184449Y358268D02*
X185630D01*
X185039Y357677D02*
Y358858D01*
X188386Y346457D02*
X189567D01*
X188977Y345866D02*
Y347047D01*
X188386Y350394D02*
X189567D01*
X188977Y349803D02*
Y350984D01*
X188386Y354331D02*
X189567D01*
X188977Y353740D02*
Y354922D01*
X188386Y358268D02*
X189567D01*
X188977Y357677D02*
Y358858D01*
X192323Y346457D02*
X193504D01*
X192913Y345866D02*
Y347047D01*
X192323Y350394D02*
X193504D01*
X192913Y349803D02*
Y350984D01*
X192323Y354331D02*
X193504D01*
X192913Y353740D02*
Y354922D01*
X192323Y358268D02*
X193504D01*
X192913Y357677D02*
Y358858D01*
X349803Y314961D02*
X350984D01*
X350394Y314370D02*
Y315551D01*
X353740Y311024D02*
X354922D01*
X354331Y310433D02*
Y311614D01*
X353740Y314961D02*
X354922D01*
X354331Y314370D02*
Y315551D01*
X357677Y311024D02*
X358858D01*
X358268Y310433D02*
Y311614D01*
X357677Y314961D02*
X358858D01*
X358268Y314370D02*
Y315551D01*
X361614Y311024D02*
X362795D01*
X362205Y310433D02*
Y311614D01*
X361614Y314961D02*
X362795D01*
X362205Y314370D02*
Y315551D01*
X365551Y311024D02*
X366733D01*
X366142Y310433D02*
Y311614D01*
X365551Y314961D02*
X366733D01*
X366142Y314370D02*
Y315551D01*
X369488Y311024D02*
X370670D01*
X370079Y310433D02*
Y311614D01*
X369488Y314961D02*
X370670D01*
X370079Y314370D02*
Y315551D01*
X398110Y346100D02*
X399290D01*
X398700Y345510D02*
Y346691D01*
X370309Y377800D02*
X371491D01*
X370900Y377209D02*
Y378391D01*
X343366Y371057D02*
X344547D01*
X343957Y370466D02*
Y371647D01*
X343366Y352643D02*
X344547D01*
X343957Y352053D02*
Y353234D01*
X375609Y364000D02*
X376790D01*
X376200Y363409D02*
Y364591D01*
X386210Y368800D02*
X387390D01*
X386800Y368210D02*
Y369391D01*
X381410Y386900D02*
X382591D01*
X382000Y386310D02*
Y387491D01*
X386109Y386500D02*
X387291D01*
X386700Y385910D02*
Y387090D01*
X386409Y356100D02*
X387591D01*
X387000Y355509D02*
Y356691D01*
X378309Y384900D02*
X379490D01*
X378900Y384310D02*
Y385490D01*
X360310Y360700D02*
X361491D01*
X360900Y360109D02*
Y361291D01*
X158409Y282500D02*
X159591D01*
X159000Y281909D02*
Y283090D01*
X158009Y273400D02*
X159191D01*
X158600Y272810D02*
Y273991D01*
X410310Y365600D02*
X411490D01*
X410900Y365009D02*
Y366191D01*
X408810Y367900D02*
X409991D01*
X409400Y367309D02*
Y368491D01*
X219009Y229000D02*
X220191D01*
X219600Y228410D02*
Y229591D01*
X219609Y333900D02*
X220791D01*
X220200Y333310D02*
Y334490D01*
X254710Y310400D02*
X255890D01*
X255300Y309809D02*
Y310991D01*
X357809Y293300D02*
X358991D01*
X358400Y292709D02*
Y293891D01*
X357809Y289100D02*
X358991D01*
X358400Y288509D02*
Y289690D01*
X357509Y275100D02*
X358691D01*
X358100Y274510D02*
Y275691D01*
X357410Y270800D02*
X358591D01*
X358000Y270210D02*
Y271391D01*
X194409Y334500D02*
X195591D01*
X195000Y333910D02*
Y335090D01*
X233010Y308300D02*
X234191D01*
X233600Y307710D02*
Y308891D01*
X238509Y306900D02*
X239690D01*
X239100Y306310D02*
Y307490D01*
X238910Y296200D02*
X240090D01*
X239500Y295609D02*
Y296791D01*
X222810Y292600D02*
X223991D01*
X223400Y292009D02*
Y293191D01*
X271410Y265300D02*
X272590D01*
X272000Y264709D02*
Y265891D01*
X259610Y258900D02*
X260790D01*
X260200Y258310D02*
Y259490D01*
X295810Y248700D02*
X296990D01*
X296400Y248110D02*
Y249290D01*
X299909Y248800D02*
X301091D01*
X300500Y248210D02*
Y249391D01*
X280010Y231400D02*
X281190D01*
X280600Y230809D02*
Y231991D01*
X331310Y291300D02*
X332490D01*
X331900Y290709D02*
Y291891D01*
X320110Y291400D02*
X321290D01*
X320700Y290809D02*
Y291990D01*
X296810Y315500D02*
X297990D01*
X297400Y314910D02*
Y316090D01*
X300909Y315600D02*
X302091D01*
X301500Y315009D02*
Y316191D01*
X412810Y286900D02*
X413990D01*
X413400Y286310D02*
Y287491D01*
X382109Y339800D02*
X383291D01*
X382700Y339210D02*
Y340390D01*
X385809Y340200D02*
X386990D01*
X386400Y339610D02*
Y340791D01*
X271709Y385900D02*
X272890D01*
X272300Y385310D02*
Y386491D01*
X271709Y376900D02*
X272890D01*
X272300Y376309D02*
Y377490D01*
X307310Y332100D02*
X308490D01*
X307900Y331509D02*
Y332691D01*
X129209Y286400D02*
X130391D01*
X129800Y285809D02*
Y286990D01*
X128709Y289600D02*
X129891D01*
X129300Y289009D02*
Y290191D01*
X124209Y290300D02*
X125391D01*
X124800Y289709D02*
Y290891D01*
X129009Y267900D02*
X130191D01*
X129600Y267309D02*
Y268491D01*
X128609Y264300D02*
X129791D01*
X129200Y263709D02*
Y264891D01*
X124309Y263100D02*
X125491D01*
X124900Y262509D02*
Y263690D01*
X374609Y372100D02*
X375791D01*
X375200Y371510D02*
Y372691D01*
X392709Y339600D02*
X393891D01*
X393300Y339009D02*
Y340191D01*
X381909Y362300D02*
X383090D01*
X382500Y361709D02*
Y362891D01*
X399710Y376100D02*
X400890D01*
X400300Y375510D02*
Y376691D01*
X393910Y365200D02*
X395091D01*
X394500Y364610D02*
Y365791D01*
X254209Y271700D02*
X255391D01*
X254800Y271110D02*
Y272290D01*
X199809Y226400D02*
X200991D01*
X200400Y225810D02*
Y226991D01*
X278609Y288700D02*
X279790D01*
X279200Y288109D02*
Y289290D01*
X300909Y220100D02*
X302091D01*
X301500Y219510D02*
Y220690D01*
X300909Y214100D02*
X302091D01*
X301500Y213509D02*
Y214690D01*
X300909Y208000D02*
X302091D01*
X301500Y207410D02*
Y208591D01*
X348710Y220200D02*
X349890D01*
X349300Y219609D02*
Y220791D01*
X348609Y213600D02*
X349791D01*
X349200Y213010D02*
Y214191D01*
X348510Y207700D02*
X349691D01*
X349100Y207109D02*
Y208291D01*
M02*
