G04 Layer_Color=2752767*
%FSLAX25Y25*%
%MOIN*%
G70*
G01*
G75*
%ADD80C,0.00200*%
%ADD81C,0.00267*%
D80*
X1321842Y1108980D02*
Y1110579D01*
X1323442D01*
Y1108980D01*
X1321842D01*
X1339558D02*
Y1110579D01*
X1341158D01*
Y1108980D01*
X1339558D01*
X1321842Y1081421D02*
Y1083020D01*
X1323442D01*
Y1081421D01*
X1321842D01*
X1339558D02*
Y1083020D01*
X1341158D01*
Y1081421D01*
X1339558D01*
X1491500Y999200D02*
X1490700Y1000800D01*
X1492300D01*
X1491500Y999200D01*
Y1009200D02*
X1490700Y1010800D01*
X1492300D01*
X1491500Y1009200D01*
X1492000Y1033700D02*
X1491200Y1035300D01*
X1492800D01*
X1492000Y1033700D01*
Y1043700D02*
X1491200Y1045300D01*
X1492800D01*
X1492000Y1043700D01*
Y1053700D02*
X1491200Y1055300D01*
X1492800D01*
X1492000Y1053700D01*
Y1063700D02*
X1491200Y1065300D01*
X1492800D01*
X1492000Y1063700D01*
Y1073700D02*
X1491200Y1075300D01*
X1492800D01*
X1492000Y1073700D01*
X1427700Y906200D02*
Y907800D01*
X1429300D01*
Y906200D01*
X1427700D01*
X1417700D02*
Y907800D01*
X1419300D01*
Y906200D01*
X1417700D01*
X1276000Y1131200D02*
X1276400Y1131600D01*
X1276800D01*
X1276400Y1132000D01*
X1276800Y1132400D01*
X1276400D01*
X1276000Y1132800D01*
X1275600Y1132400D01*
X1275200D01*
X1275600Y1132000D01*
X1275200Y1131600D01*
X1275600D01*
X1276000Y1131200D01*
X1286000Y1141200D02*
X1286400Y1141600D01*
X1286800D01*
X1286400Y1142000D01*
X1286800Y1142400D01*
X1286400D01*
X1286000Y1142800D01*
X1285600Y1142400D01*
X1285200D01*
X1285600Y1142000D01*
X1285200Y1141600D01*
X1285600D01*
X1286000Y1141200D01*
X1266000D02*
X1266400Y1141600D01*
X1266800D01*
X1266400Y1142000D01*
X1266800Y1142400D01*
X1266400D01*
X1266000Y1142800D01*
X1265600Y1142400D01*
X1265200D01*
X1265600Y1142000D01*
X1265200Y1141600D01*
X1265600D01*
X1266000Y1141200D01*
X1286000Y1121200D02*
X1286400Y1121600D01*
X1286800D01*
X1286400Y1122000D01*
X1286800Y1122400D01*
X1286400D01*
X1286000Y1122800D01*
X1285600Y1122400D01*
X1285200D01*
X1285600Y1122000D01*
X1285200Y1121600D01*
X1285600D01*
X1286000Y1121200D01*
X1266000D02*
X1266400Y1121600D01*
X1266800D01*
X1266400Y1122000D01*
X1266800Y1122400D01*
X1266400D01*
X1266000Y1122800D01*
X1265600Y1122400D01*
X1265200D01*
X1265600Y1122000D01*
X1265200Y1121600D01*
X1265600D01*
X1266000Y1121200D01*
X1236700Y1130700D02*
X1237100Y1131500D01*
X1236700Y1132300D01*
X1237500Y1131900D01*
X1238300Y1132300D01*
X1237900Y1131500D01*
X1238300Y1130700D01*
X1237500Y1131100D01*
X1236700Y1130700D01*
X1343200Y906700D02*
X1343600Y907500D01*
X1343200Y908300D01*
X1344000Y907900D01*
X1344800Y908300D01*
X1344400Y907500D01*
X1344800Y906700D01*
X1344000Y907100D01*
X1343200Y906700D01*
X1484200D02*
X1484600Y907500D01*
X1484200Y908300D01*
X1485000Y907900D01*
X1485800Y908300D01*
X1485400Y907500D01*
X1485800Y906700D01*
X1485000Y907100D01*
X1484200Y906700D01*
X1420019Y1136311D02*
Y1135911D01*
X1420819D01*
Y1136311D01*
X1421219D01*
Y1137111D01*
X1420819D01*
Y1137511D01*
X1420019D01*
Y1137111D01*
X1419619D01*
Y1136311D01*
X1420019D01*
X1415689D02*
Y1135911D01*
X1416489D01*
Y1136311D01*
X1416889D01*
Y1137111D01*
X1416489D01*
Y1137511D01*
X1415689D01*
Y1137111D01*
X1415289D01*
Y1136311D01*
X1415689D01*
X1411358D02*
Y1135911D01*
X1412158D01*
Y1136311D01*
X1412558D01*
Y1137111D01*
X1412158D01*
Y1137511D01*
X1411358D01*
Y1137111D01*
X1410958D01*
Y1136311D01*
X1411358D01*
X1401100Y1123600D02*
Y1123200D01*
X1401900D01*
Y1123600D01*
X1402300D01*
Y1124400D01*
X1401900D01*
Y1124800D01*
X1401100D01*
Y1124400D01*
X1400700D01*
Y1123600D01*
X1401100D01*
X1390100Y1125100D02*
Y1124700D01*
X1390900D01*
Y1125100D01*
X1391300D01*
Y1125900D01*
X1390900D01*
Y1126300D01*
X1390100D01*
Y1125900D01*
X1389700D01*
Y1125100D01*
X1390100D01*
X1391037Y1136492D02*
Y1136092D01*
X1391836D01*
Y1136492D01*
X1392237D01*
Y1137292D01*
X1391836D01*
Y1137692D01*
X1391037D01*
Y1137292D01*
X1390637D01*
Y1136492D01*
X1391037D01*
X1386706D02*
Y1136092D01*
X1387506D01*
Y1136492D01*
X1387906D01*
Y1137292D01*
X1387506D01*
Y1137692D01*
X1386706D01*
Y1137292D01*
X1386306D01*
Y1136492D01*
X1386706D01*
X1382375D02*
Y1136092D01*
X1383175D01*
Y1136492D01*
X1383575D01*
Y1137292D01*
X1383175D01*
Y1137692D01*
X1382375D01*
Y1137292D01*
X1381975D01*
Y1136492D01*
X1382375D01*
X1380600Y1125100D02*
Y1124700D01*
X1381400D01*
Y1125100D01*
X1381800D01*
Y1125900D01*
X1381400D01*
Y1126300D01*
X1380600D01*
Y1125900D01*
X1380200D01*
Y1125100D01*
X1380600D01*
X1461745Y1140062D02*
Y1139662D01*
X1462545D01*
Y1140062D01*
X1462945D01*
Y1140862D01*
X1462545D01*
Y1141262D01*
X1461745D01*
Y1140862D01*
X1461345D01*
Y1140062D01*
X1461745D01*
X1457414D02*
Y1139662D01*
X1458214D01*
Y1140062D01*
X1458614D01*
Y1140862D01*
X1458214D01*
Y1141262D01*
X1457414D01*
Y1140862D01*
X1457014D01*
Y1140062D01*
X1457414D01*
X1453084D02*
Y1139662D01*
X1453883D01*
Y1140062D01*
X1454284D01*
Y1140862D01*
X1453883D01*
Y1141262D01*
X1453084D01*
Y1140862D01*
X1452684D01*
Y1140062D01*
X1453084D01*
X1448753D02*
Y1139662D01*
X1449553D01*
Y1140062D01*
X1449953D01*
Y1140862D01*
X1449553D01*
Y1141262D01*
X1448753D01*
Y1140862D01*
X1448353D01*
Y1140062D01*
X1448753D01*
X1444423Y1139996D02*
Y1139596D01*
X1445223D01*
Y1139996D01*
X1445623D01*
Y1140796D01*
X1445223D01*
Y1141196D01*
X1444423D01*
Y1140796D01*
X1444023D01*
Y1139996D01*
X1444423D01*
X1440340Y1138552D02*
Y1138152D01*
X1441140D01*
Y1138552D01*
X1441540D01*
Y1139352D01*
X1441140D01*
Y1139752D01*
X1440340D01*
Y1139352D01*
X1439940D01*
Y1138552D01*
X1440340D01*
X1441335Y1124053D02*
Y1123654D01*
X1442135D01*
Y1124053D01*
X1442535D01*
Y1124854D01*
X1442135D01*
Y1125253D01*
X1441335D01*
Y1124854D01*
X1440935D01*
Y1124053D01*
X1441335D01*
X1449899Y1123138D02*
Y1122738D01*
X1450698D01*
Y1123138D01*
X1451099D01*
Y1123938D01*
X1450698D01*
Y1124338D01*
X1449899D01*
Y1123938D01*
X1449498D01*
Y1123138D01*
X1449899D01*
X1454229D02*
Y1122738D01*
X1455029D01*
Y1123138D01*
X1455429D01*
Y1123938D01*
X1455029D01*
Y1124338D01*
X1454229D01*
Y1123938D01*
X1453829D01*
Y1123138D01*
X1454229D01*
X1458560D02*
Y1122738D01*
X1459360D01*
Y1123138D01*
X1459760D01*
Y1123938D01*
X1459360D01*
Y1124338D01*
X1458560D01*
Y1123938D01*
X1458160D01*
Y1123138D01*
X1458560D01*
X1462891D02*
Y1122738D01*
X1463691D01*
Y1123138D01*
X1464091D01*
Y1123938D01*
X1463691D01*
Y1124338D01*
X1462891D01*
Y1123938D01*
X1462491D01*
Y1123138D01*
X1462891D01*
X1465638Y1119790D02*
Y1119390D01*
X1466438D01*
Y1119790D01*
X1466838D01*
Y1120590D01*
X1466438D01*
Y1120990D01*
X1465638D01*
Y1120590D01*
X1465238D01*
Y1119790D01*
X1465638D01*
Y1115459D02*
Y1115059D01*
X1466438D01*
Y1115459D01*
X1466838D01*
Y1116259D01*
X1466438D01*
Y1116659D01*
X1465638D01*
Y1116259D01*
X1465238D01*
Y1115459D01*
X1465638D01*
Y1111129D02*
Y1110729D01*
X1466438D01*
Y1111129D01*
X1466838D01*
Y1111929D01*
X1466438D01*
Y1112329D01*
X1465638D01*
Y1111929D01*
X1465238D01*
Y1111129D01*
X1465638D01*
Y1106798D02*
Y1106398D01*
X1466438D01*
Y1106798D01*
X1466838D01*
Y1107598D01*
X1466438D01*
Y1107998D01*
X1465638D01*
Y1107598D01*
X1465238D01*
Y1106798D01*
X1465638D01*
Y1102467D02*
Y1102067D01*
X1466438D01*
Y1102467D01*
X1466838D01*
Y1103267D01*
X1466438D01*
Y1103667D01*
X1465638D01*
Y1103267D01*
X1465238D01*
Y1102467D01*
X1465638D01*
Y1098137D02*
Y1097737D01*
X1466438D01*
Y1098137D01*
X1466838D01*
Y1098937D01*
X1466438D01*
Y1099337D01*
X1465638D01*
Y1098937D01*
X1465238D01*
Y1098137D01*
X1465638D01*
Y1093806D02*
Y1093406D01*
X1466438D01*
Y1093806D01*
X1466838D01*
Y1094606D01*
X1466438D01*
Y1095006D01*
X1465638D01*
Y1094606D01*
X1465238D01*
Y1093806D01*
X1465638D01*
Y1089475D02*
Y1089075D01*
X1466438D01*
Y1089475D01*
X1466838D01*
Y1090275D01*
X1466438D01*
Y1090675D01*
X1465638D01*
Y1090275D01*
X1465238D01*
Y1089475D01*
X1465638D01*
X1465885Y1085152D02*
Y1084752D01*
X1466685D01*
Y1085152D01*
X1467085D01*
Y1085952D01*
X1466685D01*
Y1086352D01*
X1465885D01*
Y1085952D01*
X1465485D01*
Y1085152D01*
X1465885D01*
X1471246Y1075128D02*
Y1074728D01*
X1472046D01*
Y1075128D01*
X1472446D01*
Y1075928D01*
X1472046D01*
Y1076328D01*
X1471246D01*
Y1075928D01*
X1470846D01*
Y1075128D01*
X1471246D01*
X1474331Y1078168D02*
Y1077768D01*
X1475131D01*
Y1078168D01*
X1475531D01*
Y1078968D01*
X1475131D01*
Y1079368D01*
X1474331D01*
Y1078968D01*
X1473931D01*
Y1078168D01*
X1474331D01*
X1478341Y1079804D02*
Y1079404D01*
X1479141D01*
Y1079804D01*
X1479541D01*
Y1080604D01*
X1479141D01*
Y1081004D01*
X1478341D01*
Y1080604D01*
X1477941D01*
Y1079804D01*
X1478341D01*
X1481401Y1082868D02*
Y1082468D01*
X1482201D01*
Y1082868D01*
X1482601D01*
Y1083668D01*
X1482201D01*
Y1084068D01*
X1481401D01*
Y1083668D01*
X1481001D01*
Y1082868D01*
X1481401D01*
X1482555Y1087042D02*
Y1086642D01*
X1483354D01*
Y1087042D01*
X1483755D01*
Y1087842D01*
X1483354D01*
Y1088242D01*
X1482555D01*
Y1087842D01*
X1482154D01*
Y1087042D01*
X1482555D01*
X1482562Y1091373D02*
Y1090973D01*
X1483362D01*
Y1091373D01*
X1483762D01*
Y1092173D01*
X1483362D01*
Y1092573D01*
X1482562D01*
Y1092173D01*
X1482162D01*
Y1091373D01*
X1482562D01*
Y1095704D02*
Y1095304D01*
X1483362D01*
Y1095704D01*
X1483762D01*
Y1096504D01*
X1483362D01*
Y1096904D01*
X1482562D01*
Y1096504D01*
X1482162D01*
Y1095704D01*
X1482562D01*
Y1100034D02*
Y1099634D01*
X1483362D01*
Y1100034D01*
X1483762D01*
Y1100834D01*
X1483362D01*
Y1101234D01*
X1482562D01*
Y1100834D01*
X1482162D01*
Y1100034D01*
X1482562D01*
Y1104365D02*
Y1103965D01*
X1483362D01*
Y1104365D01*
X1483762D01*
Y1105165D01*
X1483362D01*
Y1105565D01*
X1482562D01*
Y1105165D01*
X1482162D01*
Y1104365D01*
X1482562D01*
Y1108696D02*
Y1108296D01*
X1483362D01*
Y1108696D01*
X1483762D01*
Y1109496D01*
X1483362D01*
Y1109896D01*
X1482562D01*
Y1109496D01*
X1482162D01*
Y1108696D01*
X1482562D01*
Y1113026D02*
Y1112626D01*
X1483362D01*
Y1113026D01*
X1483762D01*
Y1113826D01*
X1483362D01*
Y1114226D01*
X1482562D01*
Y1113826D01*
X1482162D01*
Y1113026D01*
X1482562D01*
Y1117357D02*
Y1116957D01*
X1483362D01*
Y1117357D01*
X1483762D01*
Y1118157D01*
X1483362D01*
Y1118557D01*
X1482562D01*
Y1118157D01*
X1482162D01*
Y1117357D01*
X1482562D01*
Y1121688D02*
Y1121288D01*
X1483362D01*
Y1121688D01*
X1483762D01*
Y1122488D01*
X1483362D01*
Y1122888D01*
X1482562D01*
Y1122488D01*
X1482162D01*
Y1121688D01*
X1482562D01*
X1482324Y1126012D02*
Y1125612D01*
X1483124D01*
Y1126012D01*
X1483524D01*
Y1126812D01*
X1483124D01*
Y1127212D01*
X1482324D01*
Y1126812D01*
X1481924D01*
Y1126012D01*
X1482324D01*
X1480296Y1129838D02*
Y1129438D01*
X1481096D01*
Y1129838D01*
X1481496D01*
Y1130638D01*
X1481096D01*
Y1131038D01*
X1480296D01*
Y1130638D01*
X1479896D01*
Y1129838D01*
X1480296D01*
X1477250Y1132917D02*
Y1132517D01*
X1478050D01*
Y1132917D01*
X1478450D01*
Y1133717D01*
X1478050D01*
Y1134117D01*
X1477250D01*
Y1133717D01*
X1476850D01*
Y1132917D01*
X1477250D01*
X1474188Y1135979D02*
Y1135579D01*
X1474988D01*
Y1135979D01*
X1475388D01*
Y1136779D01*
X1474988D01*
Y1137179D01*
X1474188D01*
Y1136779D01*
X1473788D01*
Y1135979D01*
X1474188D01*
X1470937Y1138840D02*
Y1138440D01*
X1471737D01*
Y1138840D01*
X1472137D01*
Y1139640D01*
X1471737D01*
Y1140040D01*
X1470937D01*
Y1139640D01*
X1470537D01*
Y1138840D01*
X1470937D01*
X1466776Y1140039D02*
Y1139639D01*
X1467576D01*
Y1140039D01*
X1467976D01*
Y1140839D01*
X1467576D01*
Y1141239D01*
X1466776D01*
Y1140839D01*
X1466376D01*
Y1140039D01*
X1466776D01*
X1348297Y1140562D02*
Y1140162D01*
X1349097D01*
Y1140562D01*
X1349497D01*
Y1141362D01*
X1349097D01*
Y1141762D01*
X1348297D01*
Y1141362D01*
X1347897D01*
Y1140562D01*
X1348297D01*
X1343966D02*
Y1140162D01*
X1344766D01*
Y1140562D01*
X1345166D01*
Y1141362D01*
X1344766D01*
Y1141762D01*
X1343966D01*
Y1141362D01*
X1343566D01*
Y1140562D01*
X1343966D01*
X1339636D02*
Y1140162D01*
X1340436D01*
Y1140562D01*
X1340836D01*
Y1141362D01*
X1340436D01*
Y1141762D01*
X1339636D01*
Y1141362D01*
X1339236D01*
Y1140562D01*
X1339636D01*
X1335305D02*
Y1140162D01*
X1336105D01*
Y1140562D01*
X1336505D01*
Y1141362D01*
X1336105D01*
Y1141762D01*
X1335305D01*
Y1141362D01*
X1334905D01*
Y1140562D01*
X1335305D01*
X1330974D02*
Y1140162D01*
X1331774D01*
Y1140562D01*
X1332174D01*
Y1141362D01*
X1331774D01*
Y1141762D01*
X1330974D01*
Y1141362D01*
X1330574D01*
Y1140562D01*
X1330974D01*
X1326644D02*
Y1140162D01*
X1327444D01*
Y1140562D01*
X1327844D01*
Y1141362D01*
X1327444D01*
Y1141762D01*
X1326644D01*
Y1141362D01*
X1326244D01*
Y1140562D01*
X1326644D01*
X1322313D02*
Y1140162D01*
X1323113D01*
Y1140562D01*
X1323513D01*
Y1141362D01*
X1323113D01*
Y1141762D01*
X1322313D01*
Y1141362D01*
X1321913D01*
Y1140562D01*
X1322313D01*
X1317982D02*
Y1140162D01*
X1318782D01*
Y1140562D01*
X1319182D01*
Y1141362D01*
X1318782D01*
Y1141762D01*
X1317982D01*
Y1141362D01*
X1317582D01*
Y1140562D01*
X1317982D01*
X1313651D02*
Y1140162D01*
X1314452D01*
Y1140562D01*
X1314851D01*
Y1141362D01*
X1314452D01*
Y1141762D01*
X1313651D01*
Y1141362D01*
X1313251D01*
Y1140562D01*
X1313651D01*
X1309321D02*
Y1140162D01*
X1310121D01*
Y1140562D01*
X1310521D01*
Y1141362D01*
X1310121D01*
Y1141762D01*
X1309321D01*
Y1141362D01*
X1308921D01*
Y1140562D01*
X1309321D01*
X1304990D02*
Y1140162D01*
X1305790D01*
Y1140562D01*
X1306190D01*
Y1141362D01*
X1305790D01*
Y1141762D01*
X1304990D01*
Y1141362D01*
X1304590D01*
Y1140562D01*
X1304990D01*
X1300659D02*
Y1140162D01*
X1301459D01*
Y1140562D01*
X1301859D01*
Y1141362D01*
X1301459D01*
Y1141762D01*
X1300659D01*
Y1141362D01*
X1300259D01*
Y1140562D01*
X1300659D01*
X1296329D02*
Y1140162D01*
X1297129D01*
Y1140562D01*
X1297529D01*
Y1141362D01*
X1297129D01*
Y1141762D01*
X1296329D01*
Y1141362D01*
X1295929D01*
Y1140562D01*
X1296329D01*
X1294034Y1123638D02*
Y1123238D01*
X1294834D01*
Y1123638D01*
X1295234D01*
Y1124438D01*
X1294834D01*
Y1124838D01*
X1294034D01*
Y1124438D01*
X1293634D01*
Y1123638D01*
X1294034D01*
X1298365D02*
Y1123238D01*
X1299165D01*
Y1123638D01*
X1299565D01*
Y1124438D01*
X1299165D01*
Y1124838D01*
X1298365D01*
Y1124438D01*
X1297965D01*
Y1123638D01*
X1298365D01*
X1302695D02*
Y1123238D01*
X1303495D01*
Y1123638D01*
X1303895D01*
Y1124438D01*
X1303495D01*
Y1124838D01*
X1302695D01*
Y1124438D01*
X1302295D01*
Y1123638D01*
X1302695D01*
X1307026D02*
Y1123238D01*
X1307826D01*
Y1123638D01*
X1308226D01*
Y1124438D01*
X1307826D01*
Y1124838D01*
X1307026D01*
Y1124438D01*
X1306626D01*
Y1123638D01*
X1307026D01*
X1311357D02*
Y1123238D01*
X1312157D01*
Y1123638D01*
X1312557D01*
Y1124438D01*
X1312157D01*
Y1124838D01*
X1311357D01*
Y1124438D01*
X1310957D01*
Y1123638D01*
X1311357D01*
X1315687D02*
Y1123238D01*
X1316487D01*
Y1123638D01*
X1316887D01*
Y1124438D01*
X1316487D01*
Y1124838D01*
X1315687D01*
Y1124438D01*
X1315287D01*
Y1123638D01*
X1315687D01*
X1320018D02*
Y1123238D01*
X1320818D01*
Y1123638D01*
X1321218D01*
Y1124438D01*
X1320818D01*
Y1124838D01*
X1320018D01*
Y1124438D01*
X1319618D01*
Y1123638D01*
X1320018D01*
X1324349D02*
Y1123238D01*
X1325149D01*
Y1123638D01*
X1325549D01*
Y1124438D01*
X1325149D01*
Y1124838D01*
X1324349D01*
Y1124438D01*
X1323949D01*
Y1123638D01*
X1324349D01*
X1328679D02*
Y1123238D01*
X1329480D01*
Y1123638D01*
X1329879D01*
Y1124438D01*
X1329480D01*
Y1124838D01*
X1328679D01*
Y1124438D01*
X1328279D01*
Y1123638D01*
X1328679D01*
X1333010D02*
Y1123238D01*
X1333810D01*
Y1123638D01*
X1334210D01*
Y1124438D01*
X1333810D01*
Y1124838D01*
X1333010D01*
Y1124438D01*
X1332610D01*
Y1123638D01*
X1333010D01*
X1337341D02*
Y1123238D01*
X1338141D01*
Y1123638D01*
X1338541D01*
Y1124438D01*
X1338141D01*
Y1124838D01*
X1337341D01*
Y1124438D01*
X1336941D01*
Y1123638D01*
X1337341D01*
X1341672D02*
Y1123238D01*
X1342472D01*
Y1123638D01*
X1342872D01*
Y1124438D01*
X1342472D01*
Y1124838D01*
X1341672D01*
Y1124438D01*
X1341272D01*
Y1123638D01*
X1341672D01*
X1346002D02*
Y1123238D01*
X1346802D01*
Y1123638D01*
X1347202D01*
Y1124438D01*
X1346802D01*
Y1124838D01*
X1346002D01*
Y1124438D01*
X1345602D01*
Y1123638D01*
X1346002D01*
X1350333D02*
Y1123238D01*
X1351133D01*
Y1123638D01*
X1351533D01*
Y1124438D01*
X1351133D01*
Y1124838D01*
X1350333D01*
Y1124438D01*
X1349933D01*
Y1123638D01*
X1350333D01*
X1358837Y1124802D02*
Y1124402D01*
X1359637D01*
Y1124802D01*
X1360037D01*
Y1125602D01*
X1359637D01*
Y1126002D01*
X1358837D01*
Y1125602D01*
X1358437D01*
Y1124802D01*
X1358837D01*
X1358937Y1139340D02*
Y1138940D01*
X1359737D01*
Y1139340D01*
X1360137D01*
Y1140140D01*
X1359737D01*
Y1140540D01*
X1358937D01*
Y1140140D01*
X1358537D01*
Y1139340D01*
X1358937D01*
X1354776Y1140539D02*
Y1140139D01*
X1355576D01*
Y1140539D01*
X1355976D01*
Y1141339D01*
X1355576D01*
Y1141739D01*
X1354776D01*
Y1141339D01*
X1354376D01*
Y1140539D01*
X1354776D01*
X1445700Y1117200D02*
X1446100D01*
X1446500Y1117600D01*
X1446900Y1117200D01*
X1447300D01*
Y1117600D01*
X1446900Y1118000D01*
X1447300Y1118400D01*
Y1118800D01*
X1446900D01*
X1446500Y1118400D01*
X1446100Y1118800D01*
X1445700D01*
Y1118400D01*
X1446100Y1118000D01*
X1445700Y1117600D01*
Y1117200D01*
X1415700Y1120200D02*
X1416100D01*
X1416500Y1120600D01*
X1416900Y1120200D01*
X1417300D01*
Y1120600D01*
X1416900Y1121000D01*
X1417300Y1121400D01*
Y1121800D01*
X1416900D01*
X1416500Y1121400D01*
X1416100Y1121800D01*
X1415700D01*
Y1121400D01*
X1416100Y1121000D01*
X1415700Y1120600D01*
Y1120200D01*
X1384700D02*
X1385100D01*
X1385500Y1120600D01*
X1385900Y1120200D01*
X1386300D01*
Y1120600D01*
X1385900Y1121000D01*
X1386300Y1121400D01*
Y1121800D01*
X1385900D01*
X1385500Y1121400D01*
X1385100Y1121800D01*
X1384700D01*
Y1121400D01*
X1385100Y1121000D01*
X1384700Y1120600D01*
Y1120200D01*
X1354200Y1117200D02*
X1354600D01*
X1355000Y1117600D01*
X1355400Y1117200D01*
X1355800D01*
Y1117600D01*
X1355400Y1118000D01*
X1355800Y1118400D01*
Y1118800D01*
X1355400D01*
X1355000Y1118400D01*
X1354600Y1118800D01*
X1354200D01*
Y1118400D01*
X1354600Y1118000D01*
X1354200Y1117600D01*
Y1117200D01*
X1291200Y998700D02*
X1291600D01*
X1292000Y999100D01*
X1292400Y998700D01*
X1292800D01*
Y999100D01*
X1292400Y999500D01*
X1292800Y999900D01*
Y1000300D01*
X1292400D01*
X1292000Y999900D01*
X1291600Y1000300D01*
X1291200D01*
Y999900D01*
X1291600Y999500D01*
X1291200Y999100D01*
Y998700D01*
X1284700Y994200D02*
X1285100D01*
X1285500Y994600D01*
X1285900Y994200D01*
X1286300D01*
Y994600D01*
X1285900Y995000D01*
X1286300Y995400D01*
Y995800D01*
X1285900D01*
X1285500Y995400D01*
X1285100Y995800D01*
X1284700D01*
Y995400D01*
X1285100Y995000D01*
X1284700Y994600D01*
Y994200D01*
X1439700Y973200D02*
X1440100D01*
X1440500Y973600D01*
X1440900Y973200D01*
X1441300D01*
Y973600D01*
X1440900Y974000D01*
X1441300Y974400D01*
Y974800D01*
X1440900D01*
X1440500Y974400D01*
X1440100Y974800D01*
X1439700D01*
Y974400D01*
X1440100Y974000D01*
X1439700Y973600D01*
Y973200D01*
X1436700Y989200D02*
X1437100D01*
X1437500Y989600D01*
X1437900Y989200D01*
X1438300D01*
Y989600D01*
X1437900Y990000D01*
X1438300Y990400D01*
Y990800D01*
X1437900D01*
X1437500Y990400D01*
X1437100Y990800D01*
X1436700D01*
Y990400D01*
X1437100Y990000D01*
X1436700Y989600D01*
Y989200D01*
X1473200Y1037700D02*
X1473600D01*
X1474000Y1038100D01*
X1474400Y1037700D01*
X1474800D01*
Y1038100D01*
X1474400Y1038500D01*
X1474800Y1038900D01*
Y1039300D01*
X1474400D01*
X1474000Y1038900D01*
X1473600Y1039300D01*
X1473200D01*
Y1038900D01*
X1473600Y1038500D01*
X1473200Y1038100D01*
Y1037700D01*
X1386200Y1033200D02*
X1386600D01*
X1387000Y1033600D01*
X1387400Y1033200D01*
X1387800D01*
Y1033600D01*
X1387400Y1034000D01*
X1387800Y1034400D01*
Y1034800D01*
X1387400D01*
X1387000Y1034400D01*
X1386600Y1034800D01*
X1386200D01*
Y1034400D01*
X1386600Y1034000D01*
X1386200Y1033600D01*
Y1033200D01*
X1298700Y1020700D02*
X1299100D01*
X1299500Y1021100D01*
X1299900Y1020700D01*
X1300300D01*
Y1021100D01*
X1299900Y1021500D01*
X1300300Y1021900D01*
Y1022300D01*
X1299900D01*
X1299500Y1021900D01*
X1299100Y1022300D01*
X1298700D01*
Y1021900D01*
X1299100Y1021500D01*
X1298700Y1021100D01*
Y1020700D01*
X1270200Y1030200D02*
X1270600D01*
X1271000Y1030600D01*
X1271400Y1030200D01*
X1271800D01*
Y1030600D01*
X1271400Y1031000D01*
X1271800Y1031400D01*
Y1031800D01*
X1271400D01*
X1271000Y1031400D01*
X1270600Y1031800D01*
X1270200D01*
Y1031400D01*
X1270600Y1031000D01*
X1270200Y1030600D01*
Y1030200D01*
X1280700Y1025200D02*
X1281100D01*
X1281500Y1025600D01*
X1281900Y1025200D01*
X1282300D01*
Y1025600D01*
X1281900Y1026000D01*
X1282300Y1026400D01*
Y1026800D01*
X1281900D01*
X1281500Y1026400D01*
X1281100Y1026800D01*
X1280700D01*
Y1026400D01*
X1281100Y1026000D01*
X1280700Y1025600D01*
Y1025200D01*
X1244200Y1037700D02*
X1244600D01*
X1245000Y1038100D01*
X1245400Y1037700D01*
X1245800D01*
Y1038100D01*
X1245400Y1038500D01*
X1245800Y1038900D01*
Y1039300D01*
X1245400D01*
X1245000Y1038900D01*
X1244600Y1039300D01*
X1244200D01*
Y1038900D01*
X1244600Y1038500D01*
X1244200Y1038100D01*
Y1037700D01*
Y1079700D02*
X1244600D01*
X1245000Y1080100D01*
X1245400Y1079700D01*
X1245800D01*
Y1080100D01*
X1245400Y1080500D01*
X1245800Y1080900D01*
Y1081300D01*
X1245400D01*
X1245000Y1080900D01*
X1244600Y1081300D01*
X1244200D01*
Y1080900D01*
X1244600Y1080500D01*
X1244200Y1080100D01*
Y1079700D01*
X1244700Y992200D02*
X1245100D01*
X1245500Y992600D01*
X1245900Y992200D01*
X1246300D01*
Y992600D01*
X1245900Y993000D01*
X1246300Y993400D01*
Y993800D01*
X1245900D01*
X1245500Y993400D01*
X1245100Y993800D01*
X1244700D01*
Y993400D01*
X1245100Y993000D01*
X1244700Y992600D01*
Y992200D01*
X1280700Y971200D02*
X1281100D01*
X1281500Y971600D01*
X1281900Y971200D01*
X1282300D01*
Y971600D01*
X1281900Y972000D01*
X1282300Y972400D01*
Y972800D01*
X1281900D01*
X1281500Y972400D01*
X1281100Y972800D01*
X1280700D01*
Y972400D01*
X1281100Y972000D01*
X1280700Y971600D01*
Y971200D01*
X1224010Y1157081D02*
Y1156681D01*
X1224810D01*
Y1157081D01*
X1225210D01*
Y1157881D01*
X1224810D01*
Y1158281D01*
X1224010D01*
Y1157881D01*
X1223610D01*
Y1157081D01*
X1224010D01*
X1227947D02*
Y1156681D01*
X1228747D01*
Y1157081D01*
X1229147D01*
Y1157881D01*
X1228747D01*
Y1158281D01*
X1227947D01*
Y1157881D01*
X1227547D01*
Y1157081D01*
X1227947D01*
X1231884D02*
Y1156681D01*
X1232684D01*
Y1157081D01*
X1233084D01*
Y1157881D01*
X1232684D01*
Y1158281D01*
X1231884D01*
Y1157881D01*
X1231484D01*
Y1157081D01*
X1231884D01*
X1235821D02*
Y1156681D01*
X1236621D01*
Y1157081D01*
X1237021D01*
Y1157881D01*
X1236621D01*
Y1158281D01*
X1235821D01*
Y1157881D01*
X1235421D01*
Y1157081D01*
X1235821D01*
X1239758D02*
Y1156681D01*
X1240558D01*
Y1157081D01*
X1240958D01*
Y1157881D01*
X1240558D01*
Y1158281D01*
X1239758D01*
Y1157881D01*
X1239358D01*
Y1157081D01*
X1239758D01*
X1243695D02*
Y1156681D01*
X1244495D01*
Y1157081D01*
X1244895D01*
Y1157881D01*
X1244495D01*
Y1158281D01*
X1243695D01*
Y1157881D01*
X1243295D01*
Y1157081D01*
X1243695D01*
X1247632D02*
Y1156681D01*
X1248432D01*
Y1157081D01*
X1248832D01*
Y1157881D01*
X1248432D01*
Y1158281D01*
X1247632D01*
Y1157881D01*
X1247232D01*
Y1157081D01*
X1247632D01*
X1251569D02*
Y1156681D01*
X1252369D01*
Y1157081D01*
X1252769D01*
Y1157881D01*
X1252369D01*
Y1158281D01*
X1251569D01*
Y1157881D01*
X1251169D01*
Y1157081D01*
X1251569D01*
X1255506D02*
Y1156681D01*
X1256306D01*
Y1157081D01*
X1256706D01*
Y1157881D01*
X1256306D01*
Y1158281D01*
X1255506D01*
Y1157881D01*
X1255106D01*
Y1157081D01*
X1255506D01*
X1259443D02*
Y1156681D01*
X1260243D01*
Y1157081D01*
X1260643D01*
Y1157881D01*
X1260243D01*
Y1158281D01*
X1259443D01*
Y1157881D01*
X1259043D01*
Y1157081D01*
X1259443D01*
X1263380D02*
Y1156681D01*
X1264180D01*
Y1157081D01*
X1264580D01*
Y1157881D01*
X1264180D01*
Y1158281D01*
X1263380D01*
Y1157881D01*
X1262980D01*
Y1157081D01*
X1263380D01*
X1267317D02*
Y1156681D01*
X1268117D01*
Y1157081D01*
X1268517D01*
Y1157881D01*
X1268117D01*
Y1158281D01*
X1267317D01*
Y1157881D01*
X1266917D01*
Y1157081D01*
X1267317D01*
X1271254D02*
Y1156681D01*
X1272054D01*
Y1157081D01*
X1272454D01*
Y1157881D01*
X1272054D01*
Y1158281D01*
X1271254D01*
Y1157881D01*
X1270854D01*
Y1157081D01*
X1271254D01*
X1275191D02*
Y1156681D01*
X1275991D01*
Y1157081D01*
X1276391D01*
Y1157881D01*
X1275991D01*
Y1158281D01*
X1275191D01*
Y1157881D01*
X1274791D01*
Y1157081D01*
X1275191D01*
X1279128D02*
Y1156681D01*
X1279928D01*
Y1157081D01*
X1280328D01*
Y1157881D01*
X1279928D01*
Y1158281D01*
X1279128D01*
Y1157881D01*
X1278728D01*
Y1157081D01*
X1279128D01*
X1283065D02*
Y1156681D01*
X1283865D01*
Y1157081D01*
X1284265D01*
Y1157881D01*
X1283865D01*
Y1158281D01*
X1283065D01*
Y1157881D01*
X1282665D01*
Y1157081D01*
X1283065D01*
X1287002D02*
Y1156681D01*
X1287802D01*
Y1157081D01*
X1288202D01*
Y1157881D01*
X1287802D01*
Y1158281D01*
X1287002D01*
Y1157881D01*
X1286602D01*
Y1157081D01*
X1287002D01*
X1290939D02*
Y1156681D01*
X1291739D01*
Y1157081D01*
X1292139D01*
Y1157881D01*
X1291739D01*
Y1158281D01*
X1290939D01*
Y1157881D01*
X1290539D01*
Y1157081D01*
X1290939D01*
X1294876D02*
Y1156681D01*
X1295676D01*
Y1157081D01*
X1296076D01*
Y1157881D01*
X1295676D01*
Y1158281D01*
X1294876D01*
Y1157881D01*
X1294476D01*
Y1157081D01*
X1294876D01*
X1298813D02*
Y1156681D01*
X1299613D01*
Y1157081D01*
X1300013D01*
Y1157881D01*
X1299613D01*
Y1158281D01*
X1298813D01*
Y1157881D01*
X1298413D01*
Y1157081D01*
X1298813D01*
X1302750D02*
Y1156681D01*
X1303550D01*
Y1157081D01*
X1303950D01*
Y1157881D01*
X1303550D01*
Y1158281D01*
X1302750D01*
Y1157881D01*
X1302350D01*
Y1157081D01*
X1302750D01*
X1306687D02*
Y1156681D01*
X1307487D01*
Y1157081D01*
X1307887D01*
Y1157881D01*
X1307487D01*
Y1158281D01*
X1306687D01*
Y1157881D01*
X1306287D01*
Y1157081D01*
X1306687D01*
X1310624D02*
Y1156681D01*
X1311424D01*
Y1157081D01*
X1311824D01*
Y1157881D01*
X1311424D01*
Y1158281D01*
X1310624D01*
Y1157881D01*
X1310224D01*
Y1157081D01*
X1310624D01*
X1314561D02*
Y1156681D01*
X1315361D01*
Y1157081D01*
X1315761D01*
Y1157881D01*
X1315361D01*
Y1158281D01*
X1314561D01*
Y1157881D01*
X1314161D01*
Y1157081D01*
X1314561D01*
X1318498D02*
Y1156681D01*
X1319298D01*
Y1157081D01*
X1319698D01*
Y1157881D01*
X1319298D01*
Y1158281D01*
X1318498D01*
Y1157881D01*
X1318098D01*
Y1157081D01*
X1318498D01*
X1322435D02*
Y1156681D01*
X1323235D01*
Y1157081D01*
X1323635D01*
Y1157881D01*
X1323235D01*
Y1158281D01*
X1322435D01*
Y1157881D01*
X1322035D01*
Y1157081D01*
X1322435D01*
X1326372D02*
Y1156681D01*
X1327172D01*
Y1157081D01*
X1327572D01*
Y1157881D01*
X1327172D01*
Y1158281D01*
X1326372D01*
Y1157881D01*
X1325972D01*
Y1157081D01*
X1326372D01*
X1330309D02*
Y1156681D01*
X1331109D01*
Y1157081D01*
X1331509D01*
Y1157881D01*
X1331109D01*
Y1158281D01*
X1330309D01*
Y1157881D01*
X1329909D01*
Y1157081D01*
X1330309D01*
X1334246D02*
Y1156681D01*
X1335046D01*
Y1157081D01*
X1335446D01*
Y1157881D01*
X1335046D01*
Y1158281D01*
X1334246D01*
Y1157881D01*
X1333846D01*
Y1157081D01*
X1334246D01*
X1338183D02*
Y1156681D01*
X1338983D01*
Y1157081D01*
X1339383D01*
Y1157881D01*
X1338983D01*
Y1158281D01*
X1338183D01*
Y1157881D01*
X1337783D01*
Y1157081D01*
X1338183D01*
X1342120D02*
Y1156681D01*
X1342920D01*
Y1157081D01*
X1343320D01*
Y1157881D01*
X1342920D01*
Y1158281D01*
X1342120D01*
Y1157881D01*
X1341720D01*
Y1157081D01*
X1342120D01*
X1346057D02*
Y1156681D01*
X1346857D01*
Y1157081D01*
X1347257D01*
Y1157881D01*
X1346857D01*
Y1158281D01*
X1346057D01*
Y1157881D01*
X1345657D01*
Y1157081D01*
X1346057D01*
X1349994D02*
Y1156681D01*
X1350794D01*
Y1157081D01*
X1351194D01*
Y1157881D01*
X1350794D01*
Y1158281D01*
X1349994D01*
Y1157881D01*
X1349594D01*
Y1157081D01*
X1349994D01*
X1353931D02*
Y1156681D01*
X1354731D01*
Y1157081D01*
X1355131D01*
Y1157881D01*
X1354731D01*
Y1158281D01*
X1353931D01*
Y1157881D01*
X1353531D01*
Y1157081D01*
X1353931D01*
X1357868D02*
Y1156681D01*
X1358668D01*
Y1157081D01*
X1359068D01*
Y1157881D01*
X1358668D01*
Y1158281D01*
X1357868D01*
Y1157881D01*
X1357468D01*
Y1157081D01*
X1357868D01*
X1361806D02*
Y1156681D01*
X1362605D01*
Y1157081D01*
X1363006D01*
Y1157881D01*
X1362605D01*
Y1158281D01*
X1361806D01*
Y1157881D01*
X1361405D01*
Y1157081D01*
X1361806D01*
X1365742D02*
Y1156681D01*
X1366543D01*
Y1157081D01*
X1366943D01*
Y1157881D01*
X1366543D01*
Y1158281D01*
X1365742D01*
Y1157881D01*
X1365343D01*
Y1157081D01*
X1365742D01*
X1369680D02*
Y1156681D01*
X1370479D01*
Y1157081D01*
X1370879D01*
Y1157881D01*
X1370479D01*
Y1158281D01*
X1369680D01*
Y1157881D01*
X1369279D01*
Y1157081D01*
X1369680D01*
X1373617D02*
Y1156681D01*
X1374417D01*
Y1157081D01*
X1374817D01*
Y1157881D01*
X1374417D01*
Y1158281D01*
X1373617D01*
Y1157881D01*
X1373217D01*
Y1157081D01*
X1373617D01*
X1377553D02*
Y1156681D01*
X1378354D01*
Y1157081D01*
X1378753D01*
Y1157881D01*
X1378354D01*
Y1158281D01*
X1377553D01*
Y1157881D01*
X1377153D01*
Y1157081D01*
X1377553D01*
X1381491D02*
Y1156681D01*
X1382290D01*
Y1157081D01*
X1382691D01*
Y1157881D01*
X1382290D01*
Y1158281D01*
X1381491D01*
Y1157881D01*
X1381091D01*
Y1157081D01*
X1381491D01*
X1385427D02*
Y1156681D01*
X1386228D01*
Y1157081D01*
X1386627D01*
Y1157881D01*
X1386228D01*
Y1158281D01*
X1385427D01*
Y1157881D01*
X1385028D01*
Y1157081D01*
X1385427D01*
X1389365D02*
Y1156681D01*
X1390164D01*
Y1157081D01*
X1390565D01*
Y1157881D01*
X1390164D01*
Y1158281D01*
X1389365D01*
Y1157881D01*
X1388964D01*
Y1157081D01*
X1389365D01*
X1393301D02*
Y1156681D01*
X1394102D01*
Y1157081D01*
X1394501D01*
Y1157881D01*
X1394102D01*
Y1158281D01*
X1393301D01*
Y1157881D01*
X1392902D01*
Y1157081D01*
X1393301D01*
X1397239D02*
Y1156681D01*
X1398039D01*
Y1157081D01*
X1398439D01*
Y1157881D01*
X1398039D01*
Y1158281D01*
X1397239D01*
Y1157881D01*
X1396839D01*
Y1157081D01*
X1397239D01*
X1401176D02*
Y1156681D01*
X1401976D01*
Y1157081D01*
X1402376D01*
Y1157881D01*
X1401976D01*
Y1158281D01*
X1401176D01*
Y1157881D01*
X1400776D01*
Y1157081D01*
X1401176D01*
X1405113D02*
Y1156681D01*
X1405913D01*
Y1157081D01*
X1406313D01*
Y1157881D01*
X1405913D01*
Y1158281D01*
X1405113D01*
Y1157881D01*
X1404713D01*
Y1157081D01*
X1405113D01*
X1409050D02*
Y1156681D01*
X1409850D01*
Y1157081D01*
X1410250D01*
Y1157881D01*
X1409850D01*
Y1158281D01*
X1409050D01*
Y1157881D01*
X1408650D01*
Y1157081D01*
X1409050D01*
X1412987D02*
Y1156681D01*
X1413787D01*
Y1157081D01*
X1414187D01*
Y1157881D01*
X1413787D01*
Y1158281D01*
X1412987D01*
Y1157881D01*
X1412587D01*
Y1157081D01*
X1412987D01*
X1416924D02*
Y1156681D01*
X1417724D01*
Y1157081D01*
X1418124D01*
Y1157881D01*
X1417724D01*
Y1158281D01*
X1416924D01*
Y1157881D01*
X1416524D01*
Y1157081D01*
X1416924D01*
X1420861D02*
Y1156681D01*
X1421661D01*
Y1157081D01*
X1422061D01*
Y1157881D01*
X1421661D01*
Y1158281D01*
X1420861D01*
Y1157881D01*
X1420461D01*
Y1157081D01*
X1420861D01*
X1424798D02*
Y1156681D01*
X1425598D01*
Y1157081D01*
X1425998D01*
Y1157881D01*
X1425598D01*
Y1158281D01*
X1424798D01*
Y1157881D01*
X1424398D01*
Y1157081D01*
X1424798D01*
X1428735D02*
Y1156681D01*
X1429535D01*
Y1157081D01*
X1429935D01*
Y1157881D01*
X1429535D01*
Y1158281D01*
X1428735D01*
Y1157881D01*
X1428335D01*
Y1157081D01*
X1428735D01*
X1432672D02*
Y1156681D01*
X1433472D01*
Y1157081D01*
X1433872D01*
Y1157881D01*
X1433472D01*
Y1158281D01*
X1432672D01*
Y1157881D01*
X1432272D01*
Y1157081D01*
X1432672D01*
X1436609D02*
Y1156681D01*
X1437409D01*
Y1157081D01*
X1437809D01*
Y1157881D01*
X1437409D01*
Y1158281D01*
X1436609D01*
Y1157881D01*
X1436209D01*
Y1157081D01*
X1436609D01*
X1440546D02*
Y1156681D01*
X1441346D01*
Y1157081D01*
X1441746D01*
Y1157881D01*
X1441346D01*
Y1158281D01*
X1440546D01*
Y1157881D01*
X1440146D01*
Y1157081D01*
X1440546D01*
X1444483D02*
Y1156681D01*
X1445283D01*
Y1157081D01*
X1445683D01*
Y1157881D01*
X1445283D01*
Y1158281D01*
X1444483D01*
Y1157881D01*
X1444083D01*
Y1157081D01*
X1444483D01*
X1448420D02*
Y1156681D01*
X1449220D01*
Y1157081D01*
X1449620D01*
Y1157881D01*
X1449220D01*
Y1158281D01*
X1448420D01*
Y1157881D01*
X1448020D01*
Y1157081D01*
X1448420D01*
X1452357D02*
Y1156681D01*
X1453157D01*
Y1157081D01*
X1453557D01*
Y1157881D01*
X1453157D01*
Y1158281D01*
X1452357D01*
Y1157881D01*
X1451957D01*
Y1157081D01*
X1452357D01*
X1456294D02*
Y1156681D01*
X1457094D01*
Y1157081D01*
X1457494D01*
Y1157881D01*
X1457094D01*
Y1158281D01*
X1456294D01*
Y1157881D01*
X1455894D01*
Y1157081D01*
X1456294D01*
X1460231D02*
Y1156681D01*
X1461031D01*
Y1157081D01*
X1461431D01*
Y1157881D01*
X1461031D01*
Y1158281D01*
X1460231D01*
Y1157881D01*
X1459831D01*
Y1157081D01*
X1460231D01*
X1464168D02*
Y1156681D01*
X1464968D01*
Y1157081D01*
X1465368D01*
Y1157881D01*
X1464968D01*
Y1158281D01*
X1464168D01*
Y1157881D01*
X1463768D01*
Y1157081D01*
X1464168D01*
X1468105D02*
Y1156681D01*
X1468905D01*
Y1157081D01*
X1469305D01*
Y1157881D01*
X1468905D01*
Y1158281D01*
X1468105D01*
Y1157881D01*
X1467705D01*
Y1157081D01*
X1468105D01*
X1472042D02*
Y1156681D01*
X1472842D01*
Y1157081D01*
X1473242D01*
Y1157881D01*
X1472842D01*
Y1158281D01*
X1472042D01*
Y1157881D01*
X1471642D01*
Y1157081D01*
X1472042D01*
X1475979D02*
Y1156681D01*
X1476779D01*
Y1157081D01*
X1477179D01*
Y1157881D01*
X1476779D01*
Y1158281D01*
X1475979D01*
Y1157881D01*
X1475579D01*
Y1157081D01*
X1475979D01*
X1479916D02*
Y1156681D01*
X1480716D01*
Y1157081D01*
X1481116D01*
Y1157881D01*
X1480716D01*
Y1158281D01*
X1479916D01*
Y1157881D01*
X1479516D01*
Y1157081D01*
X1479916D01*
X1483853D02*
Y1156681D01*
X1484653D01*
Y1157081D01*
X1485053D01*
Y1157881D01*
X1484653D01*
Y1158281D01*
X1483853D01*
Y1157881D01*
X1483453D01*
Y1157081D01*
X1483853D01*
X1487790D02*
Y1156681D01*
X1488590D01*
Y1157081D01*
X1488990D01*
Y1157881D01*
X1488590D01*
Y1158281D01*
X1487790D01*
Y1157881D01*
X1487390D01*
Y1157081D01*
X1487790D01*
X1491727D02*
Y1156681D01*
X1492527D01*
Y1157081D01*
X1492927D01*
Y1157881D01*
X1492527D01*
Y1158281D01*
X1491727D01*
Y1157881D01*
X1491327D01*
Y1157081D01*
X1491727D01*
X1495664D02*
Y1156681D01*
X1496464D01*
Y1157081D01*
X1496864D01*
Y1157881D01*
X1496464D01*
Y1158281D01*
X1495664D01*
Y1157881D01*
X1495264D01*
Y1157081D01*
X1495664D01*
X1499601D02*
Y1156681D01*
X1500401D01*
Y1157081D01*
X1500801D01*
Y1157881D01*
X1500401D01*
Y1158281D01*
X1499601D01*
Y1157881D01*
X1499201D01*
Y1157081D01*
X1499601D01*
X1503538D02*
Y1156681D01*
X1504338D01*
Y1157081D01*
X1504738D01*
Y1157881D01*
X1504338D01*
Y1158281D01*
X1503538D01*
Y1157881D01*
X1503138D01*
Y1157081D01*
X1503538D01*
D81*
X1280926Y898996D02*
G03*
X1280926Y898996I-800J0D01*
G01*
X1269115Y917500D02*
G03*
X1269115Y917500I-800J0D01*
G01*
X1292737D02*
G03*
X1292737Y917500I-800J0D01*
G01*
M02*
