G04 Layer_Color=15461320*
%FSLAX25Y25*%
%MOIN*%
G70*
G01*
G75*
%ADD56C,0.01969*%
%ADD73C,0.00500*%
%ADD74C,0.00787*%
%ADD75C,0.00600*%
%ADD122C,0.00197*%
%ADD123C,0.00394*%
%ADD124C,0.00300*%
%ADD125C,0.00100*%
%ADD126C,0.02000*%
%ADD127C,0.01000*%
%ADD128C,0.03937*%
D56*
X162000Y395600D02*
D03*
D73*
X120597Y289205D02*
G03*
X117447Y292354I-3150J0D01*
G01*
Y261646D02*
G03*
X120597Y264795I0J3150D01*
G01*
X102500Y261646D02*
X117447D01*
X120597Y264795D02*
Y289205D01*
X102500Y292354D02*
X117447D01*
X170169Y390374D02*
X171744Y391949D01*
X177256D01*
X178831Y390374D01*
X177256Y373051D02*
X178831Y374626D01*
Y390374D01*
X171744Y373051D02*
X177256D01*
X170169Y374626D02*
X171744Y373051D01*
X170169Y374626D02*
Y390374D01*
X186874Y404831D02*
X188449Y403256D01*
Y397744D02*
Y403256D01*
X186874Y396169D02*
X188449Y397744D01*
X169551D02*
X171126Y396169D01*
X186874D01*
X169551Y397744D02*
Y403256D01*
X171126Y404831D01*
X186874D01*
X159374Y343331D02*
X160949Y341756D01*
Y336244D02*
Y341756D01*
X159374Y334669D02*
X160949Y336244D01*
X142051D02*
X143626Y334669D01*
X159374D01*
X142051Y336244D02*
Y341756D01*
X143626Y343331D01*
X159374D01*
X140587Y293445D02*
X176413D01*
X140587Y311555D02*
X176413D01*
Y293445D02*
Y311555D01*
X140587Y293445D02*
Y311555D01*
X261331Y229126D02*
Y244874D01*
X259756Y227551D02*
X261331Y229126D01*
X254244Y227551D02*
X259756D01*
X252669Y229126D02*
Y244874D01*
Y229126D02*
X254244Y227551D01*
X252669Y244874D02*
X254244Y246449D01*
X259756D01*
X261331Y244874D01*
X233331Y294126D02*
Y309874D01*
X231756Y292551D02*
X233331Y294126D01*
X226244Y292551D02*
X231756D01*
X224669Y294126D02*
Y309874D01*
Y294126D02*
X226244Y292551D01*
X224669Y309874D02*
X226244Y311449D01*
X231756D01*
X233331Y309874D01*
X218169Y252626D02*
Y268374D01*
X219744Y269949D01*
X225256D01*
X226831Y252626D02*
Y268374D01*
X225256Y269949D02*
X226831Y268374D01*
X225256Y251051D02*
X226831Y252626D01*
X219744Y251051D02*
X225256D01*
X218169Y252626D02*
X219744Y251051D01*
D74*
X177655Y227000D02*
G03*
X188434Y226923I5333J-7937D01*
G01*
X107155Y338000D02*
G03*
X117934Y337923I5333J-7937D01*
G01*
X152155Y227000D02*
G03*
X162934Y226923I5333J-7937D01*
G01*
X177655Y227000D02*
X188429D01*
X107155Y338000D02*
X117929D01*
X152155Y227000D02*
X162929D01*
D75*
X185001Y228500D02*
X188000D01*
X187000D01*
X185001Y230499D01*
X186501Y229000D01*
X188000Y230499D01*
X180001Y218500D02*
X183000D01*
Y220499D01*
X180001Y223498D02*
Y221499D01*
X183000D01*
Y223498D01*
X181500Y221499D02*
Y222499D01*
X180001Y224498D02*
X183000D01*
Y225998D01*
X182500Y226497D01*
X180501D01*
X180001Y225998D01*
Y224498D01*
X183000Y227497D02*
Y228497D01*
Y227997D01*
X180001D01*
X180501Y227497D01*
X114501Y339500D02*
X117500D01*
X116500D01*
X114501Y341499D01*
X116000Y340000D01*
X117500Y341499D01*
X159501Y228500D02*
X162500D01*
X161500D01*
X159501Y230499D01*
X161001Y229000D01*
X162500Y230499D01*
X154501Y218500D02*
X157500D01*
Y220499D01*
X154501Y223498D02*
Y221499D01*
X157500D01*
Y223498D01*
X156000Y221499D02*
Y222499D01*
X154501Y224498D02*
X157500D01*
Y225998D01*
X157000Y226497D01*
X155001D01*
X154501Y225998D01*
Y224498D01*
X157500Y229496D02*
Y227497D01*
X155501Y229496D01*
X155001D01*
X154501Y228997D01*
Y227997D01*
X155001Y227497D01*
D122*
X305618Y224079D02*
X345382D01*
X305618Y166205D02*
Y224079D01*
X345382Y166205D02*
Y224079D01*
X305618Y166205D02*
X345382D01*
D123*
X384500Y360032D02*
Y363968D01*
X382531Y362000D02*
X386469D01*
X364028Y341528D02*
X404972D01*
X364028Y382472D02*
X404972D01*
Y341528D02*
Y382472D01*
X364028Y341528D02*
Y382472D01*
X153299Y270153D02*
Y276847D01*
X140701Y270153D02*
Y276847D01*
Y270153D02*
X153299D01*
X140701Y276847D02*
X153299D01*
X140701Y279153D02*
Y285846D01*
X153299Y279153D02*
Y285846D01*
X140701D02*
X153299D01*
X140701Y279153D02*
X153299D01*
X139654Y267799D02*
X146346D01*
X139654Y255201D02*
X146346D01*
Y267799D01*
X139654Y255201D02*
Y267799D01*
X325500Y202031D02*
Y205968D01*
X323532Y204000D02*
X327468D01*
X142913Y331374D02*
X157087D01*
X142913Y315626D02*
X157087D01*
Y331374D01*
X142913Y315626D02*
Y331374D01*
X150000Y321532D02*
Y325468D01*
X148031Y323500D02*
X151969D01*
X182531Y341500D02*
X186469D01*
X184500Y339531D02*
Y343468D01*
X179972Y331264D02*
Y351736D01*
X189028Y331264D02*
Y351736D01*
X179972Y331264D02*
X189028D01*
X179972Y351736D02*
X189028D01*
X170269Y344845D02*
Y362955D01*
X178931Y344845D02*
Y362955D01*
X170269Y344845D02*
X178931D01*
X170269Y362955D02*
X178931D01*
X365957Y361201D02*
Y373799D01*
X373043Y361201D02*
Y373799D01*
X365957D02*
X373043D01*
X365957Y361201D02*
X373043D01*
X384201Y376543D02*
X396799D01*
X384201Y369457D02*
X396799D01*
Y376543D01*
X384201Y369457D02*
Y376543D01*
X398543Y351201D02*
Y363799D01*
X391457Y351201D02*
Y363799D01*
Y351201D02*
X398543D01*
X391457Y363799D02*
X398543D01*
X372701Y353457D02*
X385299D01*
X372701Y360543D02*
X385299D01*
X372701Y353457D02*
Y360543D01*
X385299Y353457D02*
Y360543D01*
X388501Y305357D02*
X401099D01*
X388501Y312443D02*
X401099D01*
Y305357D02*
Y312443D01*
X388501Y305357D02*
Y312443D01*
X341201Y384143D02*
X353799D01*
X341201Y377057D02*
X353799D01*
Y384143D01*
X341201Y377057D02*
Y384143D01*
Y347143D02*
X353799D01*
X341201Y340057D02*
X353799D01*
Y347143D01*
X341201Y340057D02*
Y347143D01*
X249500Y282531D02*
Y286469D01*
X247532Y284500D02*
X251468D01*
X234736Y295327D02*
X264264D01*
X234736Y273673D02*
X264264D01*
Y295327D01*
X234736Y273673D02*
Y295327D01*
X335543Y293701D02*
Y306299D01*
X328457Y293701D02*
Y306299D01*
Y293701D02*
X335543D01*
X328457Y306299D02*
X335543D01*
X317457Y293701D02*
Y306299D01*
X324543Y293701D02*
Y306299D01*
X317457D02*
X324543D01*
X317457Y293701D02*
X324543D01*
X264043Y260201D02*
Y272799D01*
X256957Y260201D02*
Y272799D01*
Y260201D02*
X264043D01*
X256957Y272799D02*
X264043D01*
X296031Y265500D02*
X299969D01*
X298000Y263531D02*
Y267469D01*
X308827Y250736D02*
Y280264D01*
X287173Y250736D02*
Y280264D01*
Y250736D02*
X308827D01*
X287173Y280264D02*
X308827D01*
X289701Y301043D02*
X302299D01*
X289701Y293957D02*
X302299D01*
Y301043D01*
X289701Y293957D02*
Y301043D01*
X273701Y261957D02*
X286299D01*
X273701Y269043D02*
X286299D01*
X273701Y261957D02*
Y269043D01*
X286299Y261957D02*
Y269043D01*
X281701Y292043D02*
X294299D01*
X281701Y284957D02*
X294299D01*
Y292043D01*
X281701Y284957D02*
Y292043D01*
X236201Y248957D02*
X248799D01*
X236201Y256043D02*
X248799D01*
X236201Y248957D02*
Y256043D01*
X248799Y248957D02*
Y256043D01*
D124*
X155500Y403600D02*
X168500D01*
Y387600D02*
Y403600D01*
X155500Y387600D02*
X168500D01*
X155500D02*
Y403600D01*
X378300Y268400D02*
Y298400D01*
X406300D01*
Y268400D02*
Y298400D01*
X378300Y268400D02*
X406300D01*
X261500Y362000D02*
X291500D01*
Y334000D02*
Y362000D01*
X261500Y334000D02*
X291500D01*
X261500D02*
Y362000D01*
X117000Y370000D02*
Y383000D01*
X110500Y376500D02*
X123500D01*
X98000Y400500D02*
X142000D01*
Y365500D02*
Y400500D01*
X98000Y365500D02*
X142000D01*
X98000D02*
Y400500D01*
X97000Y252500D02*
Y301500D01*
X129500D01*
X97000Y252500D02*
X129500D01*
Y301500D01*
D125*
X163362Y374500D02*
G03*
X163362Y374500I-4862J0D01*
G01*
X163860D02*
G03*
X163860Y374500I-5360J0D01*
G01*
X165398D02*
G03*
X165398Y374500I-268J0D01*
G01*
X166177Y369382D02*
Y374500D01*
X163618Y366823D02*
X166177Y369382D01*
X158500Y366823D02*
X163618D01*
X158500Y382177D02*
X163618D01*
X166177Y379618D01*
Y374500D02*
Y379618D01*
X150823Y374500D02*
Y379618D01*
X153382Y382177D01*
X158500D01*
X153382Y366823D02*
X158500D01*
X150823Y369382D02*
X153382Y366823D01*
X150823Y369382D02*
Y374500D01*
X150830Y369365D02*
Y374500D01*
Y369365D02*
X153365Y366830D01*
X158500D01*
X150830Y374500D02*
Y379635D01*
X153365Y382170D01*
X158500D01*
X166170Y369365D02*
Y374435D01*
X163635Y366830D02*
X166170Y369365D01*
X158500Y366830D02*
X163635D01*
X166170Y374500D02*
Y379635D01*
X163635Y382170D02*
X166170Y379635D01*
X158500Y382170D02*
X163635D01*
X155997Y379245D02*
Y382170D01*
X156680Y379570D02*
Y382170D01*
X161003Y379245D02*
Y382170D01*
X160320Y379570D02*
Y382170D01*
Y366830D02*
Y369430D01*
X156680Y366830D02*
Y369430D01*
X161003Y366830D02*
Y369755D01*
X163310Y370470D02*
Y372095D01*
X162530Y369690D02*
X163310Y370470D01*
X160905Y369690D02*
X162530D01*
X160840Y379310D02*
X162530D01*
X163310Y378530D01*
Y376840D02*
Y378530D01*
X153690Y376905D02*
Y378530D01*
X154470Y379310D01*
X156095D01*
X154470Y369690D02*
X156095D01*
X153690Y370470D02*
X154470Y369690D01*
X153690Y370470D02*
Y372095D01*
X155997Y366830D02*
Y369755D01*
D126*
X392300Y283400D02*
D03*
X276500Y348000D02*
D03*
X102500Y277000D02*
D03*
X174500Y382500D02*
D03*
X179000Y400500D02*
D03*
X151500Y339000D02*
D03*
X174600Y353900D02*
D03*
X257000Y237000D02*
D03*
X229000Y302000D02*
D03*
X222500Y260500D02*
D03*
D127*
X147000Y273500D02*
D03*
Y282500D02*
D03*
X143000Y261500D02*
D03*
X369500Y367500D02*
D03*
X390500Y373000D02*
D03*
X395000Y357500D02*
D03*
X379000Y357000D02*
D03*
X394800Y308900D02*
D03*
X347500Y380600D02*
D03*
Y343600D02*
D03*
X332000Y300000D02*
D03*
X321000D02*
D03*
X260500Y266500D02*
D03*
X296000Y297500D02*
D03*
X280000Y265500D02*
D03*
X288000Y288500D02*
D03*
X242500Y252500D02*
D03*
D128*
X158500Y302500D02*
D03*
M02*
