G04 Layer_Color=32768*
%FSLAX25Y25*%
%MOIN*%
G70*
G01*
G75*
%ADD122C,0.00197*%
D122*
X304831Y204000D02*
X347153D01*
X357390Y203213D02*
Y204000D01*
X356996D01*
X356865Y203869D01*
Y203738D01*
X356996Y203606D01*
X357390D01*
X356996D01*
X356865Y203475D01*
Y203344D01*
X356996Y203213D01*
X357390D01*
X356471Y204000D02*
X356209D01*
X356078Y203869D01*
Y203606D01*
X356209Y203475D01*
X356471D01*
X356603Y203606D01*
Y203869D01*
X356471Y204000D01*
X355684Y203475D02*
X355422D01*
X355291Y203606D01*
Y204000D01*
X355684D01*
X355816Y203869D01*
X355684Y203738D01*
X355291D01*
X355028Y203475D02*
Y204000D01*
Y203738D01*
X354897Y203606D01*
X354766Y203475D01*
X354635D01*
X353716Y203213D02*
Y204000D01*
X354110D01*
X354241Y203869D01*
Y203606D01*
X354110Y203475D01*
X353716D01*
X352142Y203213D02*
X352667D01*
Y204000D01*
X352142D01*
X352667Y203606D02*
X352404D01*
X351355Y203213D02*
Y204000D01*
X351748D01*
X351880Y203869D01*
Y203606D01*
X351748Y203475D01*
X351355D01*
X350830Y204262D02*
X350699D01*
X350568Y204131D01*
Y203475D01*
X350961D01*
X351093Y203606D01*
Y203869D01*
X350961Y204000D01*
X350568D01*
X349912D02*
X350174D01*
X350305Y203869D01*
Y203606D01*
X350174Y203475D01*
X349912D01*
X349781Y203606D01*
Y203738D01*
X350305D01*
M02*
