G04 Layer_Color=8421504*
%FSLAX25Y25*%
%MOIN*%
G70*
G01*
G75*
%ADD10R,0.05906X0.05118*%
%ADD11R,0.05118X0.05906*%
%ADD12R,0.05906X0.05906*%
G04:AMPARAMS|DCode=13|XSize=19.69mil|YSize=23.62mil|CornerRadius=1.97mil|HoleSize=0mil|Usage=FLASHONLY|Rotation=0.000|XOffset=0mil|YOffset=0mil|HoleType=Round|Shape=RoundedRectangle|*
%AMROUNDEDRECTD13*
21,1,0.01969,0.01969,0,0,0.0*
21,1,0.01575,0.02362,0,0,0.0*
1,1,0.00394,0.00787,-0.00984*
1,1,0.00394,-0.00787,-0.00984*
1,1,0.00394,-0.00787,0.00984*
1,1,0.00394,0.00787,0.00984*
%
%ADD13ROUNDEDRECTD13*%
G04:AMPARAMS|DCode=14|XSize=55.12mil|YSize=39.37mil|CornerRadius=4.92mil|HoleSize=0mil|Usage=FLASHONLY|Rotation=180.000|XOffset=0mil|YOffset=0mil|HoleType=Round|Shape=RoundedRectangle|*
%AMROUNDEDRECTD14*
21,1,0.05512,0.02953,0,0,180.0*
21,1,0.04528,0.03937,0,0,180.0*
1,1,0.00984,-0.02264,0.01476*
1,1,0.00984,0.02264,0.01476*
1,1,0.00984,0.02264,-0.01476*
1,1,0.00984,-0.02264,-0.01476*
%
%ADD14ROUNDEDRECTD14*%
G04:AMPARAMS|DCode=15|XSize=96.46mil|YSize=100.39mil|CornerRadius=9.65mil|HoleSize=0mil|Usage=FLASHONLY|Rotation=180.000|XOffset=0mil|YOffset=0mil|HoleType=Round|Shape=RoundedRectangle|*
%AMROUNDEDRECTD15*
21,1,0.09646,0.08110,0,0,180.0*
21,1,0.07717,0.10039,0,0,180.0*
1,1,0.01929,-0.03858,0.04055*
1,1,0.01929,0.03858,0.04055*
1,1,0.01929,0.03858,-0.04055*
1,1,0.01929,-0.03858,-0.04055*
%
%ADD15ROUNDEDRECTD15*%
%ADD17R,0.13780X0.07480*%
%ADD18R,0.07480X0.13780*%
%ADD19O,0.08661X0.02362*%
%ADD20R,0.04331X0.07087*%
%ADD21O,0.08000X0.13000*%
G04:AMPARAMS|DCode=22|XSize=130mil|YSize=80mil|CornerRadius=10mil|HoleSize=0mil|Usage=FLASHONLY|Rotation=90.000|XOffset=0mil|YOffset=0mil|HoleType=Round|Shape=RoundedRectangle|*
%AMROUNDEDRECTD22*
21,1,0.13000,0.06000,0,0,90.0*
21,1,0.11000,0.08000,0,0,90.0*
1,1,0.02000,0.03000,0.05500*
1,1,0.02000,0.03000,-0.05500*
1,1,0.02000,-0.03000,-0.05500*
1,1,0.02000,-0.03000,0.05500*
%
%ADD22ROUNDEDRECTD22*%
G04:AMPARAMS|DCode=23|XSize=55.12mil|YSize=39.37mil|CornerRadius=4.92mil|HoleSize=0mil|Usage=FLASHONLY|Rotation=270.000|XOffset=0mil|YOffset=0mil|HoleType=Round|Shape=RoundedRectangle|*
%AMROUNDEDRECTD23*
21,1,0.05512,0.02953,0,0,270.0*
21,1,0.04528,0.03937,0,0,270.0*
1,1,0.00984,-0.01476,-0.02264*
1,1,0.00984,-0.01476,0.02264*
1,1,0.00984,0.01476,0.02264*
1,1,0.00984,0.01476,-0.02264*
%
%ADD23ROUNDEDRECTD23*%
D10*
X1308500Y992260D02*
D03*
Y999740D02*
D03*
X1355500Y1060760D02*
D03*
Y1068240D02*
D03*
X1339000Y1055740D02*
D03*
Y1048260D02*
D03*
X1294000Y967740D02*
D03*
Y960260D02*
D03*
D11*
X1325260Y1030000D02*
D03*
X1332740D02*
D03*
X1295760Y1045500D02*
D03*
X1303240D02*
D03*
D12*
X1308500Y959110D02*
D03*
Y972890D02*
D03*
D13*
X1446500Y1123032D02*
D03*
Y1126968D02*
D03*
X1416500Y1127032D02*
D03*
Y1130968D02*
D03*
X1355000Y1124032D02*
D03*
Y1127969D02*
D03*
X1385500Y1127532D02*
D03*
Y1131468D02*
D03*
D14*
X1355500Y1108543D02*
D03*
Y1101457D02*
D03*
X1326500Y1020543D02*
D03*
Y1013457D02*
D03*
D15*
X1260000Y984409D02*
D03*
Y960591D02*
D03*
X1280000Y983909D02*
D03*
Y960091D02*
D03*
D17*
X1455201Y1079008D02*
D03*
X1455201Y1061488D02*
D03*
Y1043968D02*
D03*
Y1026449D02*
D03*
Y1008929D02*
D03*
Y991409D02*
D03*
Y973890D02*
D03*
X1370949D02*
D03*
Y991409D02*
D03*
Y1008929D02*
D03*
Y1026449D02*
D03*
Y1043968D02*
D03*
Y1061488D02*
D03*
X1370949Y1079008D02*
D03*
D18*
X1385913Y1101153D02*
D03*
X1404020D02*
D03*
X1422134D02*
D03*
X1440244D02*
D03*
D19*
X1290051Y1030500D02*
D03*
Y1025500D02*
D03*
Y1020500D02*
D03*
Y1015500D02*
D03*
X1308949Y1030500D02*
D03*
Y1025500D02*
D03*
Y1020500D02*
D03*
Y1015500D02*
D03*
D20*
X1375315Y1132000D02*
D03*
X1364685D02*
D03*
X1436315D02*
D03*
X1425685D02*
D03*
X1406815D02*
D03*
X1396185D02*
D03*
D21*
X1428500Y904500D02*
D03*
D22*
X1418500D02*
D03*
D23*
X1344457Y1030000D02*
D03*
X1351543D02*
D03*
M02*
