G04 Layer_Color=8421504*
%FSLAX25Y25*%
%MOIN*%
G70*
G01*
G75*
%ADD10O,0.01181X0.07087*%
%ADD11O,0.07087X0.01181*%
%ADD12R,0.05906X0.05118*%
%ADD13R,0.05118X0.05906*%
G04:AMPARAMS|DCode=14|XSize=59.06mil|YSize=47.24mil|CornerRadius=4.72mil|HoleSize=0mil|Usage=FLASHONLY|Rotation=0.000|XOffset=0mil|YOffset=0mil|HoleType=Round|Shape=RoundedRectangle|*
%AMROUNDEDRECTD14*
21,1,0.05906,0.03780,0,0,0.0*
21,1,0.04961,0.04724,0,0,0.0*
1,1,0.00945,0.02480,-0.01890*
1,1,0.00945,-0.02480,-0.01890*
1,1,0.00945,-0.02480,0.01890*
1,1,0.00945,0.02480,0.01890*
%
%ADD14ROUNDEDRECTD14*%
G04:AMPARAMS|DCode=15|XSize=59.06mil|YSize=13.78mil|CornerRadius=1.38mil|HoleSize=0mil|Usage=FLASHONLY|Rotation=0.000|XOffset=0mil|YOffset=0mil|HoleType=Round|Shape=RoundedRectangle|*
%AMROUNDEDRECTD15*
21,1,0.05906,0.01102,0,0,0.0*
21,1,0.05630,0.01378,0,0,0.0*
1,1,0.00276,0.02815,-0.00551*
1,1,0.00276,-0.02815,-0.00551*
1,1,0.00276,-0.02815,0.00551*
1,1,0.00276,0.02815,0.00551*
%
%ADD15ROUNDEDRECTD15*%
%ADD17O,0.13000X0.08000*%
G04:AMPARAMS|DCode=18|XSize=130mil|YSize=80mil|CornerRadius=10mil|HoleSize=0mil|Usage=FLASHONLY|Rotation=0.000|XOffset=0mil|YOffset=0mil|HoleType=Round|Shape=RoundedRectangle|*
%AMROUNDEDRECTD18*
21,1,0.13000,0.06000,0,0,0.0*
21,1,0.11000,0.08000,0,0,0.0*
1,1,0.02000,0.05500,-0.03000*
1,1,0.02000,-0.05500,-0.03000*
1,1,0.02000,-0.05500,0.03000*
1,1,0.02000,0.05500,0.03000*
%
%ADD18ROUNDEDRECTD18*%
%ADD19R,0.05512X0.19685*%
%ADD20R,0.03937X0.19685*%
%ADD21R,0.02500X0.02500*%
G04:AMPARAMS|DCode=22|XSize=23.62mil|YSize=39.37mil|CornerRadius=2.95mil|HoleSize=0mil|Usage=FLASHONLY|Rotation=0.000|XOffset=0mil|YOffset=0mil|HoleType=Round|Shape=RoundedRectangle|*
%AMROUNDEDRECTD22*
21,1,0.02362,0.03347,0,0,0.0*
21,1,0.01772,0.03937,0,0,0.0*
1,1,0.00591,0.00886,-0.01673*
1,1,0.00591,-0.00886,-0.01673*
1,1,0.00591,-0.00886,0.01673*
1,1,0.00591,0.00886,0.01673*
%
%ADD22ROUNDEDRECTD22*%
G04:AMPARAMS|DCode=23|XSize=70.87mil|YSize=47.24mil|CornerRadius=5.91mil|HoleSize=0mil|Usage=FLASHONLY|Rotation=90.000|XOffset=0mil|YOffset=0mil|HoleType=Round|Shape=RoundedRectangle|*
%AMROUNDEDRECTD23*
21,1,0.07087,0.03543,0,0,90.0*
21,1,0.05906,0.04724,0,0,90.0*
1,1,0.01181,0.01772,0.02953*
1,1,0.01181,0.01772,-0.02953*
1,1,0.01181,-0.01772,-0.02953*
1,1,0.01181,-0.01772,0.02953*
%
%ADD23ROUNDEDRECTD23*%
G04:AMPARAMS|DCode=24|XSize=70.87mil|YSize=47.24mil|CornerRadius=5.91mil|HoleSize=0mil|Usage=FLASHONLY|Rotation=0.000|XOffset=0mil|YOffset=0mil|HoleType=Round|Shape=RoundedRectangle|*
%AMROUNDEDRECTD24*
21,1,0.07087,0.03543,0,0,0.0*
21,1,0.05906,0.04724,0,0,0.0*
1,1,0.01181,0.02953,-0.01772*
1,1,0.01181,-0.02953,-0.01772*
1,1,0.01181,-0.02953,0.01772*
1,1,0.01181,0.02953,0.01772*
%
%ADD24ROUNDEDRECTD24*%
G04:AMPARAMS|DCode=25|XSize=51.18mil|YSize=31.5mil|CornerRadius=3.94mil|HoleSize=0mil|Usage=FLASHONLY|Rotation=270.000|XOffset=0mil|YOffset=0mil|HoleType=Round|Shape=RoundedRectangle|*
%AMROUNDEDRECTD25*
21,1,0.05118,0.02362,0,0,270.0*
21,1,0.04331,0.03150,0,0,270.0*
1,1,0.00787,-0.01181,-0.02165*
1,1,0.00787,-0.01181,0.02165*
1,1,0.00787,0.01181,0.02165*
1,1,0.00787,0.01181,-0.02165*
%
%ADD25ROUNDEDRECTD25*%
G04:AMPARAMS|DCode=26|XSize=51.18mil|YSize=31.5mil|CornerRadius=3.94mil|HoleSize=0mil|Usage=FLASHONLY|Rotation=0.000|XOffset=0mil|YOffset=0mil|HoleType=Round|Shape=RoundedRectangle|*
%AMROUNDEDRECTD26*
21,1,0.05118,0.02362,0,0,0.0*
21,1,0.04331,0.03150,0,0,0.0*
1,1,0.00787,0.02165,-0.01181*
1,1,0.00787,-0.02165,-0.01181*
1,1,0.00787,-0.02165,0.01181*
1,1,0.00787,0.02165,0.01181*
%
%ADD26ROUNDEDRECTD26*%
%ADD27R,0.02559X0.04331*%
G04:AMPARAMS|DCode=28|XSize=96.46mil|YSize=100.39mil|CornerRadius=9.65mil|HoleSize=0mil|Usage=FLASHONLY|Rotation=90.000|XOffset=0mil|YOffset=0mil|HoleType=Round|Shape=RoundedRectangle|*
%AMROUNDEDRECTD28*
21,1,0.09646,0.08110,0,0,90.0*
21,1,0.07717,0.10039,0,0,90.0*
1,1,0.01929,0.04055,0.03858*
1,1,0.01929,0.04055,-0.03858*
1,1,0.01929,-0.04055,-0.03858*
1,1,0.01929,-0.04055,0.03858*
%
%ADD28ROUNDEDRECTD28*%
%ADD29R,0.04724X0.05315*%
G04:AMPARAMS|DCode=30|XSize=70.87mil|YSize=51.18mil|CornerRadius=6.4mil|HoleSize=0mil|Usage=FLASHONLY|Rotation=0.000|XOffset=0mil|YOffset=0mil|HoleType=Round|Shape=RoundedRectangle|*
%AMROUNDEDRECTD30*
21,1,0.07087,0.03839,0,0,0.0*
21,1,0.05807,0.05118,0,0,0.0*
1,1,0.01280,0.02904,-0.01919*
1,1,0.01280,-0.02904,-0.01919*
1,1,0.01280,-0.02904,0.01919*
1,1,0.01280,0.02904,0.01919*
%
%ADD30ROUNDEDRECTD30*%
G04:AMPARAMS|DCode=31|XSize=55.12mil|YSize=39.37mil|CornerRadius=4.92mil|HoleSize=0mil|Usage=FLASHONLY|Rotation=90.000|XOffset=0mil|YOffset=0mil|HoleType=Round|Shape=RoundedRectangle|*
%AMROUNDEDRECTD31*
21,1,0.05512,0.02953,0,0,90.0*
21,1,0.04528,0.03937,0,0,90.0*
1,1,0.00984,0.01476,0.02264*
1,1,0.00984,0.01476,-0.02264*
1,1,0.00984,-0.01476,-0.02264*
1,1,0.00984,-0.01476,0.02264*
%
%ADD31ROUNDEDRECTD31*%
%ADD32R,0.07480X0.13780*%
%ADD33R,0.13780X0.07480*%
D10*
X373673Y377945D02*
D03*
X375642D02*
D03*
X377610D02*
D03*
X379579D02*
D03*
X381547D02*
D03*
X383516D02*
D03*
X385484D02*
D03*
X387453D02*
D03*
X389421D02*
D03*
X391390D02*
D03*
X393358D02*
D03*
X395327D02*
D03*
Y346055D02*
D03*
X393358D02*
D03*
X391390D02*
D03*
X389421D02*
D03*
X387453D02*
D03*
X385484D02*
D03*
X383516D02*
D03*
X381547D02*
D03*
X379579D02*
D03*
X377610D02*
D03*
X375642D02*
D03*
X373673D02*
D03*
D11*
X400445Y372827D02*
D03*
Y370858D02*
D03*
Y368890D02*
D03*
Y366921D02*
D03*
Y364953D02*
D03*
Y362984D02*
D03*
Y361016D02*
D03*
Y359047D02*
D03*
Y357079D02*
D03*
Y355110D02*
D03*
Y353142D02*
D03*
Y351173D02*
D03*
X368555D02*
D03*
Y353142D02*
D03*
Y355110D02*
D03*
Y357079D02*
D03*
Y359047D02*
D03*
Y361016D02*
D03*
Y362984D02*
D03*
Y364953D02*
D03*
Y366921D02*
D03*
Y368890D02*
D03*
Y370858D02*
D03*
Y372827D02*
D03*
D12*
X142000Y213260D02*
D03*
Y220740D02*
D03*
X200500Y220740D02*
D03*
Y213260D02*
D03*
X150000Y399840D02*
D03*
Y392360D02*
D03*
Y415340D02*
D03*
Y407860D02*
D03*
X413300Y301140D02*
D03*
Y293660D02*
D03*
D13*
X264760Y371000D02*
D03*
X272240D02*
D03*
X264760Y391500D02*
D03*
X272240D02*
D03*
X162760Y318500D02*
D03*
X170240D02*
D03*
X118240Y314000D02*
D03*
X110760D02*
D03*
D14*
X124547Y286252D02*
D03*
Y267748D02*
D03*
D15*
Y282118D02*
D03*
Y279559D02*
D03*
Y277000D02*
D03*
Y274441D02*
D03*
Y271882D02*
D03*
D17*
X437500Y248000D02*
D03*
D18*
Y258000D02*
D03*
D19*
X308768Y213843D02*
D03*
X342232D02*
D03*
D20*
X325500D02*
D03*
D21*
X165800Y374400D02*
D03*
X151200Y374500D02*
D03*
D22*
X158260Y400718D02*
D03*
X165740Y390482D02*
D03*
X162000D02*
D03*
X158260D02*
D03*
X165740Y400718D02*
D03*
D23*
X174500Y387618D02*
D03*
Y377382D02*
D03*
D24*
X184118Y400500D02*
D03*
X173882D02*
D03*
X156618Y339000D02*
D03*
X146382D02*
D03*
D25*
X150937Y273500D02*
D03*
X143063D02*
D03*
Y282500D02*
D03*
X150937D02*
D03*
D26*
X143000Y265437D02*
D03*
Y257563D02*
D03*
D27*
X153740Y328224D02*
D03*
X150000D02*
D03*
X146260D02*
D03*
Y318776D02*
D03*
X153740D02*
D03*
D28*
X170409Y302500D02*
D03*
X146591D02*
D03*
D29*
X184500Y334906D02*
D03*
Y348095D02*
D03*
D30*
X174600Y348191D02*
D03*
Y359609D02*
D03*
D31*
X398343Y308900D02*
D03*
X391257D02*
D03*
D32*
X325508Y241768D02*
D03*
X307988Y241768D02*
D03*
X290469D02*
D03*
X272949D02*
D03*
X255429D02*
D03*
X237910D02*
D03*
X220390D02*
D03*
Y322083D02*
D03*
X237910D02*
D03*
X255429D02*
D03*
X272949D02*
D03*
X290469D02*
D03*
X307988D02*
D03*
X325508Y322083D02*
D03*
D33*
X345685Y309087D02*
D03*
Y290980D02*
D03*
Y272866D02*
D03*
Y254756D02*
D03*
M02*
