G04 Layer_Color=8388736*
%FSLAX25Y25*%
%MOIN*%
G70*
G01*
G75*
%ADD78R,0.06000X0.15000*%
%ADD79R,0.08600X0.17700*%
%ADD80R,0.07100X0.17300*%
%ADD81O,0.01981X0.07887*%
%ADD82O,0.07887X0.01981*%
%ADD83R,0.06706X0.05918*%
%ADD84R,0.05918X0.06706*%
G04:AMPARAMS|DCode=85|XSize=67.06mil|YSize=55.24mil|CornerRadius=8.72mil|HoleSize=0mil|Usage=FLASHONLY|Rotation=0.000|XOffset=0mil|YOffset=0mil|HoleType=Round|Shape=RoundedRectangle|*
%AMROUNDEDRECTD85*
21,1,0.06706,0.03780,0,0,0.0*
21,1,0.04961,0.05524,0,0,0.0*
1,1,0.01745,0.02480,-0.01890*
1,1,0.01745,-0.02480,-0.01890*
1,1,0.01745,-0.02480,0.01890*
1,1,0.01745,0.02480,0.01890*
%
%ADD85ROUNDEDRECTD85*%
G04:AMPARAMS|DCode=86|XSize=67.06mil|YSize=21.78mil|CornerRadius=5.38mil|HoleSize=0mil|Usage=FLASHONLY|Rotation=0.000|XOffset=0mil|YOffset=0mil|HoleType=Round|Shape=RoundedRectangle|*
%AMROUNDEDRECTD86*
21,1,0.06706,0.01102,0,0,0.0*
21,1,0.05630,0.02178,0,0,0.0*
1,1,0.01076,0.02815,-0.00551*
1,1,0.01076,-0.02815,-0.00551*
1,1,0.01076,-0.02815,0.00551*
1,1,0.01076,0.02815,0.00551*
%
%ADD86ROUNDEDRECTD86*%
%ADD87C,0.05800*%
%ADD88O,0.13800X0.08800*%
G04:AMPARAMS|DCode=89|XSize=138mil|YSize=88mil|CornerRadius=14mil|HoleSize=0mil|Usage=FLASHONLY|Rotation=0.000|XOffset=0mil|YOffset=0mil|HoleType=Round|Shape=RoundedRectangle|*
%AMROUNDEDRECTD89*
21,1,0.13800,0.06000,0,0,0.0*
21,1,0.11000,0.08800,0,0,0.0*
1,1,0.02800,0.05500,-0.03000*
1,1,0.02800,-0.05500,-0.03000*
1,1,0.02800,-0.05500,0.03000*
1,1,0.02800,0.05500,0.03000*
%
%ADD89ROUNDEDRECTD89*%
%ADD90R,0.06312X0.20485*%
%ADD91R,0.04737X0.20485*%
%ADD92R,0.03300X0.03300*%
G04:AMPARAMS|DCode=93|XSize=31.62mil|YSize=47.37mil|CornerRadius=6.95mil|HoleSize=0mil|Usage=FLASHONLY|Rotation=0.000|XOffset=0mil|YOffset=0mil|HoleType=Round|Shape=RoundedRectangle|*
%AMROUNDEDRECTD93*
21,1,0.03162,0.03347,0,0,0.0*
21,1,0.01772,0.04737,0,0,0.0*
1,1,0.01391,0.00886,-0.01673*
1,1,0.01391,-0.00886,-0.01673*
1,1,0.01391,-0.00886,0.01673*
1,1,0.01391,0.00886,0.01673*
%
%ADD93ROUNDEDRECTD93*%
G04:AMPARAMS|DCode=94|XSize=78.87mil|YSize=55.24mil|CornerRadius=9.91mil|HoleSize=0mil|Usage=FLASHONLY|Rotation=90.000|XOffset=0mil|YOffset=0mil|HoleType=Round|Shape=RoundedRectangle|*
%AMROUNDEDRECTD94*
21,1,0.07887,0.03543,0,0,90.0*
21,1,0.05906,0.05524,0,0,90.0*
1,1,0.01981,0.01772,0.02953*
1,1,0.01981,0.01772,-0.02953*
1,1,0.01981,-0.01772,-0.02953*
1,1,0.01981,-0.01772,0.02953*
%
%ADD94ROUNDEDRECTD94*%
G04:AMPARAMS|DCode=95|XSize=78.87mil|YSize=55.24mil|CornerRadius=9.91mil|HoleSize=0mil|Usage=FLASHONLY|Rotation=0.000|XOffset=0mil|YOffset=0mil|HoleType=Round|Shape=RoundedRectangle|*
%AMROUNDEDRECTD95*
21,1,0.07887,0.03543,0,0,0.0*
21,1,0.05906,0.05524,0,0,0.0*
1,1,0.01981,0.02953,-0.01772*
1,1,0.01981,-0.02953,-0.01772*
1,1,0.01981,-0.02953,0.01772*
1,1,0.01981,0.02953,0.01772*
%
%ADD95ROUNDEDRECTD95*%
G04:AMPARAMS|DCode=96|XSize=59.18mil|YSize=39.5mil|CornerRadius=7.94mil|HoleSize=0mil|Usage=FLASHONLY|Rotation=270.000|XOffset=0mil|YOffset=0mil|HoleType=Round|Shape=RoundedRectangle|*
%AMROUNDEDRECTD96*
21,1,0.05918,0.02362,0,0,270.0*
21,1,0.04331,0.03950,0,0,270.0*
1,1,0.01587,-0.01181,-0.02165*
1,1,0.01587,-0.01181,0.02165*
1,1,0.01587,0.01181,0.02165*
1,1,0.01587,0.01181,-0.02165*
%
%ADD96ROUNDEDRECTD96*%
G04:AMPARAMS|DCode=97|XSize=59.18mil|YSize=39.5mil|CornerRadius=7.94mil|HoleSize=0mil|Usage=FLASHONLY|Rotation=0.000|XOffset=0mil|YOffset=0mil|HoleType=Round|Shape=RoundedRectangle|*
%AMROUNDEDRECTD97*
21,1,0.05918,0.02362,0,0,0.0*
21,1,0.04331,0.03950,0,0,0.0*
1,1,0.01587,0.02165,-0.01181*
1,1,0.01587,-0.02165,-0.01181*
1,1,0.01587,-0.02165,0.01181*
1,1,0.01587,0.02165,0.01181*
%
%ADD97ROUNDEDRECTD97*%
%ADD98R,0.03359X0.05131*%
G04:AMPARAMS|DCode=99|XSize=104.46mil|YSize=108.39mil|CornerRadius=13.65mil|HoleSize=0mil|Usage=FLASHONLY|Rotation=90.000|XOffset=0mil|YOffset=0mil|HoleType=Round|Shape=RoundedRectangle|*
%AMROUNDEDRECTD99*
21,1,0.10446,0.08110,0,0,90.0*
21,1,0.07717,0.10839,0,0,90.0*
1,1,0.02729,0.04055,0.03858*
1,1,0.02729,0.04055,-0.03858*
1,1,0.02729,-0.04055,-0.03858*
1,1,0.02729,-0.04055,0.03858*
%
%ADD99ROUNDEDRECTD99*%
%ADD100R,0.05524X0.06115*%
G04:AMPARAMS|DCode=101|XSize=78.87mil|YSize=59.18mil|CornerRadius=10.4mil|HoleSize=0mil|Usage=FLASHONLY|Rotation=0.000|XOffset=0mil|YOffset=0mil|HoleType=Round|Shape=RoundedRectangle|*
%AMROUNDEDRECTD101*
21,1,0.07887,0.03839,0,0,0.0*
21,1,0.05807,0.05918,0,0,0.0*
1,1,0.02080,0.02904,-0.01919*
1,1,0.02080,-0.02904,-0.01919*
1,1,0.02080,-0.02904,0.01919*
1,1,0.02080,0.02904,0.01919*
%
%ADD101ROUNDEDRECTD101*%
G04:AMPARAMS|DCode=102|XSize=63.12mil|YSize=47.37mil|CornerRadius=8.92mil|HoleSize=0mil|Usage=FLASHONLY|Rotation=90.000|XOffset=0mil|YOffset=0mil|HoleType=Round|Shape=RoundedRectangle|*
%AMROUNDEDRECTD102*
21,1,0.06312,0.02953,0,0,90.0*
21,1,0.04528,0.04737,0,0,90.0*
1,1,0.01784,0.01476,0.02264*
1,1,0.01784,0.01476,-0.02264*
1,1,0.01784,-0.01476,-0.02264*
1,1,0.01784,-0.01476,0.02264*
%
%ADD102ROUNDEDRECTD102*%
%ADD103R,0.08280X0.14579*%
%ADD104R,0.14579X0.08280*%
%ADD105P,0.06832X8X292.5*%
%ADD106C,0.06312*%
%ADD107C,0.11824*%
%ADD108C,0.07099*%
%ADD109R,0.06706X0.06706*%
%ADD110C,0.06706*%
%ADD111P,0.09815X8X112.5*%
%ADD112P,0.09815X8X22.5*%
%ADD113R,0.06706X0.06706*%
G04:AMPARAMS|DCode=114|XSize=108mil|YSize=108mil|CornerRadius=16.5mil|HoleSize=0mil|Usage=FLASHONLY|Rotation=0.000|XOffset=0mil|YOffset=0mil|HoleType=Round|Shape=RoundedRectangle|*
%AMROUNDEDRECTD114*
21,1,0.10800,0.07500,0,0,0.0*
21,1,0.07500,0.10800,0,0,0.0*
1,1,0.03300,0.03750,-0.03750*
1,1,0.03300,-0.03750,-0.03750*
1,1,0.03300,-0.03750,0.03750*
1,1,0.03300,0.03750,0.03750*
%
%ADD114ROUNDEDRECTD114*%
%ADD115C,0.10800*%
G04:AMPARAMS|DCode=116|XSize=102.49mil|YSize=70.99mil|CornerRadius=19.75mil|HoleSize=0mil|Usage=FLASHONLY|Rotation=0.000|XOffset=0mil|YOffset=0mil|HoleType=Round|Shape=RoundedRectangle|*
%AMROUNDEDRECTD116*
21,1,0.10249,0.03150,0,0,0.0*
21,1,0.06299,0.07099,0,0,0.0*
1,1,0.03950,0.03150,-0.01575*
1,1,0.03950,-0.03150,-0.01575*
1,1,0.03950,-0.03150,0.01575*
1,1,0.03950,0.03150,0.01575*
%
%ADD116ROUNDEDRECTD116*%
%ADD117C,0.06800*%
G04:AMPARAMS|DCode=118|XSize=68mil|YSize=68mil|CornerRadius=11.5mil|HoleSize=0mil|Usage=FLASHONLY|Rotation=0.000|XOffset=0mil|YOffset=0mil|HoleType=Round|Shape=RoundedRectangle|*
%AMROUNDEDRECTD118*
21,1,0.06800,0.04500,0,0,0.0*
21,1,0.04500,0.06800,0,0,0.0*
1,1,0.02300,0.02250,-0.02250*
1,1,0.02300,-0.02250,-0.02250*
1,1,0.02300,-0.02250,0.02250*
1,1,0.02300,0.02250,0.02250*
%
%ADD118ROUNDEDRECTD118*%
G36*
X167200Y380700D02*
Y368300D01*
X164700Y365800D01*
X161500D01*
Y368600D01*
X163000D01*
X164400Y370000D01*
Y379000D01*
X163000Y380400D01*
X161500D01*
Y383200D01*
X164700D01*
X167200Y380700D01*
D02*
G37*
G36*
X155500Y380400D02*
X154000D01*
X152600Y379000D01*
Y370000D01*
X154000Y368600D01*
X155500D01*
Y365800D01*
X152300D01*
X149800Y368300D01*
Y380700D01*
X152300Y383200D01*
X155500D01*
Y380400D01*
D02*
G37*
D78*
X124500Y277000D02*
D03*
D79*
X151200Y374350D02*
D03*
D80*
X165050Y374550D02*
D03*
D81*
X373673Y377945D02*
D03*
X375642D02*
D03*
X377610D02*
D03*
X379579D02*
D03*
X381547D02*
D03*
X383516D02*
D03*
X385484D02*
D03*
X387453D02*
D03*
X389421D02*
D03*
X391390D02*
D03*
X393358D02*
D03*
X395327D02*
D03*
Y346055D02*
D03*
X393358D02*
D03*
X391390D02*
D03*
X389421D02*
D03*
X387453D02*
D03*
X385484D02*
D03*
X383516D02*
D03*
X381547D02*
D03*
X379579D02*
D03*
X377610D02*
D03*
X375642D02*
D03*
X373673D02*
D03*
D82*
X400445Y372827D02*
D03*
Y370858D02*
D03*
Y368890D02*
D03*
Y366921D02*
D03*
Y364953D02*
D03*
Y362984D02*
D03*
Y361016D02*
D03*
Y359047D02*
D03*
Y357079D02*
D03*
Y355110D02*
D03*
Y353142D02*
D03*
Y351173D02*
D03*
X368555D02*
D03*
Y353142D02*
D03*
Y355110D02*
D03*
Y357079D02*
D03*
Y359047D02*
D03*
Y361016D02*
D03*
Y362984D02*
D03*
Y364953D02*
D03*
Y366921D02*
D03*
Y368890D02*
D03*
Y370858D02*
D03*
Y372827D02*
D03*
D83*
X142000Y213260D02*
D03*
Y220740D02*
D03*
X200500Y220740D02*
D03*
Y213260D02*
D03*
X150000Y399840D02*
D03*
Y392360D02*
D03*
Y415340D02*
D03*
Y407860D02*
D03*
X413300Y301140D02*
D03*
Y293660D02*
D03*
D84*
X264760Y371000D02*
D03*
X272240D02*
D03*
X264760Y391500D02*
D03*
X272240D02*
D03*
X162760Y318500D02*
D03*
X170240D02*
D03*
X118240Y314000D02*
D03*
X110760D02*
D03*
D85*
X124547Y286252D02*
D03*
Y267748D02*
D03*
D86*
Y282118D02*
D03*
Y279559D02*
D03*
Y277000D02*
D03*
Y274441D02*
D03*
Y271882D02*
D03*
D87*
X114000Y347000D02*
D03*
X146000Y359000D02*
D03*
X135000Y339500D02*
D03*
X220500Y219500D02*
D03*
D88*
X437500Y248000D02*
D03*
D89*
Y258000D02*
D03*
D90*
X308768Y213843D02*
D03*
X342232D02*
D03*
D91*
X325500D02*
D03*
D92*
X165800Y374400D02*
D03*
X151200Y374500D02*
D03*
D93*
X158260Y400718D02*
D03*
X165740Y390482D02*
D03*
X162000D02*
D03*
X158260D02*
D03*
X165740Y400718D02*
D03*
D94*
X174500Y387618D02*
D03*
Y377382D02*
D03*
D95*
X184118Y400500D02*
D03*
X173882D02*
D03*
X156618Y339000D02*
D03*
X146382D02*
D03*
D96*
X150937Y273500D02*
D03*
X143063D02*
D03*
Y282500D02*
D03*
X150937D02*
D03*
D97*
X143000Y265437D02*
D03*
Y257563D02*
D03*
D98*
X153740Y328224D02*
D03*
X150000D02*
D03*
X146260D02*
D03*
Y318776D02*
D03*
X153740D02*
D03*
D99*
X170409Y302500D02*
D03*
X146591D02*
D03*
D100*
X184500Y334906D02*
D03*
Y348095D02*
D03*
D101*
X174600Y348191D02*
D03*
Y359609D02*
D03*
D102*
X398343Y308900D02*
D03*
X391257D02*
D03*
D103*
X325508Y241768D02*
D03*
X307988Y241768D02*
D03*
X290469D02*
D03*
X272949D02*
D03*
X255429D02*
D03*
X237910D02*
D03*
X220390D02*
D03*
Y322083D02*
D03*
X237910D02*
D03*
X255429D02*
D03*
X272949D02*
D03*
X290469D02*
D03*
X307988D02*
D03*
X325508Y322083D02*
D03*
D104*
X345685Y309087D02*
D03*
Y290980D02*
D03*
Y272866D02*
D03*
Y254756D02*
D03*
D105*
X351000Y371706D02*
D03*
D106*
Y352494D02*
D03*
X152000Y427500D02*
D03*
X172000D02*
D03*
X162000D02*
D03*
D107*
X223000Y409500D02*
D03*
X222972Y354500D02*
D03*
D108*
X252500Y392000D02*
D03*
Y372000D02*
D03*
Y382059D02*
D03*
X183000Y213500D02*
D03*
Y223500D02*
D03*
X112500Y324500D02*
D03*
Y334500D02*
D03*
X157500Y213500D02*
D03*
Y223500D02*
D03*
D109*
X439000Y288900D02*
D03*
X439500Y395000D02*
D03*
X318500Y370500D02*
D03*
D110*
X439000Y298900D02*
D03*
Y308900D02*
D03*
Y318900D02*
D03*
Y328900D02*
D03*
Y338900D02*
D03*
Y348900D02*
D03*
Y358900D02*
D03*
X439500Y385000D02*
D03*
Y375000D02*
D03*
X256500Y217500D02*
D03*
X318500Y360500D02*
D03*
Y350500D02*
D03*
X328500Y370500D02*
D03*
Y360500D02*
D03*
Y350500D02*
D03*
X334500Y431500D02*
D03*
X344500D02*
D03*
X354500D02*
D03*
X364500D02*
D03*
X384500D02*
D03*
X374500D02*
D03*
D111*
X401158Y269620D02*
D03*
X383442D02*
D03*
X401158Y297180D02*
D03*
X383442D02*
D03*
D112*
X262720Y339142D02*
D03*
Y356858D02*
D03*
X290280Y339142D02*
D03*
Y356858D02*
D03*
D113*
X266500Y217500D02*
D03*
X394500Y431500D02*
D03*
D114*
X117000Y376500D02*
D03*
D115*
Y391500D02*
D03*
D116*
X123366Y297079D02*
D03*
Y256921D02*
D03*
X108799D02*
D03*
Y297079D02*
D03*
D117*
X440000Y248000D02*
D03*
D118*
Y258000D02*
D03*
M02*
