G04 Layer_Color=65535*
%FSLAX25Y25*%
%MOIN*%
G70*
G01*
G75*
%ADD27C,0.05000*%
%ADD46C,0.00500*%
%ADD47C,0.00984*%
%ADD48C,0.00787*%
%ADD49C,0.01000*%
D27*
X1368839Y961784D02*
G03*
X1368839Y961784I-3008J0D01*
G01*
D46*
X1336476Y1096043D02*
G03*
X1336476Y1096043I-4921J0D01*
G01*
X1483400Y973500D02*
G03*
X1483400Y973500I-3400J0D01*
G01*
X1327957Y1082614D02*
X1335043D01*
X1327957Y1109386D02*
X1335043D01*
X1317500Y1083243D02*
Y1108753D01*
X1345500Y1083259D02*
Y1108741D01*
X1444532Y1120866D02*
X1448468D01*
X1444532D02*
Y1124016D01*
Y1125984D02*
Y1129134D01*
X1448468D01*
Y1125984D02*
Y1129134D01*
Y1120866D02*
Y1124016D01*
X1414532Y1124866D02*
X1418468D01*
X1414532D02*
Y1128016D01*
Y1129984D02*
Y1133134D01*
X1418468D01*
Y1129984D02*
Y1133134D01*
Y1124866D02*
Y1128016D01*
X1353032Y1121866D02*
X1356968D01*
X1353032D02*
Y1125016D01*
Y1126984D02*
Y1130134D01*
X1356968D01*
Y1126984D02*
Y1130134D01*
Y1121866D02*
Y1125016D01*
X1383531Y1125366D02*
X1387469D01*
X1383531D02*
Y1128516D01*
Y1130484D02*
Y1133634D01*
X1387469D01*
Y1130484D02*
Y1133634D01*
Y1125366D02*
Y1128516D01*
X1352936Y1105589D02*
X1358064D01*
X1352936Y1104411D02*
X1358064D01*
X1252126Y959902D02*
X1253307D01*
X1252126Y960295D02*
X1253307D01*
Y959508D02*
Y960295D01*
X1250945Y959902D02*
X1252126D01*
X1250945Y960295D02*
X1252126D01*
X1250945Y959508D02*
Y960295D01*
X1266693Y959902D02*
X1267874D01*
X1266693Y960295D02*
X1267874D01*
X1266693Y959508D02*
Y960295D01*
X1267874Y959902D02*
X1269055D01*
X1267874Y960295D02*
X1269055D01*
Y959508D02*
Y960295D01*
X1252126Y959508D02*
Y987067D01*
X1250945Y959508D02*
X1253307D01*
X1266693D02*
X1269055D01*
X1267874D02*
Y987067D01*
X1272126Y959402D02*
X1273307D01*
X1272126Y959795D02*
X1273307D01*
Y959008D02*
Y959795D01*
X1270945Y959402D02*
X1272126D01*
X1270945Y959795D02*
X1272126D01*
X1270945Y959008D02*
Y959795D01*
X1286693Y959402D02*
X1287874D01*
X1286693Y959795D02*
X1287874D01*
X1286693Y959008D02*
Y959795D01*
X1287874Y959402D02*
X1289055D01*
X1287874Y959795D02*
X1289055D01*
Y959008D02*
Y959795D01*
X1272126Y959008D02*
Y986567D01*
X1270945Y959008D02*
X1273307D01*
X1286693D02*
X1289055D01*
X1287874D02*
Y986567D01*
X1323936Y1017589D02*
X1329064D01*
X1323936Y1016411D02*
X1329064D01*
X1240756Y936890D02*
X1297941D01*
Y898209D02*
Y936890D01*
X1240756Y898209D02*
X1273433D01*
X1286819Y898209D02*
X1297941D01*
X1240756Y898209D02*
Y902933D01*
X1242724Y904902D01*
Y930098D01*
X1240756Y932067D02*
X1242724Y930098D01*
X1240756Y932067D02*
Y936890D01*
X1413500Y897000D02*
Y912000D01*
X1433500D01*
Y897000D02*
Y912000D01*
X1413500Y897000D02*
X1433500D01*
X1347411Y1027436D02*
Y1032564D01*
X1348589Y1027436D02*
Y1032564D01*
D47*
X1309441Y1012154D02*
G03*
X1309441Y1012154I-492J0D01*
G01*
D48*
X1303972Y969937D02*
Y976630D01*
X1311453Y978598D02*
X1313028Y976630D01*
X1303972D02*
X1305547Y978598D01*
X1313028Y969937D02*
Y976630D01*
X1305547Y978598D02*
X1311453D01*
X1303972Y954583D02*
X1313028D01*
X1303972D02*
Y962063D01*
X1313028Y954583D02*
Y962063D01*
X1295957Y1032843D02*
X1303043D01*
X1295957Y1013157D02*
X1303043D01*
X1295957D02*
Y1032843D01*
X1303043Y1013157D02*
Y1032843D01*
X1368425Y1128850D02*
X1371575D01*
X1368425Y1135150D02*
X1371575D01*
X1429425Y1128850D02*
X1432575D01*
X1429425Y1135150D02*
X1432575D01*
X1399925Y1128850D02*
X1403075D01*
X1399925Y1135150D02*
X1403075D01*
X1486500Y1015000D02*
X1496500D01*
Y995000D02*
Y1015000D01*
X1486500Y995000D02*
X1496500D01*
X1486500D02*
Y1015000D01*
X1487000Y1079500D02*
X1497000D01*
Y1029500D02*
Y1079500D01*
X1487000Y1029500D02*
Y1079500D01*
Y1029500D02*
X1497000D01*
X1263500Y1127350D02*
Y1136650D01*
X1288500Y1127350D02*
Y1136650D01*
X1271350Y1144500D02*
X1280650D01*
X1271350Y1119500D02*
X1280650D01*
D49*
X1375500Y957000D02*
X1450500D01*
Y1097000D01*
X1375500D02*
X1450500D01*
X1375500Y957000D02*
Y1097000D01*
X1308499Y1097498D02*
X1307499Y1098498D01*
X1305500D01*
X1304500Y1097498D01*
Y1096499D01*
X1305500Y1095499D01*
X1307499D01*
X1308499Y1094499D01*
Y1093500D01*
X1307499Y1092500D01*
X1305500D01*
X1304500Y1093500D01*
X1310498Y1092500D02*
X1312497D01*
X1311498D01*
Y1098498D01*
X1310498Y1097498D01*
X1477350Y986148D02*
X1481349D01*
X1479349D01*
Y980150D01*
X1483348D02*
Y986148D01*
X1486347D01*
X1487347Y985148D01*
Y983149D01*
X1486347Y982149D01*
X1483348D01*
X1489346Y980150D02*
X1491346D01*
X1490346D01*
Y986148D01*
X1489346Y985148D01*
X1398500Y1117498D02*
Y1112500D01*
X1399500Y1111500D01*
X1401499D01*
X1402499Y1112500D01*
Y1117498D01*
X1408497D02*
X1406497Y1116498D01*
X1404498Y1114499D01*
Y1112500D01*
X1405498Y1111500D01*
X1407497D01*
X1408497Y1112500D01*
Y1113499D01*
X1407497Y1114499D01*
X1404498D01*
X1291500Y1009998D02*
Y1005000D01*
X1292500Y1004000D01*
X1294499D01*
X1295499Y1005000D01*
Y1009998D01*
X1301497D02*
X1297498D01*
Y1006999D01*
X1299497Y1007999D01*
X1300497D01*
X1301497Y1006999D01*
Y1005000D01*
X1300497Y1004000D01*
X1298498D01*
X1297498Y1005000D01*
X1314500Y993000D02*
Y998998D01*
X1317499D01*
X1318499Y997998D01*
Y995999D01*
X1317499Y994999D01*
X1314500D01*
X1316499D02*
X1318499Y993000D01*
X1320498D02*
X1322497D01*
X1321498D01*
Y998998D01*
X1320498Y997998D01*
X1329495Y993000D02*
X1325496D01*
X1329495Y996999D01*
Y997998D01*
X1328496Y998998D01*
X1326496D01*
X1325496Y997998D01*
X1323500Y1036500D02*
Y1042498D01*
X1326499D01*
X1327499Y1041498D01*
Y1039499D01*
X1326499Y1038499D01*
X1323500D01*
X1325499D02*
X1327499Y1036500D01*
X1329498D02*
X1331497D01*
X1330498D01*
Y1042498D01*
X1329498Y1041498D01*
X1334496Y1036500D02*
X1336496D01*
X1335496D01*
Y1042498D01*
X1334496Y1041498D01*
X1353000Y1074000D02*
Y1079998D01*
X1355999D01*
X1356999Y1078998D01*
Y1076999D01*
X1355999Y1075999D01*
X1353000D01*
X1354999D02*
X1356999Y1074000D01*
X1358998D02*
X1360997D01*
X1359998D01*
Y1079998D01*
X1358998Y1078998D01*
X1363996D02*
X1364996Y1079998D01*
X1366996D01*
X1367995Y1078998D01*
Y1075000D01*
X1366996Y1074000D01*
X1364996D01*
X1363996Y1075000D01*
Y1078998D01*
X1336500Y1061500D02*
Y1067498D01*
X1339499D01*
X1340499Y1066498D01*
Y1064499D01*
X1339499Y1063499D01*
X1336500D01*
X1338499D02*
X1340499Y1061500D01*
X1342498Y1062500D02*
X1343498Y1061500D01*
X1345497D01*
X1346497Y1062500D01*
Y1066498D01*
X1345497Y1067498D01*
X1343498D01*
X1342498Y1066498D01*
Y1065499D01*
X1343498Y1064499D01*
X1346497D01*
X1294000Y1052000D02*
Y1057998D01*
X1296999D01*
X1297999Y1056998D01*
Y1054999D01*
X1296999Y1053999D01*
X1294000D01*
X1295999D02*
X1297999Y1052000D01*
X1299998Y1056998D02*
X1300998Y1057998D01*
X1302997D01*
X1303997Y1056998D01*
Y1055999D01*
X1302997Y1054999D01*
X1303997Y1053999D01*
Y1053000D01*
X1302997Y1052000D01*
X1300998D01*
X1299998Y1053000D01*
Y1053999D01*
X1300998Y1054999D01*
X1299998Y1055999D01*
Y1056998D01*
X1300998Y1054999D02*
X1302997D01*
X1290000Y948000D02*
Y953998D01*
X1292999D01*
X1293999Y952998D01*
Y950999D01*
X1292999Y949999D01*
X1290000D01*
X1291999D02*
X1293999Y948000D01*
X1295998Y953998D02*
X1299997D01*
Y952998D01*
X1295998Y949000D01*
Y948000D01*
X1487600Y1082900D02*
Y1088898D01*
X1490599D01*
X1491599Y1087898D01*
Y1085899D01*
X1490599Y1084899D01*
X1487600D01*
X1497597Y1082900D02*
X1493598D01*
X1497597Y1086899D01*
Y1087898D01*
X1496597Y1088898D01*
X1494598D01*
X1493598Y1087898D01*
X1487150Y1018350D02*
Y1024348D01*
X1490149D01*
X1491149Y1023348D01*
Y1021349D01*
X1490149Y1020349D01*
X1487150D01*
X1493148Y1018350D02*
X1495147D01*
X1494148D01*
Y1024348D01*
X1493148Y1023348D01*
X1365000Y1124998D02*
Y1119000D01*
X1368999D01*
X1370998Y1123998D02*
X1371998Y1124998D01*
X1373997D01*
X1374997Y1123998D01*
Y1122999D01*
X1373997Y1121999D01*
X1372997D01*
X1373997D01*
X1374997Y1120999D01*
Y1120000D01*
X1373997Y1119000D01*
X1371998D01*
X1370998Y1120000D01*
X1396500Y1145998D02*
Y1140000D01*
X1400499D01*
X1406497D02*
X1402498D01*
X1406497Y1143999D01*
Y1144998D01*
X1405497Y1145998D01*
X1403498D01*
X1402498Y1144998D01*
X1427500Y1125498D02*
Y1119500D01*
X1431499D01*
X1433498D02*
X1435497D01*
X1434498D01*
Y1125498D01*
X1433498Y1124498D01*
X1266149Y1187248D02*
X1264149D01*
X1265149D01*
Y1182250D01*
X1264149Y1181250D01*
X1263150D01*
X1262150Y1182250D01*
X1272147Y1181250D02*
X1268148D01*
X1272147Y1185249D01*
Y1186248D01*
X1271147Y1187248D01*
X1269148D01*
X1268148Y1186248D01*
X1242999Y946098D02*
X1240999D01*
X1241999D01*
Y941100D01*
X1240999Y940100D01*
X1240000D01*
X1239000Y941100D01*
X1244998Y940100D02*
X1246997D01*
X1245998D01*
Y946098D01*
X1244998Y945098D01*
X1414300Y921198D02*
Y915200D01*
Y918199D01*
X1418299D01*
Y921198D01*
Y915200D01*
X1420298D02*
X1422297D01*
X1421298D01*
Y921198D01*
X1420298Y920198D01*
X1316500Y969998D02*
Y964000D01*
X1319499D01*
X1320499Y965000D01*
Y968998D01*
X1319499Y969998D01*
X1316500D01*
X1322498Y964000D02*
X1324497D01*
X1323498D01*
Y969998D01*
X1322498Y968998D01*
X1337499Y1119998D02*
X1336499Y1120998D01*
X1334500D01*
X1333500Y1119998D01*
Y1116000D01*
X1334500Y1115000D01*
X1336499D01*
X1337499Y1116000D01*
X1339498Y1115000D02*
X1341497D01*
X1340498D01*
Y1120998D01*
X1339498Y1119998D01*
X1344496D02*
X1345496Y1120998D01*
X1347495D01*
X1348495Y1119998D01*
Y1118999D01*
X1347495Y1117999D01*
X1348495Y1116999D01*
Y1116000D01*
X1347495Y1115000D01*
X1345496D01*
X1344496Y1116000D01*
Y1116999D01*
X1345496Y1117999D01*
X1344496Y1118999D01*
Y1119998D01*
X1345496Y1117999D02*
X1347495D01*
X1382499Y1144998D02*
X1381499Y1145998D01*
X1379500D01*
X1378500Y1144998D01*
Y1141000D01*
X1379500Y1140000D01*
X1381499D01*
X1382499Y1141000D01*
X1384498Y1140000D02*
X1386497D01*
X1385498D01*
Y1145998D01*
X1384498Y1144998D01*
X1389496Y1145998D02*
X1393495D01*
Y1144998D01*
X1389496Y1141000D01*
Y1140000D01*
X1414999Y1144998D02*
X1413999Y1145998D01*
X1412000D01*
X1411000Y1144998D01*
Y1141000D01*
X1412000Y1140000D01*
X1413999D01*
X1414999Y1141000D01*
X1416998Y1140000D02*
X1418997D01*
X1417998D01*
Y1145998D01*
X1416998Y1144998D01*
X1425995Y1145998D02*
X1423996Y1144998D01*
X1421996Y1142999D01*
Y1141000D01*
X1422996Y1140000D01*
X1424996D01*
X1425995Y1141000D01*
Y1141999D01*
X1424996Y1142999D01*
X1421996D01*
X1446499Y1135998D02*
X1445499Y1136998D01*
X1443500D01*
X1442500Y1135998D01*
Y1132000D01*
X1443500Y1131000D01*
X1445499D01*
X1446499Y1132000D01*
X1448498Y1131000D02*
X1450497D01*
X1449498D01*
Y1136998D01*
X1448498Y1135998D01*
X1457495Y1136998D02*
X1453496D01*
Y1133999D01*
X1455496Y1134999D01*
X1456495D01*
X1457495Y1133999D01*
Y1132000D01*
X1456495Y1131000D01*
X1454496D01*
X1453496Y1132000D01*
X1364999Y1106455D02*
X1363999Y1107455D01*
X1362000D01*
X1361000Y1106455D01*
Y1102456D01*
X1362000Y1101457D01*
X1363999D01*
X1364999Y1102456D01*
X1366998Y1101457D02*
X1368997D01*
X1367998D01*
Y1107455D01*
X1366998Y1106455D01*
X1374996Y1101457D02*
Y1107455D01*
X1371996Y1104456D01*
X1375995D01*
X1333002Y1014999D02*
X1332002Y1013999D01*
Y1012000D01*
X1333002Y1011000D01*
X1337000D01*
X1338000Y1012000D01*
Y1013999D01*
X1337000Y1014999D01*
X1338000Y1016998D02*
Y1018997D01*
Y1017998D01*
X1332002D01*
X1333002Y1016998D01*
X1338000Y1025995D02*
Y1021996D01*
X1334001Y1025995D01*
X1333002D01*
X1332002Y1024996D01*
Y1022996D01*
X1333002Y1021996D01*
X1346499Y1041698D02*
X1345499Y1042698D01*
X1343500D01*
X1342500Y1041698D01*
Y1037700D01*
X1343500Y1036700D01*
X1345499D01*
X1346499Y1037700D01*
X1348498Y1036700D02*
X1350497D01*
X1349498D01*
Y1042698D01*
X1348498Y1041698D01*
X1353496Y1036700D02*
X1355496D01*
X1354496D01*
Y1042698D01*
X1353496Y1041698D01*
X1275649Y998148D02*
X1274649Y999148D01*
X1272650D01*
X1271650Y998148D01*
Y994150D01*
X1272650Y993150D01*
X1274649D01*
X1275649Y994150D01*
X1277648Y998148D02*
X1278648Y999148D01*
X1280647D01*
X1281647Y998148D01*
Y997149D01*
X1280647Y996149D01*
X1279647D01*
X1280647D01*
X1281647Y995149D01*
Y994150D01*
X1280647Y993150D01*
X1278648D01*
X1277648Y994150D01*
X1255649Y998648D02*
X1254649Y999648D01*
X1252650D01*
X1251650Y998648D01*
Y994650D01*
X1252650Y993650D01*
X1254649D01*
X1255649Y994650D01*
X1261647Y993650D02*
X1257648D01*
X1261647Y997649D01*
Y998648D01*
X1260647Y999648D01*
X1258648D01*
X1257648Y998648D01*
M02*
