G04 Layer_Color=32896*
%FSLAX25Y25*%
%MOIN*%
G70*
G01*
G75*
%ADD46C,0.00500*%
%ADD47C,0.00984*%
%ADD48C,0.00787*%
%ADD49C,0.01000*%
D46*
X1296936Y1011411D02*
X1302064D01*
X1296936Y1012589D02*
X1302064D01*
X1446276Y1034276D02*
Y1035457D01*
X1446669Y1034276D02*
Y1035457D01*
X1445882Y1034276D02*
X1446669D01*
X1446276Y1042543D02*
Y1043724D01*
X1446669Y1042543D02*
Y1043724D01*
X1445882D02*
X1446669D01*
X1445882Y1042543D02*
Y1043724D01*
Y1042543D02*
X1454937D01*
X1445882Y1035457D02*
X1454937D01*
X1445882Y1034276D02*
Y1035457D01*
X1458724Y1014543D02*
Y1015724D01*
X1458331Y1014543D02*
Y1015724D01*
X1459118D01*
X1458724Y1006276D02*
Y1007457D01*
X1458331Y1006276D02*
Y1007457D01*
Y1006276D02*
X1459118D01*
Y1007457D01*
X1450063D02*
X1459118D01*
X1450063Y1014543D02*
X1459118D01*
Y1015724D01*
X1392936Y1015911D02*
X1398064D01*
X1392936Y1017089D02*
X1398064D01*
X1410043Y1036276D02*
X1411224D01*
X1410043Y1036669D02*
X1411224D01*
Y1035882D02*
Y1036669D01*
X1401776Y1036276D02*
X1402957D01*
X1401776Y1036669D02*
X1402957D01*
X1401776Y1035882D02*
Y1036669D01*
Y1035882D02*
X1402957D01*
Y1044937D01*
X1410043Y1035882D02*
Y1044937D01*
Y1035882D02*
X1411224D01*
X1446436Y1025589D02*
X1451564D01*
X1446436Y1024411D02*
X1451564D01*
X1289626Y977098D02*
X1290807D01*
X1289626Y976705D02*
X1290807D01*
Y977492D01*
X1288445Y977098D02*
X1289626D01*
X1288445Y976705D02*
X1289626D01*
X1288445D02*
Y977492D01*
X1304193Y977098D02*
X1305374D01*
X1304193Y976705D02*
X1305374D01*
X1304193D02*
Y977492D01*
X1305374Y977098D02*
X1306555D01*
X1305374Y976705D02*
X1306555D01*
Y977492D01*
X1289626Y949933D02*
Y977492D01*
X1288445D02*
X1290807D01*
X1304193D02*
X1306555D01*
X1305374Y949933D02*
Y977492D01*
X1303193Y1064902D02*
X1304374D01*
X1303193Y1065295D02*
X1304374D01*
X1303193Y1064508D02*
Y1065295D01*
X1304374Y1064902D02*
X1305555D01*
X1304374Y1065295D02*
X1305555D01*
Y1064508D02*
Y1065295D01*
X1288626Y1064902D02*
X1289807D01*
X1288626Y1065295D02*
X1289807D01*
Y1064508D02*
Y1065295D01*
X1287445Y1064902D02*
X1288626D01*
X1287445Y1065295D02*
X1288626D01*
X1287445Y1064508D02*
Y1065295D01*
X1304374Y1064508D02*
Y1092067D01*
X1303193Y1064508D02*
X1305555D01*
X1287445D02*
X1289807D01*
X1288626D02*
Y1092067D01*
X1296936Y1031911D02*
X1302064D01*
X1296936Y1033089D02*
X1302064D01*
D47*
X1424941Y1030346D02*
G03*
X1424941Y1030346I-492J0D01*
G01*
X1246075Y963811D02*
G03*
X1246075Y963811I-492J0D01*
G01*
Y1007811D02*
G03*
X1246075Y1007811I-492J0D01*
G01*
X1245575Y1052311D02*
G03*
X1245575Y1052311I-492J0D01*
G01*
D48*
X1411457Y1009657D02*
X1418543D01*
X1411457Y1029342D02*
X1418543D01*
X1411457Y1009657D02*
Y1029342D01*
X1418543Y1009657D02*
Y1029342D01*
X1251488Y963811D02*
Y990189D01*
X1262512Y963811D02*
Y990189D01*
X1251488Y963811D02*
X1262512D01*
X1251488Y990189D02*
X1262512D01*
X1251488Y1007811D02*
Y1034189D01*
X1262512Y1007811D02*
Y1034189D01*
X1251488Y1007811D02*
X1262512D01*
X1251488Y1034189D02*
X1262512D01*
X1250988Y1052311D02*
Y1078689D01*
X1262012Y1052311D02*
Y1078689D01*
X1250988Y1052311D02*
X1262012D01*
X1250988Y1078689D02*
X1262012D01*
D49*
X1420000Y1006498D02*
Y1001500D01*
X1419000Y1000500D01*
X1417001D01*
X1416001Y1001500D01*
Y1006498D01*
X1414002Y1005498D02*
X1413002Y1006498D01*
X1411003D01*
X1410003Y1005498D01*
Y1004499D01*
X1411003Y1003499D01*
X1412003D01*
X1411003D01*
X1410003Y1002499D01*
Y1001500D01*
X1411003Y1000500D01*
X1413002D01*
X1414002Y1001500D01*
X1433000Y1001000D02*
Y995002D01*
X1435999D01*
X1436999Y996002D01*
Y998001D01*
X1435999Y999001D01*
X1433000D01*
X1434999D02*
X1436999Y1001000D01*
X1442997Y995002D02*
X1440997Y996002D01*
X1438998Y998001D01*
Y1000000D01*
X1439998Y1001000D01*
X1441997D01*
X1442997Y1000000D01*
Y999001D01*
X1441997Y998001D01*
X1438998D01*
X1424000Y1056500D02*
X1418002D01*
Y1053501D01*
X1419002Y1052501D01*
X1421001D01*
X1422001Y1053501D01*
Y1056500D01*
Y1054501D02*
X1424000Y1052501D01*
Y1047503D02*
X1418002D01*
X1421001Y1050502D01*
Y1046503D01*
X1437000Y1045500D02*
Y1051498D01*
X1434001D01*
X1433001Y1050498D01*
Y1048499D01*
X1434001Y1047499D01*
X1437000D01*
X1435001D02*
X1433001Y1045500D01*
X1431002Y1050498D02*
X1430002Y1051498D01*
X1428003D01*
X1427003Y1050498D01*
Y1049499D01*
X1428003Y1048499D01*
X1429003D01*
X1428003D01*
X1427003Y1047499D01*
Y1046500D01*
X1428003Y1045500D01*
X1430002D01*
X1431002Y1046500D01*
X1454500Y1019500D02*
X1460498D01*
Y1022499D01*
X1459498Y1023499D01*
X1457499D01*
X1456499Y1022499D01*
Y1019500D01*
Y1021499D02*
X1454500Y1023499D01*
Y1029497D02*
Y1025498D01*
X1458499Y1029497D01*
X1459498D01*
X1460498Y1028497D01*
Y1026498D01*
X1459498Y1025498D01*
X1398000Y1040500D02*
Y1046498D01*
X1395001D01*
X1394001Y1045498D01*
Y1043499D01*
X1395001Y1042499D01*
X1398000D01*
X1396001D02*
X1394001Y1040500D01*
X1392002D02*
X1390003D01*
X1391002D01*
Y1046498D01*
X1392002Y1045498D01*
X1408998Y1058499D02*
X1409998Y1057499D01*
Y1055500D01*
X1408998Y1054500D01*
X1405000D01*
X1404000Y1055500D01*
Y1057499D01*
X1405000Y1058499D01*
X1408998Y1060498D02*
X1409998Y1061498D01*
Y1063497D01*
X1408998Y1064497D01*
X1407999D01*
X1406999Y1063497D01*
X1405999Y1064497D01*
X1405000D01*
X1404000Y1063497D01*
Y1061498D01*
X1405000Y1060498D01*
X1405999D01*
X1406999Y1061498D01*
X1407999Y1060498D01*
X1408998D01*
X1406999Y1061498D02*
Y1063497D01*
X1452501Y1051498D02*
X1453501Y1052498D01*
X1455500D01*
X1456500Y1051498D01*
Y1047500D01*
X1455500Y1046500D01*
X1453501D01*
X1452501Y1047500D01*
X1450502Y1052498D02*
X1446503D01*
Y1051498D01*
X1450502Y1047500D01*
Y1046500D01*
X1396799Y1002002D02*
X1395799Y1001002D01*
X1393800D01*
X1392800Y1002002D01*
Y1006000D01*
X1393800Y1007000D01*
X1395799D01*
X1396799Y1006000D01*
X1402797Y1001002D02*
X1400797Y1002002D01*
X1398798Y1004001D01*
Y1006000D01*
X1399798Y1007000D01*
X1401797D01*
X1402797Y1006000D01*
Y1005001D01*
X1401797Y1004001D01*
X1398798D01*
X1472501Y1012998D02*
X1473501Y1013998D01*
X1475500D01*
X1476500Y1012998D01*
Y1009000D01*
X1475500Y1008000D01*
X1473501D01*
X1472501Y1009000D01*
X1466503Y1013998D02*
X1470502D01*
Y1010999D01*
X1468503Y1011999D01*
X1467503D01*
X1466503Y1010999D01*
Y1009000D01*
X1467503Y1008000D01*
X1469502D01*
X1470502Y1009000D01*
X1467498Y1024499D02*
X1468498Y1023499D01*
Y1021500D01*
X1467498Y1020500D01*
X1463500D01*
X1462500Y1021500D01*
Y1023499D01*
X1463500Y1024499D01*
X1462500Y1026498D02*
Y1028497D01*
Y1027498D01*
X1468498D01*
X1467498Y1026498D01*
X1272800Y1088898D02*
Y1083900D01*
X1271800Y1082900D01*
X1269801D01*
X1268801Y1083900D01*
Y1088898D01*
X1263803Y1082900D02*
Y1088898D01*
X1266802Y1085899D01*
X1262803D01*
X1273300Y1000398D02*
Y995400D01*
X1272300Y994400D01*
X1270301D01*
X1269301Y995400D01*
Y1000398D01*
X1263303Y994400D02*
X1267302D01*
X1263303Y998399D01*
Y999398D01*
X1264303Y1000398D01*
X1266302D01*
X1267302Y999398D01*
X1273300Y1044398D02*
Y1039400D01*
X1272300Y1038400D01*
X1270301D01*
X1269301Y1039400D01*
Y1044398D01*
X1267302Y1038400D02*
X1265303D01*
X1266302D01*
Y1044398D01*
X1267302Y1043398D01*
X1461000Y1001500D02*
X1455002D01*
Y998501D01*
X1456002Y997501D01*
X1458001D01*
X1459001Y998501D01*
Y1001500D01*
Y999501D02*
X1461000Y997501D01*
X1455002Y991503D02*
Y995502D01*
X1458001D01*
X1457001Y993503D01*
Y992503D01*
X1458001Y991503D01*
X1460000D01*
X1461000Y992503D01*
Y994502D01*
X1460000Y995502D01*
X1298201Y1046998D02*
X1299201Y1047998D01*
X1301200D01*
X1302200Y1046998D01*
Y1043000D01*
X1301200Y1042000D01*
X1299201D01*
X1298201Y1043000D01*
X1296202Y1042000D02*
X1294203D01*
X1295202D01*
Y1047998D01*
X1296202Y1046998D01*
X1291204D02*
X1290204Y1047998D01*
X1288204D01*
X1287205Y1046998D01*
Y1045999D01*
X1288204Y1044999D01*
X1289204D01*
X1288204D01*
X1287205Y1043999D01*
Y1043000D01*
X1288204Y1042000D01*
X1290204D01*
X1291204Y1043000D01*
X1288002Y1015501D02*
X1287002Y1016501D01*
Y1018500D01*
X1288002Y1019500D01*
X1292000D01*
X1293000Y1018500D01*
Y1016501D01*
X1292000Y1015501D01*
X1293000Y1013502D02*
Y1011503D01*
Y1012502D01*
X1287002D01*
X1288002Y1013502D01*
Y1008504D02*
X1287002Y1007504D01*
Y1005505D01*
X1288002Y1004505D01*
X1292000D01*
X1293000Y1005505D01*
Y1007504D01*
X1292000Y1008504D01*
X1288002D01*
X1300801Y1103698D02*
X1301801Y1104698D01*
X1303800D01*
X1304800Y1103698D01*
Y1099700D01*
X1303800Y1098700D01*
X1301801D01*
X1300801Y1099700D01*
X1298802D02*
X1297802Y1098700D01*
X1295803D01*
X1294803Y1099700D01*
Y1103698D01*
X1295803Y1104698D01*
X1297802D01*
X1298802Y1103698D01*
Y1102699D01*
X1297802Y1101699D01*
X1294803D01*
X1301801Y990698D02*
X1302801Y991698D01*
X1304800D01*
X1305800Y990698D01*
Y986700D01*
X1304800Y985700D01*
X1302801D01*
X1301801Y986700D01*
X1296803Y985700D02*
Y991698D01*
X1299802Y988699D01*
X1295803D01*
M02*
