G04 Layer_Color=65535*
%FSLAX25Y25*%
%MOIN*%
G70*
G01*
G75*
%ADD35C,0.01000*%
%ADD54C,0.06000*%
%ADD71C,0.02362*%
%ADD72C,0.00984*%
%ADD73C,0.00500*%
%ADD74C,0.00787*%
%ADD75C,0.00600*%
%ADD76C,0.01969*%
%ADD77C,0.00800*%
G36*
X158882Y393600D02*
X156673D01*
Y395809D01*
X158882Y393600D01*
D02*
G37*
D35*
X169329Y374521D02*
G03*
X169329Y374521I-450J0D01*
G01*
X200532Y354500D02*
X252500D01*
Y409618D01*
X200532D02*
X252500D01*
X200500Y354500D02*
Y409618D01*
X205469Y244500D02*
Y319500D01*
Y244500D02*
X343500D01*
X341531D02*
Y319500D01*
X205469D02*
X341354D01*
X342400Y393898D02*
Y392898D01*
X344399Y390899D01*
X346399Y392898D01*
Y393898D01*
X344399Y390899D02*
Y387900D01*
X348398D02*
X350397D01*
X349398D01*
Y393898D01*
X348398Y392898D01*
X131000Y330498D02*
Y325500D01*
X132000Y324500D01*
X133999D01*
X134999Y325500D01*
Y330498D01*
X136998Y329498D02*
X137998Y330498D01*
X139997D01*
X140997Y329498D01*
Y328499D01*
X139997Y327499D01*
X140997Y326499D01*
Y325500D01*
X139997Y324500D01*
X137998D01*
X136998Y325500D01*
Y326499D01*
X137998Y327499D01*
X136998Y328499D01*
Y329498D01*
X137998Y327499D02*
X139997D01*
X379500Y364998D02*
Y360000D01*
X380500Y359000D01*
X382499D01*
X383499Y360000D01*
Y364998D01*
X385498D02*
X389497D01*
Y363998D01*
X385498Y360000D01*
Y359000D01*
X201000Y424398D02*
Y419400D01*
X202000Y418400D01*
X203999D01*
X204999Y419400D01*
Y424398D01*
X210997D02*
X208997Y423398D01*
X206998Y421399D01*
Y419400D01*
X207998Y418400D01*
X209997D01*
X210997Y419400D01*
Y420399D01*
X209997Y421399D01*
X206998D01*
X157500Y413098D02*
Y408100D01*
X158500Y407100D01*
X160499D01*
X161499Y408100D01*
Y413098D01*
X167497D02*
X163498D01*
Y410099D01*
X165497Y411099D01*
X166497D01*
X167497Y410099D01*
Y408100D01*
X166497Y407100D01*
X164498D01*
X163498Y408100D01*
X434600Y373298D02*
Y368300D01*
X435600Y367300D01*
X437599D01*
X438599Y368300D01*
Y373298D01*
X443597Y367300D02*
Y373298D01*
X440598Y370299D01*
X444597D01*
X189800Y328698D02*
Y323700D01*
X190800Y322700D01*
X192799D01*
X193799Y323700D01*
Y328698D01*
X195798Y327698D02*
X196798Y328698D01*
X198797D01*
X199797Y327698D01*
Y326699D01*
X198797Y325699D01*
X197797D01*
X198797D01*
X199797Y324699D01*
Y323700D01*
X198797Y322700D01*
X196798D01*
X195798Y323700D01*
X111350Y359648D02*
X115349D01*
X113349D01*
Y353650D01*
X117348D02*
Y359648D01*
X120347D01*
X121347Y358648D01*
Y356649D01*
X120347Y355649D01*
X117348D01*
X126345Y353650D02*
Y359648D01*
X123346Y356649D01*
X127345D01*
X123000Y350998D02*
X126999D01*
X124999D01*
Y345000D01*
X128998D02*
Y350998D01*
X131997D01*
X132997Y349998D01*
Y347999D01*
X131997Y346999D01*
X128998D01*
X134996Y349998D02*
X135996Y350998D01*
X137995D01*
X138995Y349998D01*
Y348999D01*
X137995Y347999D01*
X136995D01*
X137995D01*
X138995Y346999D01*
Y346000D01*
X137995Y345000D01*
X135996D01*
X134996Y346000D01*
X151500Y362498D02*
X155499D01*
X153499D01*
Y356500D01*
X157498D02*
Y362498D01*
X160497D01*
X161497Y361498D01*
Y359499D01*
X160497Y358499D01*
X157498D01*
X167495Y356500D02*
X163496D01*
X167495Y360499D01*
Y361498D01*
X166495Y362498D01*
X164496D01*
X163496Y361498D01*
X199000Y220998D02*
X202999D01*
X200999D01*
Y215000D01*
X204998D02*
Y220998D01*
X207997D01*
X208997Y219998D01*
Y217999D01*
X207997Y216999D01*
X204998D01*
X210996Y215000D02*
X212996D01*
X211996D01*
Y220998D01*
X210996Y219998D01*
X382999Y309698D02*
X381999Y310698D01*
X380000D01*
X379000Y309698D01*
Y308699D01*
X380000Y307699D01*
X381999D01*
X382999Y306699D01*
Y305700D01*
X381999Y304700D01*
X380000D01*
X379000Y305700D01*
X388997Y304700D02*
X384998D01*
X388997Y308699D01*
Y309698D01*
X387997Y310698D01*
X385998D01*
X384998Y309698D01*
X263149Y370248D02*
X262149Y371248D01*
X260150D01*
X259150Y370248D01*
Y369249D01*
X260150Y368249D01*
X262149D01*
X263149Y367249D01*
Y366250D01*
X262149Y365250D01*
X260150D01*
X259150Y366250D01*
X265148Y365250D02*
X267147D01*
X266148D01*
Y371248D01*
X265148Y370248D01*
X161000Y323500D02*
Y329498D01*
X163999D01*
X164999Y328498D01*
Y326499D01*
X163999Y325499D01*
X161000D01*
X162999D02*
X164999Y323500D01*
X170997D02*
X166998D01*
X170997Y327499D01*
Y328498D01*
X169997Y329498D01*
X167998D01*
X166998Y328498D01*
X176995Y329498D02*
X172996D01*
Y326499D01*
X174996Y327499D01*
X175995D01*
X176995Y326499D01*
Y324500D01*
X175995Y323500D01*
X173996D01*
X172996Y324500D01*
X107500Y303000D02*
Y308998D01*
X110499D01*
X111499Y307998D01*
Y305999D01*
X110499Y304999D01*
X107500D01*
X109499D02*
X111499Y303000D01*
X117497D02*
X113498D01*
X117497Y306999D01*
Y307998D01*
X116497Y308998D01*
X114498D01*
X113498Y307998D01*
X122495Y303000D02*
Y308998D01*
X119496Y305999D01*
X123495D01*
X262800Y397900D02*
Y403898D01*
X265799D01*
X266799Y402898D01*
Y400899D01*
X265799Y399899D01*
X262800D01*
X264799D02*
X266799Y397900D01*
X272797D02*
X268798D01*
X272797Y401899D01*
Y402898D01*
X271797Y403898D01*
X269798D01*
X268798Y402898D01*
X278795Y397900D02*
X274796D01*
X278795Y401899D01*
Y402898D01*
X277795Y403898D01*
X275796D01*
X274796Y402898D01*
X262800Y377400D02*
Y383398D01*
X265799D01*
X266799Y382398D01*
Y380399D01*
X265799Y379399D01*
X262800D01*
X264799D02*
X266799Y377400D01*
X272797D02*
X268798D01*
X272797Y381399D01*
Y382398D01*
X271797Y383398D01*
X269798D01*
X268798Y382398D01*
X274796Y377400D02*
X276796D01*
X275796D01*
Y383398D01*
X274796Y382398D01*
X156000Y270500D02*
Y276498D01*
X158999D01*
X159999Y275498D01*
Y273499D01*
X158999Y272499D01*
X156000D01*
X157999D02*
X159999Y270500D01*
X165997D02*
X161998D01*
X165997Y274499D01*
Y275498D01*
X164997Y276498D01*
X162998D01*
X161998Y275498D01*
X167996D02*
X168996Y276498D01*
X170995D01*
X171995Y275498D01*
Y271500D01*
X170995Y270500D01*
X168996D01*
X167996Y271500D01*
Y275498D01*
X156000Y279500D02*
Y285498D01*
X158999D01*
X159999Y284498D01*
Y282499D01*
X158999Y281499D01*
X156000D01*
X157999D02*
X159999Y279500D01*
X161998D02*
X163997D01*
X162998D01*
Y285498D01*
X161998Y284498D01*
X166996Y280500D02*
X167996Y279500D01*
X169995D01*
X170995Y280500D01*
Y284498D01*
X169995Y285498D01*
X167996D01*
X166996Y284498D01*
Y283499D01*
X167996Y282499D01*
X170995D01*
X148500Y258500D02*
Y264498D01*
X151499D01*
X152499Y263498D01*
Y261499D01*
X151499Y260499D01*
X148500D01*
X150499D02*
X152499Y258500D01*
X154498D02*
X156497D01*
X155498D01*
Y264498D01*
X154498Y263498D01*
X159496D02*
X160496Y264498D01*
X162496D01*
X163495Y263498D01*
Y262499D01*
X162496Y261499D01*
X163495Y260499D01*
Y259500D01*
X162496Y258500D01*
X160496D01*
X159496Y259500D01*
Y260499D01*
X160496Y261499D01*
X159496Y262499D01*
Y263498D01*
X160496Y261499D02*
X162496D01*
X416800Y272400D02*
X410802D01*
Y275399D01*
X411802Y276399D01*
X413801D01*
X414801Y275399D01*
Y272400D01*
Y274399D02*
X416800Y276399D01*
Y278398D02*
Y280397D01*
Y279398D01*
X410802D01*
X411802Y278398D01*
X410802Y287395D02*
X411802Y285396D01*
X413801Y283396D01*
X415800D01*
X416800Y284396D01*
Y286396D01*
X415800Y287395D01*
X414801D01*
X413801Y286396D01*
Y283396D01*
X144500Y405000D02*
X138502D01*
Y407999D01*
X139502Y408999D01*
X141501D01*
X142501Y407999D01*
Y405000D01*
Y406999D02*
X144500Y408999D01*
Y410998D02*
Y412997D01*
Y411998D01*
X138502D01*
X139502Y410998D01*
X138502Y419995D02*
Y415996D01*
X141501D01*
X140501Y417996D01*
Y418996D01*
X141501Y419995D01*
X143500D01*
X144500Y418996D01*
Y416996D01*
X143500Y415996D01*
X144500Y388000D02*
X138502D01*
Y390999D01*
X139502Y391999D01*
X141501D01*
X142501Y390999D01*
Y388000D01*
Y389999D02*
X144500Y391999D01*
Y393998D02*
Y395997D01*
Y394998D01*
X138502D01*
X139502Y393998D01*
X144500Y401996D02*
X138502D01*
X141501Y398996D01*
Y402995D01*
X139600Y226700D02*
Y232698D01*
X142599D01*
X143599Y231698D01*
Y229699D01*
X142599Y228699D01*
X139600D01*
X141599D02*
X143599Y226700D01*
X145598D02*
X147597D01*
X146598D01*
Y232698D01*
X145598Y231698D01*
X150596D02*
X151596Y232698D01*
X153595D01*
X154595Y231698D01*
Y230699D01*
X153595Y229699D01*
X152596D01*
X153595D01*
X154595Y228699D01*
Y227700D01*
X153595Y226700D01*
X151596D01*
X150596Y227700D01*
X198100Y226700D02*
Y232698D01*
X201099D01*
X202099Y231698D01*
Y229699D01*
X201099Y228699D01*
X198100D01*
X200099D02*
X202099Y226700D01*
X204098Y231698D02*
X205098Y232698D01*
X207097D01*
X208097Y231698D01*
Y230699D01*
X207097Y229699D01*
X208097Y228699D01*
Y227700D01*
X207097Y226700D01*
X205098D01*
X204098Y227700D01*
Y228699D01*
X205098Y229699D01*
X204098Y230699D01*
Y231698D01*
X205098Y229699D02*
X207097D01*
X316000Y429000D02*
Y434998D01*
X318999D01*
X319999Y433998D01*
Y431999D01*
X318999Y430999D01*
X316000D01*
X324997Y429000D02*
Y434998D01*
X321998Y431999D01*
X325997D01*
X435100Y403400D02*
Y409398D01*
X438099D01*
X439099Y408398D01*
Y406399D01*
X438099Y405399D01*
X435100D01*
X441098Y408398D02*
X442098Y409398D01*
X444097D01*
X445097Y408398D01*
Y407399D01*
X444097Y406399D01*
X443097D01*
X444097D01*
X445097Y405399D01*
Y404400D01*
X444097Y403400D01*
X442098D01*
X441098Y404400D01*
X311000Y356500D02*
X305002D01*
Y359499D01*
X306002Y360499D01*
X308001D01*
X309001Y359499D01*
Y356500D01*
X311000Y366497D02*
Y362498D01*
X307001Y366497D01*
X306002D01*
X305002Y365497D01*
Y363498D01*
X306002Y362498D01*
X252100Y225900D02*
Y231898D01*
X255099D01*
X256099Y230898D01*
Y228899D01*
X255099Y227899D01*
X252100D01*
X258098Y225900D02*
X260097D01*
X259098D01*
Y231898D01*
X258098Y230898D01*
X174000Y240098D02*
Y234100D01*
X177999D01*
X183997Y240098D02*
X179998D01*
Y234100D01*
X183997D01*
X179998Y237099D02*
X181997D01*
X185996Y240098D02*
Y234100D01*
X188995D01*
X189995Y235100D01*
Y239098D01*
X188995Y240098D01*
X185996D01*
X191994Y234100D02*
X193993D01*
X192994D01*
Y240098D01*
X191994Y239098D01*
X103502Y341500D02*
X109500D01*
Y345499D01*
X103502Y351497D02*
Y347498D01*
X109500D01*
Y351497D01*
X106501Y347498D02*
Y349497D01*
X103502Y353496D02*
X109500D01*
Y356495D01*
X108500Y357495D01*
X104502D01*
X103502Y356495D01*
Y353496D01*
X109500Y362493D02*
X103502D01*
X106501Y359494D01*
Y363493D01*
X148500Y240098D02*
Y234100D01*
X152499D01*
X158497Y240098D02*
X154498D01*
Y234100D01*
X158497D01*
X154498Y237099D02*
X156497D01*
X160496Y240098D02*
Y234100D01*
X163495D01*
X164495Y235100D01*
Y239098D01*
X163495Y240098D01*
X160496D01*
X170493Y234100D02*
X166494D01*
X170493Y238099D01*
Y239098D01*
X169493Y240098D01*
X167494D01*
X166494Y239098D01*
X137000Y377998D02*
Y372000D01*
X140999D01*
X142998D02*
X144997D01*
X143998D01*
Y377998D01*
X142998Y376998D01*
X102849Y409648D02*
X100849D01*
X101849D01*
Y404650D01*
X100849Y403650D01*
X99850D01*
X98850Y404650D01*
X104848Y408648D02*
X105848Y409648D01*
X107847D01*
X108847Y408648D01*
Y407649D01*
X107847Y406649D01*
X106847D01*
X107847D01*
X108847Y405649D01*
Y404650D01*
X107847Y403650D01*
X105848D01*
X104848Y404650D01*
X22499Y310698D02*
X20499D01*
X21499D01*
Y305700D01*
X20499Y304700D01*
X19500D01*
X18500Y305700D01*
X28497Y304700D02*
X24498D01*
X28497Y308699D01*
Y309698D01*
X27497Y310698D01*
X25498D01*
X24498Y309698D01*
X309699Y233198D02*
X307699D01*
X308699D01*
Y228200D01*
X307699Y227200D01*
X306700D01*
X305700Y228200D01*
X311698Y227200D02*
X313697D01*
X312698D01*
Y233198D01*
X311698Y232198D01*
X430700Y272298D02*
Y266300D01*
Y269299D01*
X434699D01*
Y272298D01*
Y266300D01*
X436698D02*
X438697D01*
X437698D01*
Y272298D01*
X436698Y271298D01*
X185999Y361998D02*
X182000D01*
Y358999D01*
X183999D01*
X182000D01*
Y356000D01*
X190997D02*
X188998D01*
X187998Y357000D01*
Y358999D01*
X188998Y359999D01*
X190997D01*
X191997Y358999D01*
Y357999D01*
X187998D01*
X193996Y359999D02*
Y356000D01*
Y357999D01*
X194996Y358999D01*
X195995Y359999D01*
X196995D01*
X199994D02*
Y356000D01*
Y357999D01*
X200994Y358999D01*
X201993Y359999D01*
X202993D01*
X205992Y356000D02*
X207992D01*
X206992D01*
Y359999D01*
X205992D01*
X211990Y360998D02*
Y359999D01*
X210991D01*
X212990D01*
X211990D01*
Y357000D01*
X212990Y356000D01*
X218988D02*
X216989D01*
X215989Y357000D01*
Y358999D01*
X216989Y359999D01*
X218988D01*
X219988Y358999D01*
Y357999D01*
X215989D01*
X227985Y361998D02*
Y356000D01*
X230984D01*
X231984Y357000D01*
Y357999D01*
X230984Y358999D01*
X227985D01*
X230984D01*
X231984Y359999D01*
Y360998D01*
X230984Y361998D01*
X227985D01*
X236982Y356000D02*
X234983D01*
X233983Y357000D01*
Y358999D01*
X234983Y359999D01*
X236982D01*
X237982Y358999D01*
Y357999D01*
X233983D01*
X240981Y359999D02*
X242980D01*
X243980Y358999D01*
Y356000D01*
X240981D01*
X239981Y357000D01*
X240981Y357999D01*
X243980D01*
X249978Y361998D02*
Y356000D01*
X246979D01*
X245979Y357000D01*
Y358999D01*
X246979Y359999D01*
X249978D01*
X251977Y356000D02*
X253977D01*
X252977D01*
Y361998D01*
X251977Y360998D01*
X163599Y353398D02*
X159600D01*
Y350399D01*
X161599D01*
X159600D01*
Y347400D01*
X165598D02*
X167597D01*
X166598D01*
Y353398D01*
X165598Y352398D01*
X146999Y351498D02*
X145999Y352498D01*
X144000D01*
X143000Y351498D01*
Y347500D01*
X144000Y346500D01*
X145999D01*
X146999Y347500D01*
X148998Y346500D02*
X150997D01*
X149998D01*
Y352498D01*
X148998Y351498D01*
X157995Y352498D02*
X153996D01*
Y349499D01*
X155996Y350499D01*
X156995D01*
X157995Y349499D01*
Y347500D01*
X156995Y346500D01*
X154996D01*
X153996Y347500D01*
X182999Y304998D02*
X181999Y305998D01*
X180000D01*
X179000Y304998D01*
Y301000D01*
X180000Y300000D01*
X181999D01*
X182999Y301000D01*
X184998Y300000D02*
X186997D01*
X185998D01*
Y305998D01*
X184998Y304998D01*
X192996Y300000D02*
Y305998D01*
X189996Y302999D01*
X193995D01*
X395801Y315402D02*
X396801Y314402D01*
X398800D01*
X399800Y315402D01*
Y319400D01*
X398800Y320400D01*
X396801D01*
X395801Y319400D01*
X393802Y320400D02*
X391803D01*
X392802D01*
Y314402D01*
X393802Y315402D01*
X388804D02*
X387804Y314402D01*
X385805D01*
X384805Y315402D01*
Y316401D01*
X385805Y317401D01*
X386804D01*
X385805D01*
X384805Y318401D01*
Y319400D01*
X385805Y320400D01*
X387804D01*
X388804Y319400D01*
X184999Y382998D02*
X183999Y383998D01*
X182000D01*
X181000Y382998D01*
Y379000D01*
X182000Y378000D01*
X183999D01*
X184999Y379000D01*
X186998Y378000D02*
X188997D01*
X187998D01*
Y383998D01*
X186998Y382998D01*
X195995Y378000D02*
X191996D01*
X195995Y381999D01*
Y382998D01*
X194995Y383998D01*
X192996D01*
X191996Y382998D01*
X176999Y411998D02*
X175999Y412998D01*
X174000D01*
X173000Y411998D01*
Y408000D01*
X174000Y407000D01*
X175999D01*
X176999Y408000D01*
X178998Y407000D02*
X180997D01*
X179998D01*
Y412998D01*
X178998Y411998D01*
X183996Y407000D02*
X185996D01*
X184996D01*
Y412998D01*
X183996Y411998D01*
D54*
X205134Y327201D02*
D03*
D71*
X378791Y368890D02*
G03*
X378791Y368890I-1181J0D01*
G01*
D72*
X369047Y375583D02*
G03*
X369047Y375583I-492J0D01*
G01*
X157677Y328224D02*
G03*
X157677Y328224I-492J0D01*
G01*
D73*
X117400Y347000D02*
G03*
X117400Y347000I-3400J0D01*
G01*
X149400Y359000D02*
G03*
X149400Y359000I-3400J0D01*
G01*
X397166Y283357D02*
G03*
X397166Y283357I-4921J0D01*
G01*
X281378Y348055D02*
G03*
X281378Y348055I-4921J0D01*
G01*
X138400Y339500D02*
G03*
X138400Y339500I-3400J0D01*
G01*
X223900Y219500D02*
G03*
X223900Y219500I-3400J0D01*
G01*
X156673Y393600D02*
Y397600D01*
X167303Y397600D01*
Y393600D02*
Y397600D01*
X156673Y393600D02*
X167303Y393600D01*
X388757Y296786D02*
X395843D01*
X388757Y270014D02*
X395843D01*
X406300Y270648D02*
Y296157D01*
X378300Y270659D02*
Y296141D01*
X289886Y344457D02*
Y351543D01*
X263114Y344457D02*
Y351543D01*
X263748Y334000D02*
X289257D01*
X263759Y362000D02*
X289241D01*
X145500Y271000D02*
X148500D01*
X145500Y276000D02*
X148500D01*
X145500Y285000D02*
X148500D01*
X145500Y280000D02*
X148500D01*
X145500Y260000D02*
Y263000D01*
X140500Y260000D02*
Y263000D01*
X124678Y387327D02*
Y395201D01*
Y387327D02*
X130583Y385358D01*
X124678Y395201D02*
X130583Y397169D01*
X124678Y372563D02*
Y380437D01*
Y372563D02*
X130583Y370595D01*
X124678Y380437D02*
X130583Y382405D01*
X101843Y399138D02*
X130583D01*
Y369000D02*
Y399138D01*
X101843Y369000D02*
X130583D01*
X101843D02*
Y399138D01*
X98200Y379000D02*
X100700Y376500D01*
X98200Y374000D02*
Y379000D01*
Y374000D02*
X100700Y376500D01*
X114500Y365500D02*
X117000Y368000D01*
X114500Y365500D02*
X119500D01*
X117000Y368000D02*
X119500Y365500D01*
X430000Y263000D02*
X445000D01*
Y243000D02*
Y263000D01*
X430000Y243000D02*
X445000D01*
X430000D02*
Y263000D01*
X169776Y377382D02*
X170957D01*
Y386437D01*
X178043Y377382D02*
Y386437D01*
Y377382D02*
X179224D01*
Y378169D01*
X178043D02*
X179224D01*
X178043Y377776D02*
X179224D01*
X169776Y377382D02*
Y378169D01*
X170957D01*
X169776Y377776D02*
X170957D01*
X173882Y404043D02*
Y405224D01*
Y404043D02*
X182937D01*
X173882Y396957D02*
X182937D01*
X173882Y395776D02*
Y396957D01*
Y395776D02*
X174669D01*
Y396957D01*
X174276Y395776D02*
Y396957D01*
X173882Y405224D02*
X174669D01*
Y404043D02*
Y405224D01*
X174276Y404043D02*
Y405224D01*
X146382Y342543D02*
Y343724D01*
Y342543D02*
X155437D01*
X146382Y335457D02*
X155437D01*
X146382Y334276D02*
Y335457D01*
Y334276D02*
X147169D01*
Y335457D01*
X146776Y334276D02*
Y335457D01*
X146382Y343724D02*
X147169D01*
Y342543D02*
Y343724D01*
X146776Y342543D02*
Y343724D01*
X145902Y309193D02*
Y310374D01*
X146295Y309193D02*
Y310374D01*
X145508Y309193D02*
X146295D01*
X145902Y310374D02*
Y311555D01*
X146295Y310374D02*
Y311555D01*
X145508D02*
X146295D01*
X145902Y294626D02*
Y295807D01*
X146295Y294626D02*
Y295807D01*
X145508D02*
X146295D01*
X145902Y293445D02*
Y294626D01*
X146295Y293445D02*
Y294626D01*
X145508Y293445D02*
X146295D01*
X145508Y310374D02*
X173067D01*
X145508Y309193D02*
Y311555D01*
Y293445D02*
Y295807D01*
Y294626D02*
X173067D01*
X178100Y352000D02*
Y355800D01*
X171100Y351900D02*
Y355900D01*
X395389Y306336D02*
Y311464D01*
X394211Y306336D02*
Y311464D01*
D74*
X187024Y211962D02*
G03*
X188429Y223929I-4024J6538D01*
G01*
X177319Y223664D02*
G03*
X178976Y211962I5681J-5164D01*
G01*
X116524Y322962D02*
G03*
X117929Y334929I-4024J6538D01*
G01*
X106819Y334664D02*
G03*
X108476Y322962I5681J-5164D01*
G01*
X161524Y211962D02*
G03*
X162929Y223929I-4024J6538D01*
G01*
X151819Y223664D02*
G03*
X153476Y211962I5681J-5164D01*
G01*
X341748Y384541D02*
X360252D01*
Y339659D02*
Y384541D01*
X341748Y339659D02*
X360252D01*
X341748D02*
Y384541D01*
X373673Y351173D02*
X395327D01*
X373673Y372827D02*
X395327D01*
Y351173D02*
Y372827D01*
X373673Y351173D02*
Y372827D01*
X434000Y363900D02*
X444000D01*
Y283900D02*
Y363900D01*
X434000Y283900D02*
X444000D01*
X434000D02*
Y363900D01*
X434500Y370000D02*
Y400000D01*
Y370000D02*
X444500D01*
Y400000D01*
X434500D02*
X444500D01*
X251500Y212500D02*
Y222500D01*
X271500D01*
Y212500D02*
Y222500D01*
X251500Y212500D02*
X271500D01*
X177319Y223664D02*
X177655Y224000D01*
X187000D02*
X188429D01*
X177655D02*
X179000D01*
X106819Y334664D02*
X107155Y335000D01*
X116500D02*
X117929D01*
X107155D02*
X108500D01*
X151819Y223664D02*
X152155Y224000D01*
X161500D02*
X162929D01*
X152155D02*
X153500D01*
X313098Y223685D02*
X321957D01*
X329043D02*
X337902D01*
X156102Y322516D02*
Y324484D01*
X143898Y322516D02*
Y324484D01*
X156102D01*
X143898Y322516D02*
X156102D01*
X181350Y340122D02*
Y342878D01*
X187650Y340122D02*
Y342878D01*
X313500Y345500D02*
X333500D01*
Y375500D01*
X313500D02*
X333500D01*
X313500Y345500D02*
Y375500D01*
X329500Y426500D02*
X399500D01*
Y436500D01*
X329500D02*
X399500D01*
X329500Y426500D02*
Y436500D01*
D75*
X165250Y364500D02*
X167250Y366500D01*
X151700Y364500D02*
X165250D01*
X149700Y366500D02*
X151700Y364500D01*
X149775Y382400D02*
X151875Y384500D01*
X165300D01*
X167300Y382500D01*
X185001Y228500D02*
X188000D01*
X187000D01*
X185001Y230499D01*
X186501Y229000D01*
X188000Y230499D01*
X114501Y339500D02*
X117500D01*
X116500D01*
X114501Y341499D01*
X116000Y340000D01*
X117500Y341499D01*
X159501Y228500D02*
X162500D01*
X161500D01*
X159501Y230499D01*
X161001Y229000D01*
X162500Y230499D01*
D76*
X154862Y390619D02*
X154881Y390600D01*
X154900Y390619D01*
X154881Y390637D01*
X154862Y390619D01*
D77*
X326500Y378001D02*
X331498D01*
X328999Y380500D01*
Y377168D01*
X316500Y378500D02*
Y376834D01*
Y377667D01*
X321498D01*
X320665Y378500D01*
Y342500D02*
X321498Y341667D01*
Y340001D01*
X320665Y339168D01*
X319832D01*
X318999Y340001D01*
Y340834D01*
Y340001D01*
X318166Y339168D01*
X317333D01*
X316500Y340001D01*
Y341667D01*
X317333Y342500D01*
X331498Y339168D02*
X330665Y340834D01*
X328999Y342500D01*
X327333D01*
X326500Y341667D01*
Y340001D01*
X327333Y339168D01*
X328166D01*
X328999Y340001D01*
Y342500D01*
M02*
